<?xml version="1.0" encoding="UTF-8"?>
<svg xmlns="http://www.w3.org/2000/svg" xmlns:xlink="http://www.w3.org/1999/xlink" viewBox="0 0 59.09 19.16">
  <defs>
    <style>
      .cls-1 {
        fill: #d3e9f8;
      }

      .cls-1, .cls-2, .cls-3, .cls-4, .cls-5, .cls-6, .cls-7, .cls-8, .cls-9, .cls-10, .cls-11, .cls-12, .cls-13, .cls-14, .cls-15, .cls-16, .cls-17, .cls-18, .cls-19, .cls-20, .cls-21, .cls-22, .cls-23, .cls-24, .cls-25, .cls-26, .cls-27, .cls-28, .cls-29, .cls-30, .cls-31, .cls-32, .cls-33, .cls-34, .cls-35 {
        stroke-width: 0px;
      }

      .cls-2 {
        fill: #e9f5fc;
      }

      .cls-3 {
        fill: #dff1fb;
      }

      .cls-4 {
        fill: #d1e8f8;
      }

      .cls-36 {
        clip-path: url(#clippath);
      }

      .cls-5 {
        fill: none;
      }

      .cls-6 {
        fill: #ecf7fd;
      }

      .cls-7 {
        fill: #cbe5f6;
      }

      .cls-8 {
        fill: #d4eaf8;
      }

      .cls-37 {
        mix-blend-mode: multiply;
      }

      .cls-9 {
        fill: #f3f8fc;
      }

      .cls-10 {
        fill: #d1e8f7;
      }

      .cls-11 {
        fill: #e8f1f9;
      }

      .cls-12 {
        fill: #cde5f7;
      }

      .cls-13 {
        fill: #e1f1fb;
      }

      .cls-14 {
        fill: #e4f1fb;
      }

      .cls-15 {
        fill: #d8ebf8;
      }

      .cls-16 {
        fill: #e9f2fa;
      }

      .cls-17 {
        fill: #ecf4fb;
      }

      .cls-18 {
        fill: #e1f0fa;
      }

      .cls-19 {
        fill: #e6f2fb;
      }

      .cls-20 {
        fill: #e5f3fb;
      }

      .cls-21 {
        fill: #cfe6f7;
      }

      .cls-22 {
        fill: #cae3f6;
      }

      .cls-23 {
        fill: #ddeffa;
      }

      .cls-24 {
        fill: #d0e7f7;
      }

      .cls-25 {
        fill: #e4f3fb;
      }

      .cls-26 {
        fill: #d9ebf8;
      }

      .cls-27 {
        fill: #dbeffb;
      }

      .cls-38 {
        isolation: isolate;
      }

      .cls-28 {
        fill: #e7f4fc;
      }

      .cls-29 {
        fill: #cfe8f8;
      }

      .cls-30 {
        fill: #c9e4f6;
      }

      .cls-31 {
        fill: #e1f3fc;
      }

      .cls-32 {
        fill: #d5e8f7;
      }

      .cls-33 {
        fill: #daeefa;
      }

      .cls-34 {
        fill: #dbedf9;
      }

      .cls-35 {
        fill: #deecf8;
      }
    </style>
    <clipPath id="clippath">
      <path class="cls-5" d="M0,19.16S1.92-1.01,17.82.04c0,0,6.42-.63,13.9,7.9,0,0,6.21-6.42,14.53-3.79,8.32,2.63,12.84,14.74,12.84,14.74,0,0-59.09-.2-59.09.27Z"/>
    </clipPath>
  </defs>
  <g class="cls-38">
    <g id="Layer_2" data-name="Layer 2">
      <g id="_1-เมฆ3" data-name="1-เมฆ3">
        <g class="cls-36">
          <g class="cls-37">
            <path class="cls-15" d="M74.98,11.11c.24.23.48.46.72.7-.89.85-1.83,1.64-2.68,2.53-.8.83-1.97.82-2.93,1.3-3.47,1.23-6.9,1.26-10.25-.39-.92-.45-1.85-.84-2.85-1.06-.46-.1-.97-.25-1.25-.61-.92-1.16-2.32-1.53-3.52-2.23-.28-.16-.59-.29-.9-.22-1.15.29-2.34.19-3.49.45-1.86-.21-3.7.48-5.58.12-.81-.16-1.64.08-2.45.21-2.33.38-4.68-.24-7.01.16-1.98.34-4.05.25-5.95,1.08-.39.12-.77.15-1.16-.02-.45-.66.32-.96.42-1.46,1-.93,2.07-1.64,3.55-1.46.43.05.84-.15,1.24-.32,1.23-.55,2.5-.62,3.78-.26.84.23,1.69.31,2.55.31.92-.04,1.86.19,2.75-.32.33-.18.8-.08,1.12.16.73.53,1.45.32,2.23.16,1.39-.29,2.69-.67,3.79-1.62.35-.3.81-.65,1.38-.51.73.87,1.61,1.17,2.81,1.25,1.43.09,2.84.61,3.96,1.75.89.91,1.95,1.62,3.35,1.74.96.08,1.8.71,2.74.96,2.04,1.15,4.25,1.5,6.55,1.22,1.47-.17,2.66-1.04,3.85-1.83,1.02-.68,1.96-1.51,3.21-1.77Z"/>
            <path class="cls-6" d="M2.99,6.67c1.08-1.78,2.62-3.05,4.47-3.97C11.28.43,15.36-.85,19.86-.57c.5.03,1.01-.01,1.47.24-.05.64-.58.66-1.02.73-.84.14-1.25.64-1.24,1.44.01.96-.43,1.62-1.22,2.11-.4.25-.75.56-1.01.96-.22.34-.51.64-.93.65-1.62.04-2.87.89-4.14,1.72-.97.63-2.35.48-3.11-.39-.48-.56-.98-1.11-1.41-1.71-.71-.99-.9-1.02-1.85-.28-.25.19-.49.39-.71.6-.28.25-.55.5-.82.76-.19.17-.37.36-.61.47-.1.02-.2,0-.28-.06Z"/>
            <path class="cls-32" d="M25.58,12.98h1.18c-.2.81-.98,1.06-1.57,1.4-1.2.67-2.28,1.49-3.33,2.34-1.46.97-3.17,1.3-4.86,1.99,1.56.06,3.03.02,4.51.02.53,0,1.07-.05,1.6-.02,1.31.01,2.63-.07,3.94-.01,2.72-.02,5.45-.05,8.17-.01,2.19.05,4.38-.08,6.57.02,1.5.02,3-.08,4.5,0,3.4-.04,6.81-.05,10.21.02.21,0,.41,0,.62.02.2.02.39.07.57.17.05.05.09.09.14.14-.35.37-.81.22-1.22.22-16.3,0-32.6,0-48.89.01-3.16-.73-5.81-2.42-8.37-4.3-.16-.12-.32-.23-.41-.41,0-.16.09-.3.13-.44.4-1.28.55-1.34,1.63-.52,3.06,2.31,6.57,3.64,10.33,4.04,2.14.22,4.39-.16,6.38-1.17,1.32-.67,2.67-1.28,3.92-2.09.5-.32,1.06-.61,1.63-.61.99,0,1.8-.39,2.63-.8Z"/>
            <path class="cls-21" d="M78.04,13.68c.32.15.56.38.72.7-2.05,1.79-4,3.72-6.62,4.16,1.07-.08,2.41,0,3.75-.05.68-.02,1.37-.05,2.05-.01,1.32-.05,2.65-.02,3.97-.03.55,0,1.09.07,1.57.37.04,0,.09,0,.11.02.04.04.06.1.09.15-.3.02-.6.06-.91.06-8.32,0-16.64,0-24.96,0h0c.22-.79.73-.42,1.16-.31-2.33-1.01-4.55-2.4-7.27-2.24-.31.02-.6-.14-.88-.28-1.38-.78-2.78-.86-4.37-.6-2.12.35-4.3.34-6.46.24-.05-.81.64-.72,1.09-.82,1.27-.29,2.64-.11,3.8-.88,1.58-.71,3.08-.67,4.85-.31,3.52.72,6.81,1.92,10.11,3.24,1.95.78,4.06.57,6.11.73,2.42.19,4.49-.72,6.58-1.7,1.45-.68,2.89-1.37,4.2-2.29.39-.28.85-.39,1.32-.15Z"/>
            <path class="cls-26" d="M25.58,12.98c-.55.66-1.05,1.25-2.13,1.02-.64-.14-1.36.25-1.97.61-1.77,1.06-3.53,2.16-5.51,2.74-3.14.92-6.28.83-9.36-.37-2.32-.9-4.67-1.75-6.52-3.5-.32-.3-.55-.22-.71.15-.14.32-.26.65-.38.97.3.43.08.79-.15,1.15-.1.09-.21.09-.32.02.13-1.07.33-2.12.94-3.04.22-.71.55-.79,1.3-.53,1.42.5,2.23,1.83,3.6,2.36,2.4.94,4.77,2.02,7.46,1.06.9-.32,1.87-.08,2.8-.21,2.04-.27,4.01-.71,5.71-1.95.71-.11,1.26-.51,1.8-.92.33-.25.67-.5,1.12-.53.78.09,1.55.18,2.28-.25.23-.13.52-.19.76.04.02.54-.54.74-.71,1.17Z"/>
            <path class="cls-10" d="M78.04,13.68c-1.13-.03-1.74.94-2.64,1.38-2.19,1.06-4.33,2.23-6.69,2.9-.33.09-.69.15-1.03.15-2.44-.02-4.89.13-7.27-.49-1.12-.29-2.17-.85-3.26-1.24-2.37-.83-4.66-1.95-7.25-2.04-.23,0-.47-.09-.67-.21-1.12-.63-2.22-.56-3.34,0-.3.15-.67.16-1.01.24-1.19-.09-2.31.61-3.52.28.63-1.31,1.92-1.63,3.14-1.71,1.68-.11,3.35-.78,5.06-.21.21.07.45-.11.67-.17.96-.14,1.91-.01,2.75.39,1.68.81,3.49,1.39,5.03,2.47.82.58,1.74.87,2.68,1.12.94.78,2.09.46,3.16.58.12.01.24.03.36.07,2.4.22,4.75-.03,6.96-.95,1.6-.67,3.17-1.46,4.47-2.68.38-.35.84-.71,1.46-.59.13.48.71.36.94.7Z"/>
            <path class="cls-23" d="M20.4,13.68c-1.28,1.11-2.83,1.61-4.47,1.85-2.12.31-4.28.87-6.38.73-2.7-.17-5.44-.76-7.41-2.96-.54-.6-1.42-.56-2.03-1.08-.28-.23-.36.42-.65.52,0-.64.28-1.17.71-1.63.42-.75.98-.8,1.66-.34.39.27.77.55,1.08.9,1.25,1.4,2.84,2.17,4.66,2.52,3.38,1.06,6.62.03,9.87-.71,1.53-.35,2.95-.97,4.12-2.07.28-.26.63-.47,1.06-.41.48.43,0,.66-.21.92-.57.68-1.39,1.11-1.99,1.77Z"/>
            <path class="cls-31" d="M73.11,9.71c.34.19.77.28.94.7-1.38,1.84-3.31,2.88-5.42,3.66-.3.11-.61.05-.93.04-1.4-.06-2.77-.43-4.18-.41-.8.01-1.51-.3-2.02-.98-1.2-1.61-3.24-2.1-4.65-3.43-.08-.6.6-.25.74-.58.48-.06.91-.32,1.39-.36.82.02,1.3.6,1.84,1.11,1.95,1.85,4.35,2.7,6.99,2.7,1.51,0,2.66-1.02,3.77-1.95.44-.37.84-.86,1.52-.49Z"/>
            <path class="cls-27" d="M56.87,9.24c.16.01.36-.04.46.04,1.46,1.19,3.39,1.77,4.52,3.33.41.57.93.76,1.44.77,1.63.04,3.25.56,4.83.44,1.66-.13,3.08-1.18,4.41-2.23.5-.4.8-1.07,1.52-1.18.31.23.62.47.93.7-1.78,1.14-3.49,2.41-5.35,3.38-1.98,1.03-4.15.74-6.24.17-.72-.2-1.54-.31-2.05-.98-1.27-.78-2.53-1.57-3.91-2.17-.75-.33-.96-1.16-.98-1.96.01-.11.05-.22.11-.32.1-.07.21-.07.3.02Z"/>
            <path class="cls-25" d="M73.11,9.71c-.48-.06-.79.22-1.12.52-2.87,2.61-4.65,2.87-8.29,1.34-1.28-.54-2.64-.94-3.43-2.28-.22-.37-.74-.68-1.28-.74.86-.69,3.02-.7,3.78-.13,2.62,1.93,4.97,3.03,7.61.94.53-.42,1.18-.26,1.79-.11.37.04.7.16.94.47Z"/>
            <path class="cls-20" d="M.64,10.17c.17-.96.91-1.57,1.41-2.33.3-.35.49-.82,1.06-.83.72.22,1.11.84,1.53,1.37,1.85,2.31,4.38,2.85,7.16,2.76.19,0,.39-.02.58,0,1.81-.14,3.61-.19,5.21-1.28,1.16-.79,2.4-1.48,3.82-1.76.04.99-.53,1.82-1.59,2.06-.79.18-1.42.58-2.11.94-3.27,1.69-6.68,2.47-10.34,1.4-.86-.25-1.47-.86-2.19-1.3-.89-.59-1.84-1.11-2.53-1.94-.37-.44-.64-.25-.91.09-.36.29-.47.91-1.1.82Z"/>
            <path class="cls-14" d="M56.64,9.24c0,.08,0,.16,0,.23-.98.69-1.54.65-2.32-.2-.94-1.04-1.9-2.06-3.07-2.85-.34-.26-.65-.56-1.03-.78-.34-.26-.71-.47-1.11-.64-.1-.04-.2-.09-.3-.14-1.46-.85-3.06-.88-4.68-.73-.78.07-1.16.73-1.55,1.32-.92,1.39-1.22,1.44-2.58.43-.22-.16-.44-.45-.71-.35-.98.35-2.09-.01-3,.38-1.27.55-2.68.89-3.75,1.87-.39.08-.77.11-.96-.35,0-.13.03-.25.12-.35,1.6-.72,2.99-1.78,4.57-2.55,1.6-.78,3.25-1.22,5.02-1.37,1.2-.1,2.37-.26,3.6-.14,1.94.2,3.73.74,5.38,1.78,1.68,1.28,3.37,2.56,4.76,4.16.34.39.69.41,1.12.28.16-.13.31-.13.47,0Z"/>
            <path class="cls-9" d="M50.28,4.8c-1.48-.47-2.8-1.29-4.42-1.46-4.01-.42-7.75.17-11.22,2.3-.93.57-1.7,1.52-2.95,1.5-.05-.01-.11-.02-.16-.03-.57-.34-.99-.84-1.42-1.34-1.4-2.04-3.16-3.65-5.51-4.55-.4-.27-.9-.35-1.31-.61-.57-.32-1.27-.25-1.84-.59-.04-.04-.07-.08-.11-.12-2.19-.45-4.4-.41-6.55.13-1.66.42-3.39.63-4.86,1.79-.58.46-1.61.67-2.47.88C9.6.98,12.08-.08,14.75-.48c2.65-.4,5.32-.47,8.02.11,3.13.67,5.27,2.6,7.21,4.87.59.68,1.13,1.48,1.87,1.9.87.49,1.46-.57,2.18-.91,2.03-.96,3.93-2.18,6.24-2.47,3.18-.41,6.29-.42,9.21,1.16.3.17.66.26.8.64Z"/>
            <path class="cls-28" d="M72.17,9.24c-1.22-.38-1.9.69-2.81,1.09-1.43.62-2.65.66-4.08-.12-1.08-.58-2.33-.82-3.07-1.94-.08-.12-.36-.22-.51-.18-.89.22-1.85.05-2.7.45-.47.08-.94.16-1.41.23-.08.09-.16.09-.24,0,3.14-1.25,6.39-1.48,9.69-.86,1.74.32,3.43.88,5.14,1.33Z"/>
            <path class="cls-24" d="M-1.24,15.78c.08-.39.16-.78.24-1.17,1.52.6,2.75,1.7,4.15,2.51,1.23.72,2.53,1.17,3.82,1.67.3.12.59.17.73.49-2.58.28-5.17.25-7.77.24.11-.64.64-.47,1.05-.55.95.05,1.92-.09,2.87.13-1.32-.25-2.59-.62-3.55-1.65-.48-.52-1.16-.57-1.81-.69-.22-.41.08-.68.26-.98Z"/>
            <path class="cls-13" d="M.64,10.17c.31-.31.63-.62.94-.93.6-.38.91.03,1.27.42.77.82,1.54,1.65,2.44,2.34,1.88,1.45,4.02,1.77,6.31,1.58.36-.03.86-.33,1.08.28-.73.95-1.84.73-2.79.79-.79.04-1.63-.07-2.42-.27-1.53-.1-2.82-.78-3.97-1.73-.59-.49-1.16-1.02-1.71-1.56-.56-.54-1.08-.46-1.61.02.04-.37.17-.7.47-.93Z"/>
            <path class="cls-12" d="M-1.48,16.71c.58-.38,1.12-.25,1.57.2.99.97,2.15,1.59,3.51,1.87.21.04.39.2.55.5H1.11c-.49-.3-1.04-.51-1.52-.83-.2-.13-.45-.45-.68-.1-.18.28-.08.6.22.8.19.13.44.16.58.36-.6.45-1.26.14-1.91.22-.07-.48.42-.59.49-.92-.18-.73-.25-1.45.24-2.11Z"/>
            <path class="cls-30" d="M-.3,19.52c-.47-.08-1.19.26-1.17-.66,0-.37-.18-.84.17-1.08.44-.3.67.2.96.41.5.34,1.17.47,1.44,1.1-.4.06-.85-.16-1.18.24h-.11s-.11,0-.11,0Z"/>
            <path class="cls-6" d="M2.99,7.14c-.31.23-.63.47-.94.7.06-.59.5-.88.94-1.17.08,0,.16,0,.24,0,.11.25-.05.36-.24.47Z"/>
            <path class="cls-25" d="M57.34,8.77c.08,0,.16,0,.24,0-.24.16-.47.31-.71.47-.08,0-.16,0-.24,0-.16,0-.31,0-.47,0,.31-.37.72-.48,1.18-.47Z"/>
            <path class="cls-8" d="M21.81,16.48c1.37-1.56,3.38-2.22,4.94-3.5.72-.55,1.44-1.03,2.43-.72.24.07.54-.02.8-.08,2.43-.54,4.86-.79,7.35-.41.7.11,1.49-.01,2.19-.22,2.01-.58,4.08.34,6.11-.37.66-.23,1.51.24,2.3.15.42-.08.85-.14,1.28-.11.38.02.71.11.63.61-.32.3-.8.25-1.14.5-2.17.46-4.39.42-6.57.92-1.3.3-2.72.02-4.09.12-2.59.18-5.19.03-7.8.23-1.81.14-3.32.66-4.79,1.56-.85.39-1.73.73-2.55,1.18-.33.18-.68.43-1.09.13Z"/>
            <path class="cls-34" d="M51.22,6.2c1.32.43,2.15,1.51,2.94,2.48.75.91,1.42,1.2,2.47.78.15,1.16.69,1.93,1.92,2.27,1.12.31,2.03,1.04,2.79,1.93-.68-.02-1.28-.31-1.89-.58-.32-.14-.66-.34-.98-.33-1.41.05-2.4-.75-3.3-1.62-1.39-1.35-2.97-1.98-4.91-1.78-1.09.11-1.35-.87-1.85-1.52-.02-.22.05-.42.16-.61.18-.28.36-.57.62-.79.63-.47,1.29-.72,2.04-.23Z"/>
            <path class="cls-8" d="M49.81,11.81c-.44-.91-1.3-.15-1.88-.47,1.72-.04,3.34-1.1,5.2.12.96.63,2.01,1.12,2.83,1.97.13.13.33.23.51.27,2.22.5,4.18,1.69,6.36,2.29,1.55.43,3.11.33,4.63-.05.86-.21,1.83-.01,2.58-.64.55.69,1.33-.46,1.88.23-1.59.44-3.18.86-4.77,1.31-.98.28-2.08-.08-2.99.55h-.24c-.34-.26-.82,0-1.15-.29-.86-.5-1.89-.46-2.78-.86-2.23-1.01-4.45-2.06-6.45-3.49-.81-.57-1.72-.42-2.59-.55-.42-.06-.87.02-1.15-.42Z"/>
            <path class="cls-33" d="M48.64,7.37c0,.19-.05.37-.24.47-.83.62-1.74,1.38-2.59,1.65-1.5.47-3.1,1.61-4.82.46-.3-.2-.76-.3-.98-.13-.84.67-1.77.33-2.67.35-.48-.17-.96-.22-1.47-.22-.45,0-1.1-.03-.8-.84.36-.21.76-.22,1.14-.18,2.41.29,4.68-.52,7.02-.81.36-.05.72-.1,1.02.12.81.61,1.45.27,2.08-.31.52-.49,1.11-.87,1.85-.93.23-.02.48.02.45.36Z"/>
            <path class="cls-34" d="M34.99,9.24c.25.44.6.65,1.13.51.49-.12.89.05,1.22.42-.94.16-1.85-.03-2.73-.27-.57-.16-1.19-.36-1.72-.17-2.18.75-4.73.37-6.61,2.08-.99.33-1.93.98-3.06.47-.08-.66.42-.93.88-.97,1.14-.1,1.98-.74,2.86-1.34,1.52-.44,2.88-1.43,4.56-1.34.8.07,1.6.13,2.41.12.42,0,.86,0,1.06.49Z"/>
            <path class="cls-6" d="M4.4,5.5c.21-.22.4-.47.63-.67q1.48-1.25,2.54.38c1.16,1.78,2.83,2.75,3.8,1.98.82-.65,1.79-.92,2.6-1.51.39-.28.81-.52,1.3-.41.73.16.96-.34,1.45-.71,1.36-1.01,2.04-2.19,2.36-3.82.2-1,1.51-.47,2.24-.86h0c.12.2.51.02.53.38-.81.94-1.01,2.17-1.51,3.26-.32.69-.76,1.26-1.37,1.71-.88.64-1.73,1.42-2.67,1.88-1.42.69-2.83,1.59-4.29,1.97-1.91.5-3.97.09-5.68-1.15-.45-.33-.84-.76-.93-1.31-.11-.63-.5-.92-1.03-1.13Z"/>
            <path class="cls-17" d="M4.4,5.5c.73-.25,1.08-.29,1.24.75.26,1.73,1.83,2.16,3.31,2.48.61.13,1.23.2,1.85.25.76.07,1.46-.01,2.08-.56.69-.61,1.4-1.25,2.47-1.1.2.03.49-.1.64-.25.97-1.02,2.3-1.58,3.33-2.51.75-.68,1.03-1.64,1.29-2.56.22-.79.51-1.44,1.21-1.89.54.15,1.11.04,1.65.23.29.4,1.01.09,1.18.7-.85.32-1.75.57-1.91,1.66-.08.18-.23.34-.26.52-.39,2.07-2,3.15-3.52,4.29-.33.25-.61.55-.96.77-1.41.57-2.82,1.12-4.25,1.63-.15.05.04.01-.11.04-2.74.37-5.39.03-7.81-1.33-.96-.54-1.17-1.81-2.11-2.44.15-.31.39-.55.71-.7Z"/>
            <path class="cls-2" d="M3.7,6.2c.79-.08,1.07.49,1.36,1.05.8,1.52,2.39,2.33,4.13,2.05.4-.06.68.09.99.23,1.29.58,2.53.47,3.84-.02,1.33-.5,2.6-1.18,4.02-1.44-.05,1.04-.94,1.42-1.65,1.73-1.31.56-2.65,1.06-4,1.54-3.29.42-6.15-.32-8.24-3.08-.33-.44-.68-.85-1.17-1.13.08-.16.16-.31.24-.47.09-.22.25-.38.47-.47Z"/>
            <path class="cls-7" d="M26.99,19.05c-1.33,0-2.67,0-4,0-.04-.68.5-.83.97-.96,1.32-.37,2.63-.73,3.82-1.45.53-.32,1.13-.21,1.72-.12,1.02.17,2.01.15,2.98-.3,1.14-.53,2.34-.17,3.47-.02,1.54.21,3.06.25,4.54-.13,2.65-.67,5.35-.14,8.01-.47.42-.05.91.02.79.68-2.33.66-4.67,1.23-7.11,1.18-.75-.02-1.48-.02-2.21.18-3.17.18-6.31.77-9.51.57-1.19-.08-2.36.4-3.48.85Z"/>
            <path class="cls-12" d="M49.34,16.24c-.13-.26-.33-.51-.63-.42-1.25.35-2.47.14-3.74,0-1.92-.22-3.77.47-5.65.76-.94.14-1.84.09-2.78.02-1.54-.12-3.09-.66-4.65.2-.74.41-1.69.24-2.53.04-.64-.16-1.19-.15-1.77.26-1.02.73-2.25.99-3.46,1.26-.47.1-.91.24-1.15.7-.55,0-1.1,0-1.65,0-.3-.53.15-.69.47-.87.51-.28,1-.64,1.55-.82,1.56-.53,2.89-1.53,4.47-2,1.05.08,2.1-.02,3.12-.13,2.69-.27,5.33.29,7.99.27.35,0,.71,0,.98.27,2.46-.47,4.99,0,7.44-.66,1.3-.35,2.51.21,3.61.89-.44.37-.97.38-1.51.34-.05-.04-.09-.07-.14-.11Z"/>
            <path class="cls-30" d="M56.87,19.04c-3.53,0-7.06,0-10.59,0-.18-.74-.61-1.06-1.41-.89-1.04.23-2.09.42-3.06.89-2.2,0-4.39,0-6.59,0-.04-.68.49-.83.97-.93.79-.17,1.57-.43,2.41-.34.58.06,1.17.02,1.68-.32,2.57-.01,5.12-.14,7.62-.76.97-.24,1.94,0,2.89.14,1.85.27,3.67.63,5.39,1.39.36.16.74.3.68.81Z"/>
            <path class="cls-24" d="M27.7,15.54c-1.69,1.24-3.77,1.71-5.54,2.79-.32.2-.77.21-.81.71h-5.17c-.03-.09-.06-.18-.09-.27,1.83-.94,3.95-1.25,5.73-2.3,1.25-.29,2.17-1.38,3.53-1.4.76-.61,1.67-.94,2.59-.96,1.53-.04,3-.43,4.5-.62.96-.12,1.79.02,2.37.86,0,.29-.19.45-.43.45-.82,0-1.61.31-2.41.33-1.44.03-2.86.1-4.27.41Z"/>
            <path class="cls-30" d="M40.17,17.65c-.52.82-1.33.37-2.02.45-1.04.12-2.14.05-2.93.95-2.74,0-5.49,0-8.23,0,.91-1.05,2.26-1.22,3.42-1.21,2.62.02,5.21.08,7.78-.52.54-.13,1.16.05,1.74.09.13.02.21.1.24.23Z"/>
            <path class="cls-22" d="M40.17,17.65c-.08-.08-.16-.16-.24-.23.71-.3,1.39-.41,2.2-.29,1.59.24,3.14-.25,4.69-.56.84-.17,1.66-.4,2.52-.31,1.87-.05,3.68.46,5.51.71.88.12,1.58.64,2.31,1.08.37.22.47.61.18,1.01-.16,0-.31,0-.47,0-.76-.88-1.98-1.11-2.9-1.27-2.39-.42-4.75-1.12-7.35-.49-2.03.49-4.27.75-6.45.37Z"/>
            <path class="cls-7" d="M57.34,19.04c-.2-.87-1.7-1.72-2.95-1.88-1.69-.22-3.37-.6-5.05-.91.54-.13,1.08-.31,1.65-.23,1.21.45,2.52.22,3.77.58.58.17,1.22.22,1.68.62.83.72,1.94.88,2.92,1.46-.57.3-1.15-.09-1.55.37h-.47Z"/>
            <path class="cls-30" d="M41.81,19.04c.6-1.08,1.84-.7,2.72-1.15.19-.1.46-.01.69-.03,1.28-.1,1.36-.02,1.06,1.18-1.49,0-2.98,0-4.47,0Z"/>
            <path class="cls-29" d="M27.7,15.54c.82-.5,1.7-.77,2.66-.7,1.5.12,2.93-.36,4.4-.47.92-.63,1.97-.33,2.95-.35,1.23-.02,2.48.05,3.63.58.78-.16,1.56-.35,2.34-.45.39-.05.85-.16,1.18.22-1.02,1.07-2.43.65-3.66.93-.45.1-.92.15-1.28.47-1.76-.08-3.56.33-5.27-.38-.31-.13-.6.01-.91.04-2.02.16-4.03.28-6.06.11Z"/>
            <path class="cls-35" d="M26.99,10.17c-.71.63-1.38,1.28-2.47,1.27-.5,0-1.06.25-1.29.83-.67.08-1.05.64-1.54.99-.41.3-.8.45-1.28.41,0-1.09,1.26-1.08,1.67-1.84.14-.26.53-.41.68-.73-.09-.28.09-.45.28-.57,1.14-.68,2.17-1.57,3.52-1.85.5.39.63.89.44,1.48Z"/>
            <path class="cls-4" d="M41.34,14.61c-2.19-.14-4.39-.35-6.59-.23-1.4-.99-2.87-.61-4.31-.18-.62.19-1.23.17-1.84.17-1.14,0-2.2.36-3.26.71,1.16-1.01,2.43-1.81,4.05-1.72.87.05,1.75.1,2.55-.25.59-.26,1.16-.08,1.72-.03,2.78.25,5.58.05,8.31-.15,1.71-.12,3.55-.15,5.24-.72.5-.17.99.21,1.42-.16.72-.17,1.24.14,1.65.7-.24.28-.54.51-.91.35-1.3-.53-2.57.08-3.84.07-1.63-.02-2.93.59-4.19,1.45Z"/>
            <path class="cls-1" d="M50.28,12.74c-.63-.05-.99-.71-1.65-.7.33-.39.78-.18,1.18-.23.34-.02.68.09,1.01.13,1.06.13,2.1.02,3.16.75,2.26,1.58,4.72,2.89,7.4,3.69.54.16,1.2.01,1.6.56-.84.52-1.59.1-2.35-.23-.91-.02-1.7-.29-2.47-.83-1.68-1.18-3.65-1.85-5.5-2.72-.7-.33-1.59-.29-2.39-.42Z"/>
            <path class="cls-18" d="M26.52,8.77c-1.21.85-2.63,1.37-3.76,2.33-.4-.02-.67.25-.91.47-2.38,2.14-5.39,2.54-8.38,3.05-2.03.34-4.04.67-6-.25,1.44,0,2.88.04,4.32-.22.37-.07.69-.11.86-.48.83-.83,1.96-.65,2.96-.76,1.28-.14,2.31-.68,3.44-1.25,1.96-.99,3.23-2.75,4.99-3.94.5-.27.89-.67,1.28-1.06.14-.13.3-.32.48-.32,1.12.05,2.12-.29,3.1-.79.43-.22.88,0,1.3.31.54.39.94.94,1.52,1.28h0c0,.08,0,.16,0,.23-1.41-.04-2.55.77-3.8,1.22-.44.16-.9.28-1.38.18Z"/>
            <path class="cls-16" d="M12.4,11.34c.79-.78,1.82-1.12,2.86-1.39,1.17-.3,2.08-.93,2.79-1.88.15-.31.39-.55.71-.7.82-.33,1.52-.9,2.42-1.04.39-.06.53-.4.66-.73.38-.93.53-1.92.68-2.9.12-1.29.78-1.89,2.12-1.63,1.92.5,3.42,1.65,4.61,3.17.37.47,1,.8,1.04,1.5-1.11-.13-1.43-1.25-2.26-1.74-.23-.2-.44-.44-.69-.62-1-.74-1.64-.58-2.19.56-.44.93-.7,1.97-1.62,2.61-.93.22-1.39,1.11-2.19,1.52-1.42,1.16-3.15,1.83-4.74,2.67-1.16.61-2.72.95-4.21.6Z"/>
            <path class="cls-25" d="M24.17,7.84c-1.71,1.9-3.78,3.36-5.91,4.71-.55.35-1.29.6-2.07.6-1.2-.01-2.39.19-3.55.53-4.24,1.01-7.45-.65-10.03-3.85-.3-.37-.54-.63-1.03-.58.33-.84.8-.91,1.3-.16.56.84,1.54,1.13,2.23,1.8,2.03,1.88,4.41,2.28,7.11,1.92,1.79-.24,3.55-.54,5.21-1.19,1.59-.61,3.02-1.57,4.18-2.85.58-.64,1.18-1.11,2.07-1.15.19.02.37.08.49.23Z"/>
            <path class="cls-19" d="M23.7,7.84c-.85.14-1.39.65-2,1.26-1,.99-2.14,2-3.42,2.51-1.62.65-3.32,1.19-5.15,1.34-1.93.15-3.74.23-5.63-.37-1.07-.34-1.75-.92-2.39-1.7,1.01.35,1.74,1.15,2.84,1.48,2.08.64,3.99.18,5.98-.14,1.66-.27,3.12-.91,4.43-1.94.31-.24.69-.3,1.1-.35,1.09-.13,1.72-.77,1.89-1.85.51-.8,1.02-1.59,2.12-1.63.37.42.42.89.24,1.4Z"/>
            <path class="cls-3" d="M32.64,7.6c.41-.66,1.14-.85,1.74-1.23,1.47-.95,3.2-.63,4.71-1.24.59-.24.83.28,1.16.58,1.05.95,1.46.91,2.04-.39.7-1.58,2.11-1.67,3.45-1.59,1.16.07,2.42.18,3.37,1.08-.07.2-.2.39-.39.4-1.99.12-3.33,1.61-5.02,2.36-1.37.61-2.69.74-4.08.4-.66-.16-1.2-.12-1.79.18-1.03.53-2.09.69-3.08-.09-.64-.51-1.45-.13-2.12-.45Z"/>
            <path class="cls-23" d="M32.64,7.6c.9-.34,1.73-.33,2.52.32.98.82,1.95.28,2.82-.21.55-.31.95-.3,1.52-.12,1.33.42,2.63.38,3.95-.27,1.23-.6,2.37-1.32,3.51-2.05.67-.43,1.49-.03,2.14-.47h0c.35.3.81.42,1.18.7.48.02.73.33.94.7-.77-.15-1.44.18-2.12.47-.85-.53-1.52-.31-2.09.47-.58.79-1.36,1.13-2.35.87-.39-.1-.82-.07-1.15.1-1.11.56-2.26.44-3.42.35-.2-.02-.4-.03-.58.05-1.94.97-3.9.64-5.86.1-.75-.2-1.47.06-2.19.16-1.49.47-2.98.93-4.47,1.4-.16-.47-.31-.93-.47-1.4,1.1-.53,2.37-.66,3.36-1.51.52-.45,1.2.15,1.81.11.25.34.62.2.94.23Z"/>
            <path class="cls-3" d="M50.28,5.5c-.48-.08-.93-.23-1.18-.7.48.08.93.23,1.18.7Z"/>
            <path class="cls-14" d="M28.17,3.87c.92.39,1.25,1.43,2.12,1.87.56.38,1.03.84,1.41,1.4-.76-.09-1.08-.83-1.7-1.15-.55-.28-1-.36-1.5,0-.67.5-1.33.9-2.23.49-.36-.17-.59.3-.91.42-.05-.96,1.12-2.88,1.94-3.18.32-.11.61-.05.88.14Z"/>
            <path class="cls-6" d="M23.46.37c-.55-.05-1.16.29-1.65-.23-.19,0-.37-.05-.47-.23.74,0,1.44.18,2.12.47Z"/>
            <path class="cls-27" d="M31.46,8.77c.76-.68,1.61-.74,2.53-.36,1.66.68,3.33.7,4.98-.02.32-.14.61-.41.97-.3,1.42.44,2.76.21,4.07-.4.07-.03.16-.08.22-.06,1.46.59,2.31-.27,3.12-1.26.75-.92,1.29-.51,1.75.3,0,.34-.16.57-.47.7-.84-.22-1.45.2-2.02.72-.76.7-1.5,1.49-2.53.34-.1-.11-.4-.15-.55-.09-1.65.72-3.48.45-5.2.99-.97.3-2.21-.14-3.34-.09-.82-.45-1.72-.04-2.57-.23-.32-.07-.7.09-.96-.24Z"/>
            <path class="cls-2" d="M22.52,2.7c.52,1.38-.03,2.75-.76,3.68-.54.69-1.97.69-3,.99.74-.54,1.35-1.22,2.15-1.72.52-.33.84-.96.94-1.65.07-.49.3-.95.68-1.3Z"/>
            <path class="cls-11" d="M28.17,3.87c-1.33-.21-1.54,1.08-2.22,1.71-.33.3-.41.87-.61,1.32-.29.43-.58.88-1.18.93-.16,0-.31,0-.47,0-.28-.43-.24-.92-.24-1.4.62-.74,1.01-1.62,1.38-2.5.68-1.59,1.61-1.79,2.89-.61.17.15.29.36.43.54Z"/>
          </g>
        </g>
      </g>
    </g>
  </g>
</svg>