<?xml version="1.0" encoding="UTF-8"?>
<svg xmlns="http://www.w3.org/2000/svg" viewBox="0 0 224.2 59.61">
  <defs>
    <style>
      .cls-1 {
        fill: #d3e9f8;
      }

      .cls-1, .cls-2, .cls-3, .cls-4, .cls-5, .cls-6, .cls-7, .cls-8, .cls-9, .cls-10, .cls-11, .cls-12, .cls-13, .cls-14, .cls-15, .cls-16, .cls-17, .cls-18, .cls-19, .cls-20, .cls-21, .cls-22, .cls-23, .cls-24, .cls-25, .cls-26, .cls-27, .cls-28, .cls-29, .cls-30, .cls-31, .cls-32, .cls-33, .cls-34, .cls-35, .cls-36, .cls-37, .cls-38, .cls-39 {
        stroke-width: 0px;
      }

      .cls-2 {
        fill: #e9f5fc;
      }

      .cls-3 {
        fill: #dff1fb;
      }

      .cls-4 {
        fill: #d7e9f7;
      }

      .cls-5 {
        fill: #d1e8f8;
      }

      .cls-6 {
        fill: #ecf7fd;
      }

      .cls-7 {
        fill: #cbe5f6;
      }

      .cls-8 {
        fill: #d4eaf8;
      }

      .cls-9 {
        fill: #f7fbff;
      }

      .cls-40 {
        mix-blend-mode: multiply;
      }

      .cls-10 {
        fill: #c2e0f5;
      }

      .cls-11 {
        fill: #f3f8fc;
      }

      .cls-12 {
        fill: #d1e8f7;
      }

      .cls-13 {
        fill: #e8f1f9;
      }

      .cls-14 {
        fill: #cde5f7;
      }

      .cls-15 {
        fill: #e1f1fb;
      }

      .cls-16 {
        fill: #e4f1fb;
      }

      .cls-17 {
        fill: #d8ebf8;
      }

      .cls-18 {
        fill: #e9f2fa;
      }

      .cls-19 {
        fill: #ecf4fb;
      }

      .cls-20 {
        fill: #e1f0fa;
      }

      .cls-21 {
        fill: #c5e2f6;
      }

      .cls-22 {
        fill: #e6f2fb;
      }

      .cls-23 {
        fill: #e5f3fb;
      }

      .cls-24 {
        fill: #cfe6f7;
      }

      .cls-25 {
        fill: #cae3f6;
      }

      .cls-26 {
        fill: #ddeffa;
      }

      .cls-27 {
        fill: #d0e7f7;
      }

      .cls-28 {
        fill: #e4f3fb;
      }

      .cls-29 {
        fill: #d9ebf8;
      }

      .cls-30 {
        fill: #dbeffb;
      }

      .cls-41 {
        isolation: isolate;
      }

      .cls-31 {
        fill: #d3e7f7;
      }

      .cls-32 {
        fill: #e7f4fc;
      }

      .cls-33 {
        fill: #cfe8f8;
      }

      .cls-34 {
        fill: #c9e4f6;
      }

      .cls-35 {
        fill: #e1f3fc;
      }

      .cls-36 {
        fill: #d5e8f7;
      }

      .cls-37 {
        fill: #daeefa;
      }

      .cls-38 {
        fill: #dbedf9;
      }

      .cls-39 {
        fill: #deecf8;
      }
    </style>
  </defs>
  <g class="cls-41">
    <g id="Layer_2" data-name="Layer 2">
      <g id="_1-เมฆ2" data-name="1-เมฆ2">
        <g class="cls-40">
          <path class="cls-17" d="M201.5,31.09c.62.6,1.25,1.21,1.87,1.81-2.33,2.21-4.79,4.28-7,6.61-2.08,2.18-5.15,2.13-7.64,3.39-9.06,3.21-18,3.29-26.76-1.01-2.39-1.18-4.83-2.19-7.45-2.77-1.21-.27-2.52-.64-3.27-1.58-2.4-3.03-6.05-4.01-9.19-5.83-.72-.42-1.54-.77-2.34-.57-2.99.75-6.1.51-9.1,1.17-4.86-.54-9.66,1.27-14.56.3-2.12-.42-4.28.2-6.38.55-6.09,1-12.22-.63-18.29.42-5.18.89-10.57.65-15.52,2.81-1.01.31-2.02.4-3.02-.06-1.18-1.71.84-2.51,1.1-3.81,2.6-2.42,5.42-4.28,9.25-3.82,1.13.14,2.2-.39,3.23-.85,3.21-1.44,6.52-1.61,9.88-.68,2.19.61,4.41.81,6.66.8,2.41-.1,4.85.49,7.18-.82.85-.48,2.09-.2,2.93.41,1.9,1.39,3.78.84,5.83.41,3.62-.75,7.01-1.75,9.9-4.23.92-.79,2.11-1.69,3.6-1.32,1.92,2.28,4.2,3.05,7.34,3.25,3.73.24,7.42,1.59,10.33,4.57,2.31,2.37,5.09,4.22,8.74,4.53,2.51.21,4.7,1.86,7.16,2.51,5.33,3.01,11.09,3.91,17.09,3.2,3.84-.45,6.93-2.72,10.06-4.79,2.67-1.76,5.11-3.93,8.38-4.62Z"/>
          <path class="cls-6" d="M13.58,19.49c2.81-4.65,6.83-7.96,11.67-10.36C35.22,3.21,45.87-.13,57.62.6c1.31.08,2.64-.04,3.84.63-.13,1.66-1.51,1.73-2.66,1.92-2.19.37-3.27,1.67-3.24,3.76.03,2.51-1.11,4.24-3.17,5.52-1.05.65-1.96,1.46-2.63,2.51-.57.89-1.34,1.67-2.42,1.7-4.22.09-7.49,2.33-10.82,4.5-2.53,1.65-6.14,1.25-8.11-1.03-1.26-1.46-2.56-2.9-3.68-4.47-1.85-2.59-2.36-2.66-4.83-.73-.64.5-1.28,1.01-1.86,1.58-.73.64-1.44,1.29-2.13,1.97-.49.45-.96.93-1.58,1.22-.27.05-.52,0-.74-.17Z"/>
          <path class="cls-36" d="M72.54,35.95h3.07c-.53,2.13-2.55,2.78-4.11,3.65-3.12,1.76-5.94,3.88-8.7,6.12-3.8,2.53-8.27,3.4-12.68,5.19,4.07.17,7.92.05,11.77.04,1.39,0,2.78-.13,4.17-.04,3.43.03,6.86-.17,10.28-.03,7.11-.04,14.21-.13,21.32-.03,5.72.12,11.44-.2,17.16.05,3.91.04,7.83-.2,11.74,0,8.88-.11,17.77-.14,26.65.04.54,0,1.08-.02,1.62.05.52.06,1.03.18,1.49.44.12.12.24.24.36.37-.92.96-2.12.57-3.2.57-42.54.02-85.09.02-127.63.03-8.24-1.9-15.16-6.33-21.84-11.22-.42-.3-.83-.6-1.06-1.07.02-.41.22-.77.34-1.16,1.03-3.34,1.43-3.49,4.26-1.35,8,6.03,17.15,9.51,26.97,10.54,5.59.58,11.45-.42,16.65-3.06,3.44-1.75,6.98-3.34,10.22-5.46,1.3-.85,2.77-1.59,4.25-1.58,2.57,0,4.7-1.03,6.88-2.1Z"/>
          <path class="cls-24" d="M209.49,37.79c.84.39,1.45,1,1.88,1.82-5.34,4.67-10.45,9.7-17.28,10.87,2.8-.2,6.29-.01,9.78-.13,1.79-.04,3.57-.12,5.35-.04,3.45-.13,6.91-.06,10.36-.08,1.45,0,2.84.18,4.09.95.1.02.23,0,.29.06.1.11.16.26.24.39-.79.05-1.58.15-2.36.16-21.71.01-43.43.01-65.14.02,0,0,0-.02,0-.02.58-2.03,1.89-1.07,3.02-.8-6.07-2.64-11.89-6.26-18.99-5.84-.81.05-1.57-.35-2.3-.73-3.6-2.04-7.25-2.24-11.41-1.56-5.53.91-11.23.9-16.87.63-.14-2.11,1.68-1.88,2.84-2.14,3.31-.76,6.9-.3,9.92-2.29,4.12-1.86,8.04-1.75,12.65-.81,9.18,1.87,17.79,5.02,26.39,8.45,5.1,2.03,10.6,1.49,15.96,1.91,6.33.5,11.72-1.88,17.18-4.44,3.79-1.78,7.54-3.57,10.97-5.99,1.03-.73,2.21-1.02,3.44-.39Z"/>
          <path class="cls-29" d="M72.54,35.95c-1.44,1.71-2.74,3.27-5.56,2.66-1.68-.36-3.56.66-5.13,1.6-4.61,2.77-9.21,5.64-14.39,7.16-8.2,2.41-16.4,2.15-24.43-.96-6.06-2.35-12.19-4.56-17.03-9.14-.84-.79-1.44-.58-1.86.4-.36.84-.67,1.69-1,2.54.78,1.12.2,2.06-.39,3-.27.23-.55.25-.84.04.33-2.79.85-5.52,2.45-7.93.56-1.85,1.44-2.06,3.39-1.38,3.71,1.3,5.83,4.78,9.41,6.17,6.27,2.45,12.45,5.27,19.46,2.76,2.34-.84,4.88-.22,7.32-.54,5.31-.71,10.47-1.86,14.9-5.09,1.84-.28,3.28-1.33,4.71-2.41.87-.66,1.75-1.31,2.91-1.39,2.03.23,4.04.47,5.94-.65.6-.35,1.35-.5,1.99.09.06,1.42-1.41,1.92-1.84,3.05Z"/>
          <path class="cls-12" d="M209.49,37.79c-2.96-.08-4.56,2.46-6.89,3.59-5.72,2.78-11.3,5.82-17.46,7.58-.87.25-1.79.39-2.69.39-6.36-.04-12.77.35-18.99-1.27-2.92-.76-5.66-2.22-8.52-3.23-6.18-2.18-12.16-5.1-18.91-5.31-.59-.02-1.22-.25-1.74-.54-2.93-1.65-5.79-1.47-8.73,0-.78.39-1.76.42-2.65.61-3.1-.23-6.04,1.6-9.2.74,1.65-3.42,5-4.26,8.19-4.46,4.39-.27,8.74-2.05,13.22-.56.56.19,1.16-.28,1.75-.45,2.49-.37,4.98-.03,7.17,1.03,4.39,2.12,9.1,3.63,13.13,6.46,2.14,1.5,4.54,2.26,7,2.93,2.46,2.03,5.46,1.21,8.25,1.51.32.03.63.09.95.17,6.26.56,12.41-.08,18.18-2.49,4.18-1.75,8.27-3.82,11.68-6.99.98-.91,2.21-1.85,3.81-1.55.33,1.25,1.85.94,2.45,1.83Z"/>
          <path class="cls-26" d="M59.03,37.78c-3.35,2.89-7.4,4.2-11.66,4.83-5.54.82-11.16,2.26-16.65,1.91-7.06-.45-14.2-1.97-19.35-7.72-1.41-1.57-3.7-1.46-5.31-2.81-.72-.61-.93,1.09-1.7,1.35.01-1.68.73-3.06,1.85-4.27,1.09-1.96,2.55-2.1,4.32-.89,1.02.69,2.01,1.43,2.82,2.34,3.26,3.66,7.4,5.68,12.16,6.59,8.83,2.78,17.29.08,25.76-1.86,3.99-.91,7.71-2.53,10.77-5.41.72-.68,1.64-1.23,2.76-1.07,1.25,1.12,0,1.73-.56,2.39-1.5,1.79-3.63,2.89-5.2,4.61Z"/>
          <path class="cls-35" d="M196.61,27.42c.9.5,2,.73,2.45,1.83-3.6,4.81-8.65,7.53-14.15,9.56-.78.29-1.6.13-2.42.1-3.66-.15-7.22-1.12-10.91-1.07-2.09.03-3.95-.79-5.28-2.57-3.13-4.19-8.45-5.49-12.13-8.96-.21-1.58,1.58-.66,1.94-1.52,1.25-.17,2.36-.84,3.63-.94,2.15.06,3.4,1.56,4.8,2.89,5.1,4.83,11.35,7.06,18.25,7.04,3.94,0,6.93-2.66,9.84-5.08,1.15-.96,2.2-2.25,3.98-1.28Z"/>
          <path class="cls-30" d="M154.23,26.2c.41.03.94-.1,1.2.11,3.8,3.1,8.85,4.61,11.81,8.68,1.08,1.49,2.41,1.99,3.75,2.02,4.25.09,8.48,1.47,12.6,1.14,4.32-.34,8.05-3.08,11.51-5.82,1.31-1.04,2.09-2.78,3.97-3.09.81.61,1.62,1.23,2.44,1.84-4.64,2.97-9.1,6.28-13.97,8.82-5.18,2.7-10.85,1.93-16.28.44-1.87-.51-4.02-.8-5.35-2.56-3.31-2.04-6.6-4.1-10.2-5.67-1.97-.86-2.49-3.02-2.56-5.12.04-.3.14-.57.3-.83.27-.18.54-.18.79.04Z"/>
          <path class="cls-28" d="M196.61,27.42c-1.26-.17-2.06.57-2.92,1.35-7.49,6.81-12.15,7.49-21.65,3.51-3.35-1.4-6.9-2.45-8.95-5.96-.57-.98-1.93-1.79-3.33-1.94,2.25-1.81,7.88-1.81,9.88-.34,6.84,5.03,12.97,7.9,19.86,2.45,1.38-1.09,3.07-.69,4.66-.28.97.1,1.83.43,2.46,1.22Z"/>
          <path class="cls-23" d="M7.44,28.64c.44-2.5,2.38-4.11,3.69-6.09.77-.91,1.29-2.14,2.77-2.16,1.89.58,2.89,2.18,4.01,3.58,4.83,6.03,11.44,7.43,18.69,7.21.51-.02,1.01-.06,1.52.01,4.72-.35,9.43-.5,13.61-3.34,3.03-2.05,6.27-3.88,9.97-4.6.11,2.58-1.38,4.75-4.15,5.37-2.05.46-3.71,1.52-5.51,2.46-8.54,4.41-17.44,6.44-27,3.66-2.24-.65-3.84-2.23-5.72-3.4-2.31-1.54-4.79-2.89-6.61-5.07-.96-1.15-1.67-.65-2.38.24-.93.75-1.22,2.36-2.88,2.13Z"/>
          <path class="cls-16" d="M153.62,26.2c0,.2,0,.41,0,.61-2.55,1.79-4.03,1.71-6.05-.52-2.45-2.71-4.95-5.37-8-7.43-.89-.69-1.7-1.47-2.68-2.04-.9-.67-1.85-1.23-2.9-1.66-.27-.11-.52-.24-.78-.37-3.82-2.21-8-2.31-12.21-1.91-2.05.19-3.02,1.91-4.03,3.44-2.4,3.62-3.19,3.77-6.73,1.12-.57-.43-1.16-1.17-1.85-.92-2.57.92-5.45-.03-7.82.99-3.33,1.44-6.99,2.34-9.78,4.87-1.02.2-2,.28-2.52-.91-.02-.35.09-.66.32-.92,4.17-1.87,7.82-4.64,11.92-6.64,4.17-2.04,8.49-3.19,13.1-3.58,3.13-.26,6.19-.69,9.39-.35,5.07.53,9.75,1.94,14.04,4.65,4.38,3.35,8.78,6.68,12.42,10.85.89,1.03,1.81,1.06,2.93.73.41-.35.82-.35,1.23,0Z"/>
          <path class="cls-11" d="M137.03,14.62c-3.85-1.22-7.31-3.38-11.53-3.82-10.46-1.09-20.22.44-29.29,6-2.43,1.49-4.44,3.97-7.7,3.92-.14-.03-.28-.06-.42-.08-1.49-.89-2.58-2.2-3.7-3.49-3.64-5.34-8.24-9.53-14.38-11.89-1.05-.72-2.35-.92-3.43-1.58-1.5-.85-3.33-.66-4.81-1.53-.09-.11-.19-.22-.28-.32-5.72-1.18-11.48-1.08-17.09.35-4.34,1.1-8.85,1.65-12.69,4.67-1.52,1.2-4.21,1.74-6.46,2.3C30.83,4.65,37.32,1.88,44.28.82c6.91-1.05,13.88-1.24,20.93.27,8.16,1.75,13.75,6.8,18.83,12.71,1.53,1.78,2.95,3.87,4.89,4.95,2.28,1.28,3.81-1.49,5.68-2.38,5.29-2.51,10.25-5.68,16.28-6.46,8.31-1.07,16.43-1.09,24.04,3.04.8.43,1.73.69,2.1,1.66Z"/>
          <path class="cls-32" d="M194.15,26.2c-3.18-1-4.95,1.8-7.33,2.83-3.72,1.63-6.93,1.71-10.66-.3-2.82-1.52-6.09-2.13-8.01-5.06-.21-.32-.94-.57-1.34-.47-2.32.58-4.82.12-7.05,1.17-1.23.2-2.46.41-3.68.61-.21.24-.41.23-.62,0,8.2-3.25,16.69-3.85,25.28-2.26,4.53.84,8.95,2.3,13.42,3.48Z"/>
          <path class="cls-27" d="M2.52,43.27c.21-1.02.41-2.03.62-3.05,3.98,1.58,7.19,4.44,10.84,6.56,3.22,1.87,6.59,3.04,9.97,4.35.78.31,1.54.45,1.92,1.28-6.74.72-13.51.65-20.27.61.29-1.67,1.68-1.24,2.74-1.43,2.49.13,5.01-.24,7.5.34-3.46-.66-6.77-1.62-9.26-4.3-1.26-1.35-3.03-1.48-4.72-1.8-.58-1.06.21-1.77.67-2.56Z"/>
          <path class="cls-15" d="M7.44,28.64c.82-.81,1.64-1.63,2.46-2.44,1.56-.99,2.39.09,3.32,1.09,2.01,2.15,4.02,4.29,6.37,6.11,4.9,3.79,10.49,4.61,16.47,4.13.94-.08,2.25-.85,2.82.74-1.9,2.47-4.8,1.92-7.29,2.05-2.07.11-4.25-.19-6.33-.71-4.01-.26-7.36-2.03-10.36-4.52-1.55-1.28-3.02-2.67-4.47-4.07-1.46-1.42-2.83-1.21-4.21.06.1-.97.44-1.82,1.23-2.44Z"/>
          <path class="cls-34" d="M203.37,51.19h-11.27c1.77-2.17,4.44-1.65,6.34-2.81,3.37-2.05,6.78-4.05,9.54-6.94.93-.98,2.01-1.69,3.4-1.84.89.51,1.98.75,2.42,1.84-2.86,3.89-6.39,7.09-10.43,9.75Z"/>
          <path class="cls-31" d="M207.04,35.96c-4.46,2.7-8.39,6.14-13.17,8.46-6.36,3.1-13.08,3.35-19.87,3.61-.24,0-.49-.32-.73-.5.1-1.59,1.52-1.61,2.46-1.64,6-.16,11.47-2.47,17.11-4.05,3.96-.93,6.83-3.7,10.06-5.86.87-.58,1.61-1.61,2.91-1.24.59.23,1.01.62,1.23,1.22Z"/>
          <path class="cls-10" d="M223.67,51.18c-4.92,0-9.85,0-14.77,0,.54-3.3,5.18-7.19,8.02-6.72,2.86,1.64,4.52,4.46,6.75,6.72Z"/>
          <path class="cls-14" d="M1.91,45.71c1.52-1,2.91-.65,4.11.53,2.58,2.52,5.61,4.14,9.15,4.87.54.11,1.01.53,1.45,1.3h-7.96c-1.28-.79-2.7-1.34-3.97-2.17-.52-.34-1.19-1.16-1.78-.26-.48.73-.21,1.56.56,2.1.49.34,1.15.41,1.52.94-1.57,1.16-3.3.36-4.98.58-.18-1.25,1.09-1.53,1.27-2.4-.48-1.91-.66-3.78.62-5.5Z"/>
          <path class="cls-21" d="M216.92,44.47c-3.77.96-5.8,3.96-8.02,6.72h-5.53c-.16-1.93,1.81-2.05,2.77-2.76,2.8-2.09,4.44-5.39,7.66-6.98,1.28.76,2.29,1.8,3.13,3.02Z"/>
          <path class="cls-4" d="M205.81,34.74c-4.02,2.74-7.61,6.15-12.27,7.92-1.03-.76-1.92.08-2.87.22-.77.11-1.9.74-2.04-.83,5.12-1.05,8.92-4.07,12.11-8,.7-.86,1.55-1.24,2.64-1.14.89.51,2,.74,2.44,1.84Z"/>
          <path class="cls-34" d="M5,53.03c-1.23-.21-3.12.67-3.06-1.72.02-.96-.48-2.19.45-2.83,1.14-.78,1.74.53,2.52,1.06,1.3.89,3.05,1.22,3.76,2.87-1.03.15-2.21-.41-3.07.62h-.3s-.3,0-.3,0Z"/>
          <path class="cls-9" d="M49.62,58.71h10.81c-3.61,1.18-7.22,1.23-10.81,0Z"/>
          <path class="cls-36" d="M1.91,45.71c-.62,1.79-.7,3.63-.62,5.5-1.48-2.77-.16-5.33.62-7.94.21,0,.41,0,.62,0-.2.81-.41,1.63-.61,2.44Z"/>
          <path class="cls-6" d="M13.58,20.71c-.82.61-1.64,1.22-2.46,1.83.15-1.55,1.31-2.29,2.45-3.05.21,0,.41,0,.62,0,.29.65-.14.95-.61,1.22Z"/>
          <path class="cls-28" d="M155.45,24.98c.21,0,.41,0,.62,0-.61.41-1.23.81-1.84,1.22-.2,0-.41,0-.61,0-.41,0-.82,0-1.23,0,.8-.96,1.87-1.25,3.07-1.22Z"/>
          <path class="cls-8" d="M62.72,45.1c3.57-4.06,8.82-5.79,12.9-9.14,1.87-1.45,3.76-2.7,6.35-1.88.62.19,1.41-.06,2.1-.21,6.34-1.4,12.69-2.06,19.19-1.06,1.84.28,3.89-.04,5.71-.56,5.24-1.51,10.66.9,15.94-.96,1.73-.61,3.94.64,5.99.4,1.1-.22,2.21-.36,3.33-.28.99.06,1.86.29,1.65,1.59-.84.78-2.08.65-2.98,1.3-5.65,1.2-11.47,1.1-17.15,2.4-3.38.77-7.1.06-10.67.32-6.77.47-13.56.08-20.36.6-4.73.36-8.66,1.72-12.5,4.06-2.23,1.01-4.51,1.9-6.66,3.08-.87.48-1.78,1.11-2.83.35Z"/>
          <path class="cls-38" d="M139.49,18.28c3.44,1.12,5.6,3.95,7.68,6.49,1.95,2.39,3.72,3.13,6.45,2.05.39,3.04,1.81,5.04,5.01,5.92,2.93.81,5.3,2.72,7.28,5.05-1.79-.04-3.34-.81-4.92-1.51-.83-.37-1.72-.89-2.57-.86-3.69.14-6.27-1.95-8.63-4.24-3.62-3.52-7.76-5.17-12.83-4.66-2.85.29-3.53-2.27-4.84-3.97-.06-.58.13-1.1.42-1.59.48-.74.94-1.49,1.63-2.07,1.66-1.22,3.38-1.87,5.32-.61Z"/>
          <path class="cls-8" d="M135.8,32.91c-1.14-2.39-3.38-.39-4.91-1.22,4.49-.11,8.73-2.87,13.59.32,2.5,1.64,5.24,2.93,7.38,5.14.34.35.86.6,1.34.71,5.79,1.3,10.91,4.42,16.6,5.98,4.05,1.11,8.11.87,12.09-.12,2.24-.56,4.77-.04,6.74-1.66,1.44,1.8,3.48-1.19,4.91.61-4.15,1.14-8.31,2.25-12.45,3.43-2.56.73-5.43-.22-7.81,1.45-.2,0-.41,0-.61,0-.89-.67-2.13.02-2.99-.76-2.25-1.3-4.94-1.19-7.27-2.25-5.83-2.65-11.6-5.39-16.83-9.1-2.1-1.5-4.49-1.1-6.76-1.43-1.11-.16-2.28.04-3-1.09Z"/>
          <path class="cls-37" d="M132.73,21.32c-.01.5-.12.96-.61,1.22-2.16,1.62-4.54,3.6-6.77,4.3-3.91,1.24-8.11,4.2-12.58,1.21-.79-.53-1.98-.79-2.55-.33-2.2,1.75-4.62.86-6.96.91-1.24-.45-2.51-.56-3.85-.57-1.18,0-2.86-.09-2.08-2.18.93-.56,1.99-.59,2.99-.46,6.29.77,12.22-1.37,18.32-2.12.94-.12,1.89-.26,2.66.32,2.13,1.6,3.79.71,5.42-.81,1.37-1.27,2.9-2.28,4.84-2.42.61-.04,1.27.04,1.18.94Z"/>
          <path class="cls-38" d="M97.11,26.2c.66,1.15,1.56,1.69,2.95,1.34,1.27-.32,2.33.14,3.19,1.1-2.44.42-4.82-.07-7.13-.7-1.5-.41-3.1-.93-4.48-.45-5.7,1.97-12.35.98-17.25,5.42-2.59.86-5.05,2.57-7.98,1.22-.22-1.72,1.09-2.43,2.29-2.53,2.99-.25,5.18-1.93,7.48-3.49,3.97-1.14,7.51-3.74,11.89-3.5,2.09.19,4.19.34,6.29.31,1.11-.01,2.25,0,2.76,1.29Z"/>
          <path class="cls-6" d="M17.27,16.45c.55-.58,1.05-1.23,1.65-1.74q3.86-3.26,6.63,1c3.02,4.66,7.4,7.18,9.93,5.18,2.13-1.69,4.67-2.41,6.8-3.93,1.02-.73,2.13-1.35,3.4-1.07,1.9.42,2.51-.9,3.79-1.85,3.56-2.63,5.32-5.71,6.16-9.97.51-2.61,3.95-1.23,5.85-2.25h0c.32.52,1.34.06,1.37.98-2.11,2.46-2.62,5.67-3.93,8.5-.84,1.81-1.97,3.29-3.58,4.46-2.3,1.68-4.51,3.71-6.96,4.91-3.7,1.8-7.38,4.15-11.19,5.15-4.98,1.31-10.36.24-14.82-3.01-1.17-.85-2.18-1.99-2.43-3.42-.29-1.64-1.3-2.4-2.68-2.95Z"/>
          <path class="cls-19" d="M17.27,16.45c1.9-.66,2.83-.76,3.24,1.97.69,4.51,4.77,5.63,8.65,6.48,1.58.35,3.21.51,4.82.66,1.98.19,3.8-.04,5.43-1.46,1.81-1.58,3.65-3.27,6.44-2.86.52.08,1.29-.25,1.67-.65,2.54-2.67,5.99-4.12,8.69-6.55,1.97-1.77,2.7-4.29,3.36-6.68.57-2.05,1.34-3.76,3.15-4.93,1.41.39,2.91.11,4.3.61.76,1.04,2.64.24,3.07,1.83-2.21.83-4.57,1.48-4.99,4.33-.22.46-.6.87-.69,1.35-1.03,5.4-5.21,8.21-9.2,11.2-.86.64-1.58,1.45-2.51,2-3.67,1.49-7.36,2.93-11.09,4.25-.39.14.11.04-.29.09-7.16.98-14.06.09-20.4-3.46-2.5-1.4-3.06-4.74-5.5-6.36.4-.82,1.01-1.43,1.84-1.83Z"/>
          <path class="cls-2" d="M15.42,18.28c2.06-.2,2.78,1.28,3.55,2.75,2.08,3.97,6.24,6.08,10.78,5.35,1.03-.16,1.78.22,2.6.59,3.36,1.52,6.6,1.22,10.03-.06,3.48-1.29,6.79-3.09,10.5-3.76-.12,2.72-2.46,3.71-4.31,4.5-3.42,1.46-6.92,2.77-10.43,4.03-8.6,1.09-16.06-.84-21.52-8.03-.86-1.14-1.79-2.21-3.05-2.94.2-.41.41-.81.61-1.22.23-.58.64-.99,1.23-1.22Z"/>
          <path class="cls-7" d="M76.23,51.8h-10.44c-.09-1.77,1.31-2.16,2.54-2.51,3.44-.97,6.87-1.9,9.97-3.79,1.38-.84,2.96-.55,4.49-.3,2.66.44,5.26.38,7.79-.79,2.97-1.38,6.12-.46,9.05-.05,4.03.55,8,.64,11.85-.34,6.92-1.76,13.97-.37,20.92-1.22,1.09-.13,2.37.05,2.07,1.77-6.07,1.73-12.2,3.2-18.57,3.07-1.96-.04-3.87-.04-5.77.46-8.27.47-16.46,2.01-24.82,1.48-3.11-.2-6.16,1.05-9.08,2.23Z"/>
          <path class="cls-14" d="M134.58,44.49c-.34-.68-.85-1.33-1.64-1.11-3.27.92-6.46.37-9.75-.01-5-.58-9.83,1.23-14.74,1.98-2.45.37-4.81.25-7.26.05-4.02-.32-8.07-1.73-12.14.52-1.92,1.06-4.41.63-6.61.1-1.68-.41-3.11-.4-4.62.67-2.68,1.9-5.86,2.6-9.02,3.3-1.22.27-2.38.62-3.01,1.83-1.43,0-2.87,0-4.3,0-.78-1.39.4-1.8,1.23-2.26,1.34-.73,2.62-1.67,4.04-2.15,4.06-1.37,7.54-4.01,11.67-5.21,2.73.2,5.49-.06,8.15-.34,7.02-.72,13.9.75,20.86.71.9,0,1.84.02,2.57.71,6.41-1.24,13.02-.01,19.43-1.72,3.39-.9,6.54.54,9.43,2.33-1.15.97-2.52,1-3.93.89-.12-.09-.25-.19-.37-.28Z"/>
          <path class="cls-34" d="M154.22,51.79c-9.21,0-18.42,0-27.63,0-.47-1.94-1.59-2.77-3.67-2.32-2.73.59-5.46,1.1-8,2.32-5.73,0-11.47,0-17.2,0-.1-1.77,1.29-2.17,2.53-2.43,2.06-.43,4.1-1.11,6.28-.88,1.52.16,3.04.04,4.4-.83,6.7-.03,13.36-.36,19.9-1.99,2.53-.63,5.05,0,7.56.37,4.82.72,9.59,1.64,14.07,3.64.93.41,1.94.77,1.77,2.1Z"/>
          <path class="cls-27" d="M78.07,42.66c-4.41,3.23-9.84,4.47-14.46,7.29-.84.51-2.01.55-2.12,1.85h-13.49c-.08-.23-.17-.47-.25-.7,4.78-2.46,10.31-3.27,14.96-6,3.26-.76,5.67-3.61,9.21-3.66,1.97-1.59,4.36-2.45,6.76-2.51,4-.11,7.83-1.13,11.75-1.63,2.5-.32,4.66.04,6.19,2.25.02.76-.5,1.17-1.12,1.16-2.15,0-4.2.82-6.3.87-3.75.08-7.47.26-11.14,1.08Z"/>
          <path class="cls-34" d="M110.62,48.14c-1.36,2.14-3.47.96-5.26,1.17-2.72.32-5.6.12-7.64,2.49-7.17,0-14.33,0-21.5,0,2.37-2.73,5.9-3.18,8.93-3.16,6.83.06,13.59.2,20.3-1.35,1.42-.33,3.03.14,4.55.24.34.06.54.27.61.61Z"/>
          <path class="cls-25" d="M110.62,48.14c-.2-.2-.41-.41-.61-.61,1.85-.78,3.64-1.08,5.75-.76,4.15.63,8.2-.65,12.24-1.47,2.18-.44,4.33-1.03,6.58-.82,4.89-.14,9.6,1.2,14.39,1.84,2.31.31,4.13,1.68,6.03,2.83.95.58,1.23,1.59.46,2.63-.41,0-.82,0-1.23,0-1.97-2.3-5.16-2.9-7.56-3.32-6.25-1.1-12.39-2.92-19.2-1.29-5.29,1.27-11.15,1.97-16.84.96Z"/>
          <path class="cls-7" d="M155.46,51.79c-.52-2.27-4.43-4.49-7.69-4.92-4.42-.59-8.79-1.57-13.19-2.38,1.41-.35,2.81-.8,4.3-.61,3.16,1.17,6.59.56,9.85,1.52,1.53.45,3.18.58,4.39,1.63,2.16,1.87,5.07,2.29,7.62,3.8-1.49.78-3-.23-4.04.96-.41,0-.82,0-1.23,0Z"/>
          <path class="cls-34" d="M114.92,51.79c1.58-2.81,4.8-1.82,7.1-3,.49-.25,1.2-.03,1.81-.08,3.35-.26,3.54-.05,2.76,3.08-3.89,0-7.78,0-11.67,0Z"/>
          <path class="cls-33" d="M78.07,42.66c2.13-1.3,4.44-2.01,6.95-1.82,3.91.31,7.64-.94,11.48-1.23,2.4-1.66,5.15-.87,7.71-.91,3.2-.05,6.47.13,9.49,1.52,2.04-.41,4.06-.91,6.12-1.17,1.01-.13,2.22-.43,3.09.56-2.67,2.79-6.34,1.71-9.55,2.42-1.18.26-2.4.38-3.35,1.23-4.6-.22-9.29.87-13.76-1-.8-.33-1.57.03-2.37.1-5.26.43-10.53.73-15.81.29Z"/>
          <path class="cls-39" d="M76.23,28.64c-1.86,1.65-3.6,3.34-6.45,3.32-1.32-.01-2.76.66-3.38,2.17-1.75.22-2.74,1.67-4.02,2.59-1.08.77-2.08,1.17-3.35,1.07.02-2.85,3.28-2.81,4.36-4.79.38-.69,1.39-1.07,1.78-1.91-.24-.73.24-1.19.73-1.48,2.98-1.76,5.65-4.1,9.19-4.83,1.29,1.03,1.65,2.33,1.14,3.88Z"/>
          <path class="cls-5" d="M113.69,40.22c-5.73-.37-11.45-.91-17.2-.61-3.64-2.59-7.5-1.6-11.25-.46-1.63.5-3.2.44-4.8.44-2.99,0-5.74.94-8.52,1.85,3.04-2.63,6.33-4.73,10.57-4.5,2.28.13,4.56.27,6.67-.66,1.54-.68,3.03-.22,4.49-.09,7.25.65,14.56.12,21.7-.38,4.46-.31,9.28-.39,13.67-1.87,1.31-.44,2.6.56,3.71-.42,1.89-.45,3.23.37,4.3,1.83-.63.72-1.41,1.32-2.37.93-3.4-1.39-6.7.2-10.02.17-4.25-.04-7.64,1.55-10.94,3.78Z"/>
          <path class="cls-1" d="M137.03,35.34c-1.64-.13-2.59-1.86-4.3-1.83.86-1.02,2.04-.46,3.07-.61.89-.04,1.79.23,2.64.33,2.78.35,5.49.04,8.25,1.97,5.9,4.12,12.32,7.54,19.33,9.64,1.42.42,3.13.03,4.18,1.47-2.2,1.35-4.16.26-6.14-.61-2.38-.05-4.43-.76-6.45-2.18-4.39-3.08-9.52-4.83-14.35-7.1-1.84-.86-4.14-.75-6.23-1.08Z"/>
          <path class="cls-31" d="M164.06,45.7c2.08-.09,4.04.98,6.14.61.53.99,1.93.23,2.46,1.22-2.9-.46-6.27,1.26-8.6-1.83Z"/>
          <path class="cls-20" d="M75,24.98c-3.16,2.21-6.86,3.57-9.83,6.1-1.03-.06-1.75.65-2.39,1.22-6.22,5.59-14.07,6.63-21.87,7.96-5.3.9-10.53,1.74-15.67-.65,3.76,0,7.53.09,11.26-.58.96-.17,1.8-.28,2.25-1.25,2.17-2.17,5.12-1.69,7.74-1.98,3.34-.36,6.04-1.78,8.97-3.27,5.11-2.6,8.43-7.19,13.02-10.28,1.3-.7,2.31-1.75,3.33-2.78.38-.35.79-.85,1.25-.83,2.93.13,5.52-.76,8.09-2.07,1.11-.57,2.3,0,3.38.8,1.4,1.03,2.45,2.45,3.96,3.34h0c0,.2,0,.41,0,.61-3.69-.11-6.65,2-9.91,3.19-1.16.42-2.35.72-3.6.47Z"/>
          <path class="cls-18" d="M38.15,31.69c2.07-2.05,4.75-2.93,7.46-3.63,3.05-.79,5.42-2.44,7.29-4.9.4-.82,1.01-1.43,1.84-1.83,2.13-.85,3.96-2.36,6.33-2.71,1.01-.15,1.38-1.05,1.73-1.91,1-2.43,1.38-5,1.77-7.57.31-3.37,2.04-4.94,5.53-4.27,5.02,1.31,8.93,4.31,12.04,8.27.96,1.22,2.61,2.09,2.7,3.92-2.89-.33-3.74-3.27-5.9-4.54-.61-.52-1.14-1.14-1.79-1.62-2.6-1.94-4.29-1.5-5.71,1.47-1.16,2.42-1.82,5.15-4.22,6.82-2.43.58-3.64,2.89-5.72,3.97-3.7,3.04-8.22,4.77-12.36,6.96-3.02,1.6-7.11,2.48-10.98,1.57Z"/>
          <path class="cls-28" d="M68.86,22.54c-4.46,4.95-9.86,8.77-15.43,12.3-1.44.91-3.36,1.58-5.41,1.56-3.12-.03-6.23.5-9.26,1.38-11.06,2.63-19.43-1.7-26.18-10.06-.77-.95-1.41-1.66-2.68-1.52.87-2.19,2.1-2.38,3.4-.43,1.46,2.19,4.03,2.95,5.81,4.7,5.3,4.91,11.51,5.95,18.56,5.01,4.67-.63,9.26-1.42,13.61-3.09,4.15-1.6,7.89-4.1,10.9-7.43,1.51-1.67,3.08-2.91,5.4-3.01.5.05.95.21,1.29.6Z"/>
          <path class="cls-22" d="M67.63,22.54c-2.22.37-3.62,1.7-5.21,3.28-2.6,2.6-5.59,5.22-8.94,6.56-4.24,1.69-8.66,3.11-13.45,3.5-5.03.4-9.75.6-14.69-.96-2.8-.89-4.58-2.39-6.24-4.45,2.65.91,4.54,2.99,7.4,3.87,5.42,1.66,10.42.47,15.62-.37,4.33-.7,8.14-2.37,11.56-5.06.8-.63,1.81-.79,2.86-.92,2.85-.33,4.5-2.02,4.94-4.84,1.32-2.08,2.66-4.16,5.53-4.27.95,1.09,1.1,2.32.61,3.66Z"/>
          <path class="cls-3" d="M90.97,21.93c1.07-1.73,2.96-2.21,4.54-3.22,3.85-2.47,8.36-1.64,12.3-3.24,1.54-.63,2.17.74,3.02,1.51,2.74,2.47,3.81,2.39,5.32-1.03,1.83-4.12,5.52-4.37,9.02-4.16,3.03.18,6.33.48,8.79,2.83-.17.51-.52,1.01-1.01,1.04-5.19.32-8.69,4.2-13.11,6.15-3.58,1.58-7.03,1.93-10.65,1.06-1.71-.41-3.14-.32-4.67.47-2.69,1.38-5.45,1.81-8.03-.22-1.68-1.33-3.78-.35-5.52-1.18Z"/>
          <path class="cls-26" d="M90.97,21.93c2.34-.89,4.52-.87,6.57.83,2.57,2.13,5.09.72,7.36-.56,1.42-.81,2.47-.78,3.97-.3,3.47,1.09,6.87.99,10.32-.7,3.21-1.57,6.19-3.45,9.17-5.35,1.74-1.11,3.9-.08,5.6-1.24h0c.92.78,2.13,1.09,3.07,1.83,1.24.05,1.92.85,2.46,1.83-2.02-.4-3.76.47-5.53,1.22-2.22-1.38-3.97-.8-5.47,1.22-1.53,2.06-3.54,2.94-6.15,2.28-1.01-.25-2.15-.18-3,.25-2.89,1.45-5.89,1.14-8.92.9-.51-.04-1.05-.08-1.5.14-5.06,2.52-10.17,1.67-15.3.27-1.95-.53-3.83.16-5.73.42-3.89,1.22-7.78,2.44-11.67,3.66-.41-1.22-.82-2.44-1.23-3.66,2.88-1.4,6.19-1.73,8.78-3.94,1.37-1.17,3.12.39,4.74.28.65.89,1.61.52,2.46.61Z"/>
          <path class="cls-3" d="M137.03,16.45c-1.26-.21-2.42-.6-3.07-1.83,1.26.21,2.42.6,3.07,1.83Z"/>
          <path class="cls-16" d="M79.3,12.18c2.39,1.02,3.25,3.74,5.53,4.88,1.47.98,2.7,2.2,3.68,3.66-1.99-.23-2.82-2.17-4.45-2.99-1.43-.72-2.62-.95-3.92.02-1.75,1.29-3.48,2.36-5.83,1.28-.94-.43-1.55.78-2.38,1.09-.14-2.5,2.93-7.53,5.06-8.29.84-.3,1.6-.14,2.31.36Z"/>
          <path class="cls-6" d="M67.01,3.04c-1.44-.13-3.03.76-4.3-.61-.51-.01-.96-.12-1.23-.61,1.94-.02,3.76.46,5.53,1.22Z"/>
          <path class="cls-30" d="M87.9,24.98c1.99-1.78,4.21-1.93,6.61-.95,4.34,1.77,8.7,1.82,13-.05.84-.36,1.59-1.07,2.52-.78,3.71,1.16,7.21.56,10.63-1.04.18-.08.43-.21.58-.15,3.8,1.53,6.03-.71,8.15-3.3,1.96-2.39,3.37-1.32,4.58.77,0,.88-.41,1.49-1.23,1.83-2.2-.57-3.79.51-5.28,1.89-1.99,1.84-3.93,3.88-6.61.88-.25-.29-1.05-.39-1.43-.23-4.31,1.88-9.1,1.18-13.58,2.58-2.54.79-5.78-.35-8.72-.24-2.15-1.17-4.5-.1-6.72-.59-.84-.19-1.82.23-2.49-.63Z"/>
          <path class="cls-2" d="M64.56,9.13c1.35,3.6-.09,7.17-1.98,9.6-1.4,1.8-5.14,1.79-7.84,2.59,1.93-1.42,3.53-3.19,5.6-4.49,1.37-.86,2.19-2.51,2.45-4.32.18-1.27.78-2.47,1.77-3.39Z"/>
          <path class="cls-13" d="M79.3,12.18c-3.48-.54-4.01,2.83-5.79,4.47-.86.79-1.08,2.28-1.58,3.45-.76,1.13-1.51,2.29-3.07,2.44-.41,0-.82,0-1.23,0-.73-1.13-.63-2.4-.61-3.66,1.63-1.94,2.63-4.23,3.61-6.52,1.78-4.15,4.21-4.66,7.54-1.59.44.4.76.93,1.13,1.4Z"/>
        </g>
      </g>
    </g>
  </g>
</svg>