<?xml version="1.0" encoding="UTF-8"?>
<svg xmlns="http://www.w3.org/2000/svg" viewBox="0 0 170.08 45.22">
  <defs>
    <style>
      .cls-1 {
        fill: #d3e9f8;
      }

      .cls-1, .cls-2, .cls-3, .cls-4, .cls-5, .cls-6, .cls-7, .cls-8, .cls-9, .cls-10, .cls-11, .cls-12, .cls-13, .cls-14, .cls-15, .cls-16, .cls-17, .cls-18, .cls-19, .cls-20, .cls-21, .cls-22, .cls-23, .cls-24, .cls-25, .cls-26, .cls-27, .cls-28, .cls-29, .cls-30, .cls-31, .cls-32, .cls-33, .cls-34, .cls-35, .cls-36, .cls-37, .cls-38, .cls-39 {
        stroke-width: 0px;
      }

      .cls-2 {
        fill: #e9f5fc;
      }

      .cls-3 {
        fill: #dff1fb;
      }

      .cls-4 {
        fill: #d7e9f7;
      }

      .cls-5 {
        fill: #d1e8f8;
      }

      .cls-6 {
        fill: #ecf7fd;
      }

      .cls-7 {
        fill: #cbe5f6;
      }

      .cls-8 {
        fill: #d4eaf8;
      }

      .cls-9 {
        fill: #f7fbff;
      }

      .cls-40 {
        mix-blend-mode: multiply;
      }

      .cls-10 {
        fill: #c2e0f5;
      }

      .cls-11 {
        fill: #f3f8fc;
      }

      .cls-12 {
        fill: #d1e8f7;
      }

      .cls-13 {
        fill: #e8f1f9;
      }

      .cls-14 {
        fill: #cde5f7;
      }

      .cls-15 {
        fill: #e1f1fb;
      }

      .cls-16 {
        fill: #e4f1fb;
      }

      .cls-17 {
        fill: #d8ebf8;
      }

      .cls-18 {
        fill: #e9f2fa;
      }

      .cls-19 {
        fill: #ecf4fb;
      }

      .cls-20 {
        fill: #e1f0fa;
      }

      .cls-21 {
        fill: #c5e2f6;
      }

      .cls-22 {
        fill: #e6f2fb;
      }

      .cls-23 {
        fill: #e5f3fb;
      }

      .cls-24 {
        fill: #cfe6f7;
      }

      .cls-25 {
        fill: #cae3f6;
      }

      .cls-26 {
        fill: #ddeffa;
      }

      .cls-27 {
        fill: #d0e7f7;
      }

      .cls-28 {
        fill: #e4f3fb;
      }

      .cls-29 {
        fill: #d9ebf8;
      }

      .cls-30 {
        fill: #dbeffb;
      }

      .cls-41 {
        isolation: isolate;
      }

      .cls-31 {
        fill: #d3e7f7;
      }

      .cls-32 {
        fill: #e7f4fc;
      }

      .cls-33 {
        fill: #cfe8f8;
      }

      .cls-34 {
        fill: #c9e4f6;
      }

      .cls-35 {
        fill: #e1f3fc;
      }

      .cls-36 {
        fill: #d5e8f7;
      }

      .cls-37 {
        fill: #daeefa;
      }

      .cls-38 {
        fill: #dbedf9;
      }

      .cls-39 {
        fill: #deecf8;
      }
    </style>
  </defs>
  <g class="cls-41">
    <g id="Layer_2" data-name="Layer 2">
      <g id="_1-เมฆ4" data-name="1-เมฆ4">
        <g class="cls-40">
          <path class="cls-17" d="M152.86,23.58c.47.46.95.92,1.42,1.38-1.77,1.68-3.63,3.25-5.31,5.01-1.58,1.65-3.91,1.61-5.8,2.57-6.87,2.44-13.66,2.5-20.3-.77-1.82-.89-3.66-1.66-5.65-2.1-.92-.2-1.91-.49-2.48-1.2-1.82-2.3-4.59-3.04-6.97-4.42-.55-.32-1.17-.58-1.78-.43-2.27.57-4.63.38-6.9.89-3.69-.41-7.33.96-11.04.23-1.61-.32-3.25.15-4.84.42-4.62.76-9.27-.48-13.88.32-3.93.68-8.02.5-11.77,2.13-.77.24-1.53.31-2.29-.05-.89-1.3.64-1.9.84-2.89,1.97-1.83,4.11-3.25,7.02-2.9.86.1,1.67-.29,2.45-.64,2.44-1.1,4.95-1.22,7.49-.52,1.66.46,3.34.61,5.05.61,1.82-.08,3.68.37,5.45-.63.64-.36,1.59-.15,2.22.31,1.44,1.05,2.87.64,4.42.31,2.75-.57,5.32-1.33,7.51-3.21.7-.6,1.6-1.28,2.73-1,1.45,1.73,3.18,2.32,5.57,2.47,2.83.18,5.63,1.21,7.83,3.47,1.75,1.8,3.86,3.2,6.63,3.44,1.9.16,3.56,1.41,5.43,1.91,4.04,2.28,8.42,2.96,12.97,2.43,2.91-.34,5.26-2.06,7.63-3.63,2.03-1.34,3.87-2.98,6.35-3.5Z"/>
          <path class="cls-6" d="M10.3,14.79c2.13-3.53,5.18-6.04,8.85-7.86C26.71,2.44,34.8-.1,43.71.45c.99.06,2-.03,2.92.48-.1,1.26-1.15,1.31-2.01,1.46-1.66.28-2.48,1.26-2.46,2.85.02,1.9-.84,3.22-2.41,4.18-.8.49-1.49,1.1-2,1.91-.43.68-1.02,1.27-1.84,1.29-3.2.07-5.68,1.77-8.21,3.41-1.92,1.25-4.66.95-6.15-.78-.95-1.11-1.94-2.2-2.79-3.39-1.41-1.97-1.79-2.02-3.67-.56-.49.38-.97.77-1.41,1.2-.55.49-1.09.98-1.62,1.5-.37.34-.73.71-1.2.92-.21.04-.39,0-.56-.13Z"/>
          <path class="cls-36" d="M55.03,27.27h2.33c-.41,1.61-1.93,2.11-3.12,2.77-2.37,1.33-4.51,2.95-6.6,4.64-2.88,1.92-6.28,2.58-9.62,3.94,3.08.13,6,.04,8.93.03,1.06,0,2.11-.1,3.17-.03,2.6.02,5.2-.13,7.8-.02,5.39-.03,10.78-.1,16.17-.02,4.34.09,8.68-.15,13.02.04,2.97.03,5.94-.16,8.91,0,6.74-.08,13.48-.11,20.22.03.41,0,.82-.02,1.23.04.4.04.78.13,1.13.34.09.09.18.18.27.28-.7.73-1.61.43-2.42.43-32.27.02-64.55.02-96.82.02-6.25-1.44-11.5-4.8-16.57-8.51-.32-.23-.63-.45-.81-.81.02-.31.17-.59.26-.88.78-2.53,1.08-2.65,3.23-1.03,6.07,4.57,13.01,7.22,20.46,7.99,4.24.44,8.68-.32,12.63-2.32,2.61-1.33,5.29-2.54,7.75-4.15.98-.64,2.1-1.2,3.23-1.2,1.95,0,3.57-.78,5.22-1.59Z"/>
          <path class="cls-24" d="M158.92,28.66c.64.29,1.1.76,1.42,1.38-4.05,3.54-7.93,7.36-13.11,8.25,2.13-.15,4.77-.01,7.42-.1,1.35-.03,2.71-.09,4.06-.03,2.62-.1,5.24-.05,7.86-.06,1.1,0,2.15.13,3.1.72.08.01.18,0,.22.05.08.08.12.2.18.3-.6.04-1.2.12-1.79.12-16.47,0-32.95.01-49.42.01v-.02c.44-1.54,1.43-.81,2.28-.61-4.61-2-9.02-4.75-14.41-4.43-.61.04-1.19-.27-1.75-.56-2.73-1.55-5.5-1.7-8.65-1.18-4.19.69-8.52.68-12.8.48-.11-1.6,1.28-1.43,2.16-1.63,2.51-.58,5.23-.23,7.53-1.74,3.13-1.41,6.1-1.33,9.6-.62,6.96,1.42,13.49,3.81,20.02,6.41,3.87,1.54,8.04,1.13,12.11,1.45,4.8.38,8.89-1.42,13.03-3.37,2.87-1.35,5.72-2.71,8.32-4.54.78-.55,1.68-.77,2.61-.29Z"/>
          <path class="cls-29" d="M55.03,27.27c-1.09,1.3-2.08,2.48-4.22,2.02-1.27-.27-2.7.5-3.89,1.21-3.5,2.1-6.98,4.28-10.92,5.43-6.22,1.83-12.44,1.63-18.53-.73-4.6-1.78-9.25-3.46-12.92-6.93-.63-.6-1.09-.44-1.41.3-.27.64-.51,1.28-.76,1.93.59.85.15,1.56-.3,2.28-.2.18-.42.19-.64.03.25-2.12.65-4.19,1.86-6.01.43-1.41,1.09-1.56,2.57-1.05,2.82.99,4.42,3.62,7.14,4.68,4.76,1.86,9.44,4,14.76,2.09,1.77-.63,3.7-.17,5.55-.41,4.03-.54,7.94-1.41,11.31-3.86,1.4-.21,2.49-1.01,3.57-1.83.66-.5,1.33-.99,2.21-1.05,1.54.18,3.06.35,4.51-.49.46-.27,1.03-.38,1.51.07.05,1.08-1.07,1.46-1.4,2.31Z"/>
          <path class="cls-12" d="M158.92,28.66c-2.25-.06-3.46,1.86-5.23,2.72-4.34,2.11-8.57,4.42-13.25,5.75-.66.19-1.36.3-2.04.29-4.82-.03-9.69.27-14.41-.97-2.22-.58-4.29-1.69-6.47-2.45-4.69-1.65-9.23-3.87-14.35-4.03-.45-.01-.93-.19-1.32-.41-2.22-1.25-4.4-1.11-6.62,0-.6.3-1.33.32-2.01.47-2.35-.17-4.58,1.21-6.98.56,1.26-2.59,3.8-3.23,6.22-3.38,3.33-.21,6.63-1.55,10.03-.42.42.14.88-.22,1.33-.34,1.89-.28,3.78-.02,5.44.78,3.33,1.61,6.91,2.76,9.96,4.9,1.62,1.14,3.44,1.72,5.31,2.22,1.87,1.54,4.14.92,6.26,1.15.24.02.48.07.72.13,4.75.43,9.41-.06,13.79-1.89,3.17-1.33,6.28-2.9,8.86-5.3.75-.69,1.67-1.4,2.89-1.17.25.95,1.4.71,1.86,1.39Z"/>
          <path class="cls-26" d="M44.78,28.66c-2.54,2.19-5.61,3.18-8.85,3.66-4.2.62-8.47,1.71-12.63,1.45-5.35-.34-10.77-1.5-14.68-5.86-1.07-1.19-2.81-1.11-4.03-2.13-.55-.46-.71.83-1.29,1.03,0-1.27.55-2.32,1.4-3.24.83-1.49,1.93-1.59,3.28-.67.77.53,1.52,1.08,2.14,1.78,2.47,2.77,5.61,4.31,9.23,5,6.7,2.11,13.11.06,19.54-1.41,3.02-.69,5.85-1.92,8.17-4.1.54-.51,1.24-.93,2.09-.81.95.85,0,1.31-.43,1.82-1.14,1.35-2.75,2.19-3.94,3.5Z"/>
          <path class="cls-35" d="M149.15,20.8c.68.38,1.52.56,1.86,1.39-2.73,3.65-6.56,5.71-10.74,7.25-.59.22-1.22.1-1.84.08-2.77-.12-5.48-.85-8.28-.81-1.59.02-2.99-.6-4-1.95-2.37-3.18-6.41-4.17-9.2-6.8-.16-1.2,1.2-.5,1.47-1.15.95-.13,1.79-.64,2.75-.72,1.63.05,2.58,1.18,3.64,2.19,3.87,3.66,8.61,5.35,13.85,5.34,2.99,0,5.26-2.02,7.46-3.86.87-.73,1.67-1.71,3.02-.97Z"/>
          <path class="cls-30" d="M117,19.88c.31.02.71-.07.91.09,2.88,2.35,6.71,3.5,8.96,6.59.82,1.13,1.83,1.51,2.85,1.53,3.23.07,6.43,1.11,9.56.86,3.28-.26,6.1-2.34,8.73-4.41,1-.79,1.59-2.11,3.01-2.35.62.47,1.23.93,1.85,1.4-3.52,2.25-6.9,4.77-10.6,6.69-3.93,2.05-8.23,1.46-12.35.33-1.42-.39-3.05-.61-4.06-1.94-2.51-1.55-5-3.11-7.74-4.3-1.49-.65-1.89-2.29-1.94-3.89.03-.23.11-.44.23-.63.21-.14.41-.13.6.03Z"/>
          <path class="cls-28" d="M149.15,20.8c-.96-.13-1.56.43-2.22,1.02-5.68,5.17-9.21,5.68-16.43,2.66-2.54-1.06-5.24-1.86-6.79-4.52-.43-.74-1.46-1.36-2.53-1.47,1.7-1.37,5.97-1.38,7.49-.26,5.19,3.82,9.84,6,15.06,1.86,1.04-.83,2.33-.52,3.54-.21.74.07,1.39.32,1.86.92Z"/>
          <path class="cls-23" d="M5.64,21.73c.33-1.9,1.81-3.12,2.8-4.62.59-.69.98-1.62,2.1-1.64,1.43.44,2.19,1.65,3.04,2.71,3.67,4.58,8.68,5.64,14.18,5.47.38-.01.77-.05,1.15,0,3.58-.27,7.15-.38,10.32-2.53,2.3-1.56,4.76-2.94,7.56-3.49.09,1.96-1.05,3.6-3.15,4.07-1.56.35-2.81,1.16-4.18,1.86-6.48,3.35-13.23,4.89-20.48,2.77-1.7-.49-2.91-1.69-4.34-2.58-1.76-1.17-3.64-2.19-5.01-3.84-.73-.88-1.27-.49-1.81.18-.71.57-.92,1.79-2.19,1.62Z"/>
          <path class="cls-16" d="M116.53,19.88c0,.15,0,.31,0,.46-1.94,1.36-3.06,1.29-4.59-.39-1.86-2.05-3.75-4.07-6.07-5.64-.67-.52-1.29-1.12-2.04-1.55-.68-.51-1.41-.94-2.2-1.26-.2-.08-.4-.18-.59-.28-2.9-1.68-6.07-1.75-9.26-1.45-1.55.15-2.29,1.45-3.06,2.61-1.82,2.75-2.42,2.86-5.1.85-.43-.32-.88-.88-1.4-.7-1.95.7-4.13-.03-5.93.75-2.52,1.1-5.3,1.77-7.42,3.69-.78.15-1.52.21-1.91-.69-.01-.27.07-.5.24-.7,3.16-1.42,5.93-3.52,9.04-5.04,3.16-1.55,6.44-2.42,9.93-2.72,2.37-.2,4.7-.52,7.12-.27,3.85.4,7.39,1.47,10.65,3.53,3.32,2.54,6.66,5.06,9.42,8.23.68.78,1.37.8,2.23.55.31-.26.62-.26.93,0Z"/>
          <path class="cls-11" d="M103.95,11.09c-2.92-.93-5.55-2.56-8.75-2.9-7.94-.83-15.34.34-22.22,4.55-1.85,1.13-3.37,3.01-5.84,2.97-.11-.02-.21-.04-.32-.06-1.13-.68-1.96-1.67-2.8-2.65-2.76-4.05-6.25-7.23-10.91-9.02-.8-.54-1.78-.7-2.6-1.2-1.14-.64-2.52-.5-3.65-1.16-.07-.08-.14-.16-.21-.25-4.34-.89-8.71-.82-12.97.26-3.29.84-6.71,1.25-9.63,3.54-1.15.91-3.19,1.32-4.9,1.74,4.24-3.4,9.15-5.5,14.44-6.3,5.24-.8,10.53-.94,15.88.21,6.19,1.33,10.43,5.16,14.28,9.64,1.16,1.35,2.24,2.93,3.71,3.76,1.73.97,2.89-1.13,4.31-1.81,4.01-1.91,7.78-4.31,12.35-4.9,6.3-.81,12.46-.82,18.24,2.31.6.33,1.32.52,1.59,1.26Z"/>
          <path class="cls-32" d="M147.29,19.88c-2.42-.76-3.76,1.36-5.56,2.15-2.82,1.23-5.26,1.3-8.09-.23-2.14-1.15-4.62-1.62-6.08-3.84-.16-.24-.71-.43-1.01-.36-1.76.44-3.66.09-5.35.89-.93.15-1.86.31-2.8.46-.16.18-.31.17-.47,0,6.22-2.47,12.66-2.92,19.18-1.71,3.44.64,6.79,1.74,10.18,2.64Z"/>
          <path class="cls-27" d="M1.91,32.82c.16-.77.31-1.54.47-2.31,3.02,1.2,5.46,3.36,8.23,4.98,2.44,1.42,5,2.31,7.56,3.3.6.23,1.17.34,1.45.97-5.11.55-10.25.49-15.38.47.22-1.26,1.27-.94,2.08-1.09,1.89.1,3.8-.18,5.69.26-2.62-.5-5.13-1.23-7.03-3.26-.96-1.03-2.3-1.12-3.58-1.37-.44-.8.16-1.34.51-1.94Z"/>
          <path class="cls-15" d="M5.64,21.73c.62-.62,1.24-1.23,1.87-1.85,1.18-.75,1.81.07,2.52.82,1.52,1.63,3.05,3.26,4.83,4.64,3.71,2.87,7.96,3.5,12.49,3.14.71-.06,1.7-.64,2.14.56-1.44,1.88-3.64,1.45-5.53,1.56-1.57.09-3.22-.14-4.8-.54-3.04-.2-5.58-1.54-7.86-3.43-1.18-.97-2.29-2.03-3.39-3.09-1.11-1.07-2.14-.92-3.2.04.08-.73.33-1.38.93-1.85Z"/>
          <path class="cls-34" d="M154.27,38.83h-8.55c1.35-1.64,3.37-1.25,4.81-2.13,2.56-1.56,5.14-3.07,7.23-5.26.71-.74,1.53-1.28,2.58-1.4.67.39,1.5.57,1.84,1.4-2.17,2.95-4.85,5.38-7.91,7.39Z"/>
          <path class="cls-31" d="M157.06,27.28c-3.39,2.05-6.37,4.66-9.99,6.42-4.83,2.35-9.92,2.54-15.07,2.74-.18,0-.37-.24-.56-.38.08-1.2,1.15-1.22,1.86-1.24,4.55-.12,8.7-1.87,12.98-3.07,3-.71,5.18-2.81,7.63-4.45.66-.44,1.22-1.22,2.21-.94.45.17.77.47.93.92Z"/>
          <path class="cls-10" d="M169.67,38.83c-3.74,0-7.47,0-11.21,0,.41-2.5,3.93-5.45,6.09-5.1,2.17,1.24,3.43,3.38,5.12,5.09Z"/>
          <path class="cls-14" d="M1.45,34.67c1.15-.76,2.21-.49,3.12.4,1.95,1.91,4.26,3.14,6.94,3.7.41.08.77.4,1.1.99h-6.03c-.97-.6-2.05-1.02-3.01-1.64-.39-.26-.9-.88-1.35-.19-.36.56-.16,1.18.43,1.59.37.26.87.31,1.15.72-1.19.88-2.5.27-3.78.44-.13-.94.82-1.16.97-1.82-.37-1.45-.5-2.87.47-4.17Z"/>
          <path class="cls-21" d="M164.55,33.73c-2.86.73-4.4,3-6.09,5.1h-4.19c-.12-1.46,1.37-1.56,2.1-2.1,2.13-1.59,3.37-4.09,5.81-5.3.97.58,1.74,1.37,2.37,2.29Z"/>
          <path class="cls-4" d="M156.13,26.36c-3.05,2.08-5.77,4.66-9.31,6-.78-.57-1.45.06-2.18.17-.58.09-1.44.56-1.55-.63,3.89-.8,6.77-3.09,9.18-6.07.53-.65,1.18-.94,2-.87.68.38,1.52.56,1.85,1.39Z"/>
          <path class="cls-34" d="M3.79,40.23c-.94-.16-2.37.51-2.32-1.3.02-.73-.36-1.66.34-2.15.86-.59,1.32.4,1.91.8.99.68,2.31.93,2.86,2.18-.79.11-1.68-.31-2.33.47,0,0-.23,0-.23,0h-.23Z"/>
          <path class="cls-9" d="M37.64,44.54h8.2c-2.74.89-5.47.93-8.2,0Z"/>
          <path class="cls-36" d="M1.45,34.67c-.47,1.36-.53,2.76-.47,4.17-1.12-2.1-.12-4.05.47-6.02.16,0,.31,0,.47,0-.16.62-.31,1.23-.47,1.85Z"/>
          <path class="cls-6" d="M10.3,15.71c-.62.46-1.24.93-1.86,1.39.11-1.17,1-1.73,1.86-2.31.16,0,.31,0,.47,0,.22.5-.1.72-.47.92Z"/>
          <path class="cls-28" d="M117.93,18.95c.16,0,.31,0,.47,0-.47.31-.93.62-1.4.92-.16,0-.31,0-.47,0-.31,0-.62,0-.93,0,.61-.73,1.42-.95,2.33-.93Z"/>
          <path class="cls-8" d="M47.58,34.21c2.71-3.08,6.69-4.4,9.78-6.94,1.42-1.1,2.85-2.05,4.82-1.43.47.15,1.07-.04,1.59-.16,4.81-1.06,9.63-1.56,14.56-.8,1.39.21,2.95-.03,4.33-.43,3.98-1.15,8.08.68,12.09-.73,1.31-.46,2.99.48,4.55.3.83-.17,1.68-.27,2.53-.22.75.05,1.41.22,1.25,1.21-.64.59-1.58.49-2.26.99-4.29.91-8.7.83-13.01,1.82-2.56.59-5.39.05-8.1.24-5.14.36-10.28.06-15.44.45-3.59.27-6.57,1.3-9.48,3.08-1.69.76-3.42,1.44-5.06,2.34-.66.36-1.35.84-2.15.26Z"/>
          <path class="cls-38" d="M105.82,13.86c2.61.85,4.25,3,5.82,4.92,1.48,1.81,2.82,2.38,4.89,1.55.29,2.31,1.37,3.82,3.8,4.49,2.22.61,4.02,2.07,5.52,3.83-1.36-.03-2.53-.62-3.73-1.15-.63-.28-1.31-.68-1.95-.65-2.8.1-4.76-1.48-6.54-3.21-2.75-2.67-5.89-3.92-9.73-3.53-2.17.22-2.68-1.72-3.67-3.01-.05-.44.1-.83.32-1.21.36-.56.71-1.13,1.24-1.57,1.26-.93,2.56-1.42,4.04-.46Z"/>
          <path class="cls-8" d="M103.02,24.96c-.86-1.81-2.57-.3-3.73-.92,3.4-.08,6.62-2.18,10.31.24,1.9,1.24,3.97,2.22,5.6,3.9.26.26.65.46,1.02.54,4.39.99,8.28,3.35,12.59,4.54,3.07.84,6.15.66,9.17-.09,1.7-.42,3.62-.03,5.11-1.26,1.09,1.37,2.64-.9,3.73.46-3.15.86-6.31,1.71-9.45,2.6-1.94.55-4.12-.16-5.93,1.1-.16,0-.31,0-.47,0-.67-.51-1.61.01-2.27-.58-1.71-.99-3.75-.9-5.51-1.71-4.42-2.01-8.8-4.09-12.77-6.9-1.6-1.13-3.4-.84-5.13-1.08-.84-.12-1.73.03-2.27-.83Z"/>
          <path class="cls-37" d="M100.69,16.18c0,.38-.09.73-.47.92-1.64,1.23-3.45,2.73-5.14,3.26-2.97.94-6.15,3.19-9.55.92-.6-.4-1.5-.6-1.94-.25-1.67,1.33-3.5.65-5.28.69-.94-.35-1.9-.43-2.92-.43-.9,0-2.17-.07-1.58-1.66.71-.42,1.51-.44,2.27-.35,4.77.58,9.27-1.04,13.9-1.61.72-.09,1.43-.2,2.02.24,1.61,1.21,2.88.54,4.11-.62,1.04-.97,2.2-1.73,3.67-1.83.46-.03.96.03.9.71Z"/>
          <path class="cls-38" d="M73.67,19.88c.5.87,1.19,1.29,2.24,1.02.96-.25,1.77.1,2.42.83-1.85.32-3.65-.05-5.41-.53-1.14-.31-2.35-.71-3.4-.34-4.33,1.49-9.37.74-13.09,4.11-1.97.66-3.83,1.95-6.06.92-.17-1.3.83-1.85,1.74-1.92,2.26-.19,3.93-1.46,5.67-2.65,3.01-.87,5.7-2.84,9.02-2.66,1.59.14,3.17.26,4.77.24.84,0,1.7,0,2.09.98Z"/>
          <path class="cls-6" d="M13.1,12.48c.42-.44.79-.93,1.26-1.32q2.93-2.47,5.03.76c2.29,3.53,5.61,5.45,7.53,3.93,1.62-1.28,3.54-1.83,5.16-2.98.77-.55,1.61-1.03,2.58-.81,1.44.32,1.91-.68,2.88-1.4,2.7-1.99,4.04-4.33,4.67-7.56.39-1.98,3-.94,4.44-1.71h0c.24.39,1.02.05,1.04.74-1.6,1.87-1.99,4.3-2.98,6.45-.64,1.38-1.5,2.5-2.71,3.38-1.75,1.27-3.42,2.82-5.28,3.72-2.81,1.37-5.6,3.15-8.49,3.91-3.78,1-7.86.18-11.25-2.29-.88-.64-1.66-1.51-1.85-2.59-.22-1.25-.99-1.82-2.03-2.23Z"/>
          <path class="cls-19" d="M13.1,12.48c1.44-.5,2.15-.58,2.46,1.49.52,3.42,3.62,4.27,6.56,4.92,1.2.26,2.43.39,3.66.5,1.5.14,2.88-.03,4.12-1.11,1.37-1.2,2.77-2.48,4.89-2.17.4.06.98-.19,1.27-.49,1.92-2.03,4.55-3.12,6.6-4.97,1.49-1.34,2.05-3.25,2.55-5.07.43-1.56,1.02-2.85,2.39-3.74,1.07.3,2.21.08,3.26.46.58.79,2,.18,2.33,1.39-1.67.63-3.47,1.12-3.79,3.29-.17.35-.45.66-.52,1.03-.78,4.09-3.96,6.23-6.98,8.5-.65.49-1.2,1.1-1.9,1.52-2.78,1.13-5.58,2.22-8.41,3.23-.29.1.08.03-.22.07-5.43.74-10.67.06-15.47-2.63-1.9-1.06-2.32-3.59-4.17-4.83.3-.62.77-1.09,1.4-1.39Z"/>
          <path class="cls-2" d="M11.7,13.86c1.57-.15,2.11.97,2.69,2.09,1.58,3.01,4.74,4.61,8.18,4.06.78-.13,1.35.17,1.97.45,2.55,1.15,5,.92,7.61-.04,2.64-.98,5.15-2.35,7.97-2.86-.09,2.07-1.87,2.82-3.27,3.42-2.59,1.11-5.25,2.1-7.91,3.06-6.52.83-12.18-.64-16.32-6.09-.65-.86-1.36-1.68-2.31-2.23.16-.31.31-.62.47-.92.18-.44.49-.75.93-.92Z"/>
          <path class="cls-7" d="M57.83,39.3h-7.92c-.07-1.34.99-1.64,1.93-1.9,2.61-.74,5.21-1.44,7.56-2.87,1.04-.64,2.25-.42,3.41-.23,2.02.33,3.99.29,5.91-.6,2.25-1.04,4.64-.35,6.87-.04,3.06.42,6.07.49,8.99-.26,5.25-1.34,10.6-.28,15.87-.93.83-.1,1.8.04,1.57,1.34-4.61,1.31-9.26,2.43-14.09,2.33-1.49-.03-2.94-.03-4.37.35-6.27.35-12.49,1.53-18.83,1.13-2.36-.15-4.67.8-6.89,1.69Z"/>
          <path class="cls-14" d="M102.09,33.75c-.26-.51-.65-1.01-1.24-.84-2.48.7-4.9.28-7.4-.01-3.79-.44-7.46.94-11.18,1.5-1.86.28-3.65.19-5.51.04-3.05-.25-6.12-1.31-9.21.39-1.46.8-3.34.48-5.01.07-1.27-.31-2.36-.3-3.5.51-2.03,1.44-4.45,1.97-6.84,2.5-.93.21-1.8.47-2.28,1.39-1.09,0-2.17,0-3.26,0-.59-1.05.3-1.37.94-1.71,1.02-.56,1.99-1.27,3.07-1.63,3.08-1.04,5.72-3.04,8.85-3.95,2.07.15,4.16-.05,6.18-.26,5.33-.54,10.55.57,15.83.54.68,0,1.4.02,1.95.54,4.86-.94,9.88,0,14.74-1.31,2.57-.69,4.96.41,7.16,1.77-.88.74-1.91.76-2.98.67-.09-.07-.19-.14-.28-.21Z"/>
          <path class="cls-34" d="M117,39.29c-6.99,0-13.98,0-20.96,0-.36-1.47-1.2-2.1-2.78-1.76-2.07.45-4.14.84-6.07,1.76-4.35,0-8.7,0-13.05,0-.07-1.34.98-1.65,1.92-1.85,1.57-.33,3.11-.84,4.77-.66,1.15.12,2.31.03,3.34-.63,5.08-.02,10.13-.28,15.1-1.51,1.92-.48,3.83,0,5.73.28,3.65.54,7.27,1.24,10.67,2.76.7.31,1.47.59,1.34,1.59Z"/>
          <path class="cls-27" d="M59.22,32.36c-3.35,2.45-7.46,3.39-10.97,5.53-.64.39-1.53.42-1.61,1.41h-10.23c-.06-.18-.13-.36-.19-.53,3.63-1.86,7.82-2.48,11.35-4.55,2.47-.57,4.3-2.74,6.99-2.77,1.5-1.2,3.3-1.86,5.13-1.91,3.03-.09,5.94-.86,8.91-1.24,1.9-.24,3.54.03,4.7,1.71.01.57-.38.88-.85.88-1.63,0-3.19.62-4.78.66-2.85.06-5.67.2-8.45.82Z"/>
          <path class="cls-34" d="M83.92,36.52c-1.03,1.62-2.63.73-3.99.89-2.06.24-4.25.09-5.79,1.89-5.44,0-10.87,0-16.31,0,1.79-2.07,4.47-2.41,6.78-2.39,5.18.04,10.31.15,15.4-1.02,1.08-.25,2.29.1,3.45.18.26.05.41.21.47.46Z"/>
          <path class="cls-25" d="M83.92,36.52c-.16-.15-.31-.31-.47-.46,1.4-.59,2.76-.82,4.36-.58,3.14.48,6.22-.49,9.28-1.11,1.66-.33,3.28-.78,4.99-.62,3.71-.1,7.28.91,10.92,1.4,1.75.23,3.14,1.27,4.58,2.14.72.44.94,1.21.35,2-.31,0-.62,0-.93,0-1.5-1.74-3.92-2.2-5.74-2.52-4.74-.83-9.4-2.21-14.56-.98-4.02.96-8.46,1.49-12.77.73Z"/>
          <path class="cls-7" d="M117.93,39.29c-.39-1.72-3.36-3.4-5.84-3.73-3.36-.44-6.67-1.19-10-1.81,1.07-.27,2.13-.61,3.26-.46,2.4.88,5,.43,7.47,1.15,1.16.34,2.41.44,3.33,1.23,1.64,1.42,3.84,1.73,5.78,2.89-1.13.59-2.28-.17-3.07.73-.31,0-.62,0-.93,0Z"/>
          <path class="cls-34" d="M87.18,39.29c1.2-2.13,3.64-1.38,5.39-2.28.37-.19.91-.03,1.37-.06,2.54-.2,2.69-.04,2.1,2.34-2.95,0-5.9,0-8.85,0Z"/>
          <path class="cls-33" d="M59.22,32.36c1.62-.99,3.37-1.53,5.27-1.38,2.97.23,5.79-.71,8.71-.93,1.82-1.26,3.91-.66,5.85-.69,2.43-.04,4.91.1,7.2,1.15,1.55-.31,3.08-.69,4.64-.89.77-.1,1.68-.33,2.35.43-2.02,2.12-4.81,1.3-7.24,1.84-.9.2-1.82.29-2.54.94-3.49-.17-7.05.66-10.44-.75-.61-.25-1.19.03-1.79.07-3.99.32-7.99.55-11.99.22Z"/>
          <path class="cls-39" d="M57.83,21.73c-1.41,1.25-2.73,2.54-4.89,2.52-1,0-2.1.5-2.56,1.65-1.33.17-2.08,1.27-3.05,1.96-.82.59-1.58.89-2.54.81.02-2.16,2.49-2.13,3.31-3.64.29-.52,1.06-.81,1.35-1.45-.18-.55.18-.9.56-1.12,2.26-1.34,4.29-3.11,6.97-3.67.98.78,1.25,1.77.86,2.94Z"/>
          <path class="cls-5" d="M86.25,30.51c-4.34-.28-8.68-.69-13.05-.46-2.76-1.96-5.69-1.22-8.53-.35-1.24.38-2.43.33-3.64.33-2.27,0-4.36.71-6.46,1.4,2.3-1.99,4.8-3.59,8.02-3.41,1.73.1,3.46.21,5.06-.5,1.17-.52,2.3-.17,3.4-.07,5.5.49,11.04.09,16.46-.29,3.38-.24,7.04-.3,10.37-1.42,1-.34,1.97.42,2.81-.32,1.44-.34,2.45.28,3.26,1.39-.48.55-1.07,1-1.8.7-2.58-1.05-5.09.15-7.6.13-3.22-.03-5.8,1.17-8.3,2.87Z"/>
          <path class="cls-1" d="M103.95,26.81c-1.24-.1-1.96-1.41-3.26-1.39.65-.77,1.54-.35,2.33-.46.68-.03,1.35.17,2,.25,2.11.27,4.17.03,6.26,1.49,4.47,3.13,9.34,5.72,14.66,7.31,1.07.32,2.38.02,3.17,1.12-1.67,1.03-3.16.19-4.66-.46-1.81-.03-3.36-.58-4.89-1.65-3.33-2.33-7.22-3.67-10.88-5.38-1.39-.65-3.14-.57-4.72-.82Z"/>
          <path class="cls-31" d="M124.45,34.67c1.58-.07,3.06.74,4.66.46.4.75,1.46.18,1.86.92-2.2-.35-4.76.96-6.52-1.39Z"/>
          <path class="cls-20" d="M56.89,18.95c-2.4,1.68-5.2,2.71-7.45,4.62-.78-.04-1.32.49-1.81.93-4.72,4.24-10.67,5.03-16.59,6.04-4.02.68-7.99,1.32-11.89-.49,2.86,0,5.71.07,8.55-.44.73-.13,1.37-.22,1.7-.95,1.65-1.65,3.88-1.29,5.87-1.5,2.54-.27,4.58-1.35,6.8-2.48,3.88-1.97,6.39-5.45,9.88-7.8.99-.53,1.75-1.32,2.53-2.11.29-.26.6-.64.95-.63,2.22.1,4.19-.58,6.14-1.57.85-.43,1.75,0,2.57.61,1.06.78,1.86,1.86,3,2.53h0c0,.15,0,.31,0,.46-2.8-.09-5.04,1.52-7.52,2.42-.88.32-1.78.55-2.73.35Z"/>
          <path class="cls-18" d="M28.94,24.04c1.57-1.55,3.6-2.22,5.66-2.76,2.31-.6,4.11-1.85,5.53-3.72.3-.62.77-1.09,1.4-1.39,1.62-.64,3.01-1.79,4.8-2.05.77-.11,1.04-.8,1.31-1.45.76-1.85,1.05-3.79,1.34-5.74.24-2.56,1.55-3.75,4.19-3.24,3.81.99,6.77,3.27,9.13,6.27.73.92,1.98,1.58,2.05,2.97-2.2-.25-2.84-2.48-4.47-3.44-.46-.4-.86-.87-1.36-1.23-1.98-1.47-3.26-1.14-4.33,1.11-.88,1.84-1.38,3.91-3.2,5.18-1.84.44-2.76,2.19-4.34,3.01-2.8,2.3-6.24,3.62-9.38,5.28-2.29,1.22-5.39,1.88-8.33,1.19Z"/>
          <path class="cls-28" d="M52.24,17.1c-3.38,3.75-7.48,6.65-11.71,9.33-1.09.69-2.55,1.2-4.1,1.18-2.37-.02-4.73.38-7.02,1.04-8.39,1.99-14.74-1.29-19.86-7.63-.58-.72-1.07-1.26-2.04-1.16.66-1.66,1.59-1.8,2.58-.33,1.11,1.66,3.06,2.23,4.41,3.56,4.02,3.73,8.73,4.52,14.08,3.8,3.54-.47,7.03-1.08,10.32-2.35,3.15-1.22,5.99-3.11,8.27-5.64,1.14-1.26,2.34-2.21,4.09-2.28.38.03.72.16.98.46Z"/>
          <path class="cls-22" d="M51.3,17.1c-1.68.28-2.75,1.29-3.95,2.49-1.97,1.97-4.24,3.96-6.78,4.97-3.22,1.28-6.57,2.36-10.2,2.65-3.82.31-7.4.45-11.14-.73-2.12-.67-3.47-1.81-4.73-3.38,2.01.69,3.45,2.27,5.62,2.93,4.11,1.26,7.91.36,11.85-.28,3.28-.53,6.17-1.8,8.77-3.84.61-.48,1.37-.6,2.17-.69,2.16-.25,3.41-1.53,3.75-3.67,1-1.58,2.02-3.15,4.19-3.24.72.83.83,1.76.47,2.77Z"/>
          <path class="cls-3" d="M69.01,16.64c.81-1.31,2.25-1.68,3.44-2.44,2.92-1.88,6.34-1.25,9.33-2.46,1.17-.47,1.65.56,2.29,1.14,2.07,1.88,2.89,1.81,4.04-.78,1.39-3.12,4.18-3.31,6.84-3.15,2.3.14,4.8.36,6.67,2.15-.13.39-.4.76-.77.79-3.93.24-6.59,3.18-9.94,4.67-2.72,1.2-5.33,1.46-8.08.8-1.3-.31-2.38-.24-3.54.36-2.04,1.04-4.13,1.37-6.09-.17-1.28-1.01-2.87-.26-4.19-.89Z"/>
          <path class="cls-26" d="M69.01,16.64c1.78-.67,3.43-.66,4.99.63,1.95,1.62,3.86.55,5.58-.42,1.08-.61,1.88-.59,3.01-.23,2.63.83,5.21.75,7.83-.53,2.43-1.19,4.7-2.61,6.96-4.06,1.32-.84,2.96-.06,4.25-.94h0c.7.6,1.61.82,2.33,1.39.94.04,1.45.65,1.86,1.39-1.53-.3-2.85.36-4.19.93-1.69-1.05-3.01-.61-4.15.92-1.16,1.56-2.69,2.23-4.66,1.73-.76-.19-1.63-.13-2.28.19-2.19,1.1-4.47.87-6.77.68-.39-.03-.8-.06-1.14.11-3.84,1.91-7.71,1.27-11.6.21-1.48-.4-2.9.12-4.34.32l-8.85,2.77c-.31-.92-.62-1.85-.93-2.77,2.18-1.06,4.7-1.31,6.66-2.99,1.04-.89,2.37.29,3.59.21.49.68,1.22.4,1.86.46Z"/>
          <path class="cls-3" d="M103.95,12.48c-.96-.16-1.84-.46-2.33-1.39.96.16,1.84.46,2.33,1.39Z"/>
          <path class="cls-16" d="M60.16,9.24c1.81.77,2.47,2.83,4.19,3.7,1.12.74,2.05,1.67,2.8,2.77-1.51-.17-2.14-1.64-3.37-2.27-1.08-.55-1.99-.72-2.98.01-1.33.98-2.64,1.79-4.42.97-.71-.33-1.17.59-1.81.82-.11-1.89,2.22-5.71,3.84-6.29.64-.23,1.21-.1,1.75.28Z"/>
          <path class="cls-6" d="M50.84,2.31c-1.09-.1-2.3.57-3.26-.46-.38,0-.73-.09-.93-.46,1.47-.01,2.86.35,4.19.93Z"/>
          <path class="cls-30" d="M66.68,18.95c1.51-1.35,3.2-1.46,5.01-.72,3.29,1.34,6.6,1.38,9.86-.04.64-.28,1.21-.81,1.91-.59,2.81.88,5.47.42,8.07-.79.14-.06.33-.16.44-.11,2.89,1.16,4.58-.54,6.18-2.5,1.48-1.82,2.55-1,3.47.59,0,.67-.31,1.13-.93,1.39-1.67-.43-2.88.39-4.01,1.43-1.51,1.39-2.98,2.95-5.01.66-.19-.22-.79-.3-1.09-.17-3.27,1.43-6.9.9-10.3,1.95-1.93.6-4.38-.27-6.62-.18-1.63-.89-3.41-.07-5.1-.45-.64-.14-1.38.17-1.89-.48Z"/>
          <path class="cls-2" d="M48.97,6.93c1.03,2.73-.07,5.44-1.5,7.28-1.06,1.36-3.9,1.36-5.95,1.97,1.46-1.07,2.68-2.42,4.25-3.4,1.04-.65,1.66-1.91,1.86-3.28.14-.96.59-1.87,1.35-2.57Z"/>
          <path class="cls-13" d="M60.16,9.24c-2.64-.41-3.04,2.15-4.39,3.39-.65.6-.82,1.73-1.2,2.62-.58.86-1.15,1.74-2.33,1.85-.31,0-.62,0-.93,0-.56-.86-.48-1.82-.47-2.77,1.24-1.47,1.99-3.21,2.74-4.95,1.35-3.15,3.2-3.54,5.72-1.2.33.31.57.71.86,1.07Z"/>
        </g>
      </g>
    </g>
  </g>
</svg>