<?xml version="1.0" encoding="UTF-8"?>
<svg xmlns="http://www.w3.org/2000/svg" viewBox="0 0 382.43 101.68">
  <defs>
    <style>
      .cls-1 {
        fill: #d3e9f8;
      }

      .cls-1, .cls-2, .cls-3, .cls-4, .cls-5, .cls-6, .cls-7, .cls-8, .cls-9, .cls-10, .cls-11, .cls-12, .cls-13, .cls-14, .cls-15, .cls-16, .cls-17, .cls-18, .cls-19, .cls-20, .cls-21, .cls-22, .cls-23, .cls-24, .cls-25, .cls-26, .cls-27, .cls-28, .cls-29, .cls-30, .cls-31, .cls-32, .cls-33, .cls-34, .cls-35, .cls-36, .cls-37, .cls-38, .cls-39 {
        stroke-width: 0px;
      }

      .cls-2 {
        fill: #e9f5fc;
      }

      .cls-3 {
        fill: #dff1fb;
      }

      .cls-4 {
        fill: #d7e9f7;
      }

      .cls-5 {
        fill: #d1e8f8;
      }

      .cls-6 {
        fill: #ecf7fd;
      }

      .cls-7 {
        fill: #cbe5f6;
      }

      .cls-8 {
        fill: #d4eaf8;
      }

      .cls-9 {
        fill: #f7fbff;
      }

      .cls-40 {
        mix-blend-mode: multiply;
      }

      .cls-10 {
        fill: #c2e0f5;
      }

      .cls-11 {
        fill: #f3f8fc;
      }

      .cls-12 {
        fill: #d1e8f7;
      }

      .cls-13 {
        fill: #e8f1f9;
      }

      .cls-14 {
        fill: #cde5f7;
      }

      .cls-15 {
        fill: #e1f1fb;
      }

      .cls-16 {
        fill: #e4f1fb;
      }

      .cls-17 {
        fill: #d8ebf8;
      }

      .cls-18 {
        fill: #e9f2fa;
      }

      .cls-19 {
        fill: #ecf4fb;
      }

      .cls-20 {
        fill: #e1f0fa;
      }

      .cls-21 {
        fill: #c5e2f6;
      }

      .cls-22 {
        fill: #e6f2fb;
      }

      .cls-23 {
        fill: #e5f3fb;
      }

      .cls-24 {
        fill: #cfe6f7;
      }

      .cls-25 {
        fill: #cae3f6;
      }

      .cls-26 {
        fill: #ddeffa;
      }

      .cls-27 {
        fill: #d0e7f7;
      }

      .cls-28 {
        fill: #e4f3fb;
      }

      .cls-29 {
        fill: #d9ebf8;
      }

      .cls-30 {
        fill: #dbeffb;
      }

      .cls-41 {
        isolation: isolate;
      }

      .cls-31 {
        fill: #d3e7f7;
      }

      .cls-32 {
        fill: #e7f4fc;
      }

      .cls-33 {
        fill: #cfe8f8;
      }

      .cls-34 {
        fill: #c9e4f6;
      }

      .cls-35 {
        fill: #e1f3fc;
      }

      .cls-36 {
        fill: #d5e8f7;
      }

      .cls-37 {
        fill: #daeefa;
      }

      .cls-38 {
        fill: #dbedf9;
      }

      .cls-39 {
        fill: #deecf8;
      }
    </style>
  </defs>
  <g class="cls-41">
    <g id="Layer_2" data-name="Layer 2">
      <g id="_1-เมฆ1" data-name="1-เมฆ1">
        <g class="cls-40">
          <path class="cls-17" d="M38.72,53.03c-1.06,1.03-2.13,2.06-3.19,3.1,3.97,3.77,8.16,7.31,11.95,11.27,3.55,3.71,8.79,3.63,13.04,5.78,15.45,5.48,30.71,5.62,45.65-1.73,4.08-2.01,8.24-3.74,12.7-4.72,2.07-.45,4.3-1.1,5.57-2.7,4.09-5.17,10.33-6.83,15.68-9.94,1.23-.71,2.63-1.31,3.99-.97,5.1,1.28,10.41.86,15.52,2,8.29-.92,16.48,2.16,24.83.52,3.61-.71,7.3.35,10.89.94,10.39,1.71,20.85-1.07,31.2.72,8.84,1.53,18.03,1.11,26.47,4.79,1.73.53,3.45.69,5.15-.11,2.01-2.92-1.44-4.27-1.88-6.49-4.44-4.12-9.24-7.31-15.78-6.51-1.93.23-3.76-.66-5.51-1.45-5.48-2.46-11.12-2.75-16.85-1.16-3.73,1.03-7.52,1.38-11.35,1.36-4.1-.17-8.28.83-12.24-1.41-1.45-.82-3.57-.34-5,.71-3.24,2.37-6.44,1.43-9.95.71-6.17-1.27-11.96-2.99-16.88-7.21-1.56-1.34-3.59-2.88-6.15-2.25-3.27,3.89-7.16,5.21-12.51,5.55-6.36.4-12.65,2.71-17.62,7.79-3.94,4.04-8.69,7.19-14.91,7.73-4.28.37-8.01,3.18-12.22,4.29-9.09,5.13-18.92,6.66-29.15,5.45-6.55-.77-11.83-4.64-17.15-8.16-4.55-3.01-8.71-6.71-14.29-7.88Z"/>
          <path class="cls-6" d="M359.27,33.25c-4.79-7.93-11.65-13.58-19.91-17.67-17-10.1-35.18-15.8-55.22-14.56-2.23.14-4.5-.06-6.55,1.08.22,2.83,2.58,2.95,4.53,3.27,3.74.63,5.57,2.84,5.53,6.41-.05,4.28,1.89,7.23,5.41,9.41,1.79,1.11,3.34,2.48,4.49,4.28.97,1.52,2.29,2.85,4.13,2.89,7.2.16,12.77,3.97,18.45,7.67,4.31,2.81,10.48,2.14,13.84-1.75,2.15-2.49,4.36-4.94,6.28-7.62,3.16-4.42,4.03-4.54,8.25-1.25,1.1.86,2.18,1.73,3.18,2.69,1.24,1.09,2.45,2.21,3.63,3.36.83.77,1.64,1.59,2.7,2.07.46.09.89,0,1.26-.28Z"/>
          <path class="cls-36" d="M258.69,61.33h-5.24c.91,3.63,4.35,4.73,7.01,6.23,5.33,3,10.13,6.62,14.84,10.44,6.48,4.31,14.11,5.79,21.63,8.86-6.93.28-13.5.08-20.07.07-2.38,0-4.75-.22-7.12-.07-5.85.05-11.69-.3-17.54-.05-12.12-.07-24.25-.22-36.37-.05-9.76.21-19.52-.35-29.27.08-6.68.07-13.35-.35-20.03,0-15.15-.18-30.31-.24-45.46.07-.92.01-1.84-.04-2.76.08-.89.1-1.75.3-2.54.76-.21.2-.41.41-.61.62,1.57,1.65,3.61.97,5.45.98,72.57.04,145.14.04,217.71.05,14.06-3.23,25.85-10.79,37.25-19.13.71-.52,1.41-1.01,1.81-1.83-.04-.7-.38-1.32-.59-1.97-1.76-5.69-2.43-5.95-7.27-2.31-13.64,10.28-29.25,16.23-46.01,17.98-9.54.99-19.53-.71-28.4-5.22-5.87-2.98-11.9-5.7-17.44-9.32-2.21-1.45-4.73-2.71-7.25-2.7-4.39.01-8.02-1.76-11.73-3.57Z"/>
          <path class="cls-24" d="M25.09,64.45c-1.43.66-2.48,1.71-3.2,3.1,9.11,7.96,17.83,16.55,29.48,18.54-4.78-.34-10.73-.02-16.68-.22-3.05-.07-6.08-.21-9.13-.06-5.89-.23-11.78-.11-17.67-.14-2.47-.01-4.84.3-6.98,1.63-.17.03-.4,0-.5.11-.18.18-.28.44-.41.66,1.34.09,2.69.26,4.03.26,37.04.02,74.08.03,111.12.03,0,0,0-.03,0-.03-.99-3.46-3.23-1.82-5.15-1.36,10.36-4.5,20.28-10.68,32.39-9.96,1.37.08,2.69-.6,3.92-1.25,6.14-3.48,12.36-3.82,19.46-2.66,9.43,1.55,19.15,1.53,28.78,1.07.24-3.6-2.87-3.2-4.85-3.66-5.64-1.29-11.76-.51-16.93-3.91-7.03-3.18-13.72-2.99-21.58-1.39-15.66,3.19-30.34,8.56-45.02,14.42-8.69,3.47-18.08,2.54-27.22,3.26-10.79.85-19.99-3.2-29.3-7.58-6.46-3.03-12.86-6.09-18.71-10.22-1.76-1.24-3.77-1.73-5.87-.66Z"/>
          <path class="cls-29" d="M258.69,61.33c2.46,2.92,4.68,5.57,9.48,4.54,2.86-.61,6.07,1.12,8.76,2.73,7.87,4.72,15.71,9.61,24.55,12.22,13.99,4.12,27.97,3.68,41.67-1.64,10.33-4.01,20.8-7.77,29.05-15.59,1.43-1.35,2.46-.99,3.17.68.61,1.43,1.14,2.89,1.7,4.34-1.33,1.91-.35,3.52.66,5.12.46.4.94.42,1.44.07-.56-4.76-1.46-9.42-4.18-13.52-.96-3.16-2.46-3.52-5.78-2.35-6.33,2.22-9.95,8.15-16.04,10.52-10.7,4.17-21.23,8.98-33.2,4.7-3.99-1.43-8.33-.37-12.48-.93-9.06-1.21-17.85-3.17-25.42-8.68-3.14-.47-5.6-2.26-8.03-4.12-1.48-1.13-2.99-2.23-4.97-2.37-3.46.4-6.89.79-10.13-1.1-1.03-.6-2.31-.86-3.39.16-.11,2.42,2.4,3.28,3.14,5.2Z"/>
          <path class="cls-12" d="M25.09,64.45c5.05-.14,7.77,4.19,11.76,6.13,9.75,4.74,19.28,9.93,29.78,12.92,1.48.42,3.06.67,4.59.66,10.84-.08,21.79.6,32.39-2.17,4.99-1.3,9.65-3.79,14.54-5.51,10.55-3.71,20.74-8.7,32.26-9.06,1-.03,2.08-.42,2.97-.92,4.99-2.81,9.88-2.5,14.89.02,1.34.67,3,.72,4.51,1.05,5.29-.39,10.3,2.73,15.69,1.26-2.82-5.83-8.53-7.27-13.98-7.61-7.48-.47-14.92-3.49-22.55-.95-.95.32-1.98-.49-2.98-.76-4.25-.64-8.5-.05-12.23,1.75-7.49,3.62-15.53,6.2-22.39,11.02-3.65,2.56-7.74,3.86-11.95,4.99-4.2,3.46-9.32,2.06-14.07,2.58-.55.05-1.08.16-1.61.29-10.67.96-21.16-.13-31.01-4.25-7.14-2.99-14.11-6.51-19.92-11.92-1.68-1.56-3.76-3.16-6.5-2.64-.57,2.13-3.16,1.6-4.19,3.12Z"/>
          <path class="cls-26" d="M281.74,64.44c5.71,4.93,12.62,7.16,19.89,8.23,9.44,1.39,19.04,3.85,28.4,3.26,12.04-.76,24.22-3.37,33.01-13.17,2.4-2.67,6.31-2.49,9.05-4.79,1.24-1.04,1.59,1.86,2.9,2.31-.02-2.86-1.25-5.21-3.15-7.28-1.87-3.34-4.34-3.58-7.37-1.52-1.74,1.18-3.42,2.44-4.81,3.99-5.56,6.23-12.63,9.68-20.74,11.24-15.07,4.74-29.48.13-43.94-3.17-6.8-1.56-13.16-4.32-18.37-9.23-1.23-1.15-2.79-2.1-4.7-1.82-2.14,1.91,0,2.95.96,4.08,2.56,3.05,6.19,4.93,8.87,7.86Z"/>
          <path class="cls-35" d="M47.06,46.77c-1.53.86-3.42,1.25-4.19,3.12,6.14,8.21,14.75,12.84,24.14,16.31,1.33.49,2.73.23,4.13.17,6.24-.26,12.32-1.91,18.62-1.82,3.57.05,6.73-1.34,9-4.38,5.34-7.15,14.41-9.37,20.69-15.29.35-2.69-2.69-1.12-3.31-2.6-2.13-.29-4.03-1.44-6.19-1.61-3.67.11-5.79,2.65-8.19,4.92-8.69,8.24-19.35,12.04-31.14,12.02-6.72-.01-11.82-4.54-16.78-8.67-1.96-1.64-3.75-3.84-6.79-2.18Z"/>
          <path class="cls-30" d="M119.35,44.69c-.69.05-1.61-.16-2.04.19-6.49,5.28-15.1,7.86-20.14,14.81-1.84,2.54-4.12,3.4-6.4,3.45-7.26.16-14.47,2.5-21.49,1.94-7.37-.59-13.72-5.25-19.63-9.92-2.24-1.77-3.56-4.75-6.78-5.28-1.39,1.05-2.77,2.09-4.16,3.14,7.92,5.07,15.52,10.72,23.83,15.05,8.83,4.6,18.5,3.29,27.77.74,3.19-.88,6.85-1.36,9.13-4.37,5.65-3.49,11.25-6.99,17.39-9.67,3.35-1.47,4.25-5.15,4.36-8.74-.06-.51-.24-.98-.51-1.42-.47-.31-.91-.3-1.34.07Z"/>
          <path class="cls-28" d="M47.06,46.77c2.16-.29,3.52.97,4.98,2.3,12.78,11.62,20.72,12.77,36.93,5.99,5.71-2.39,11.77-4.18,15.26-10.17.97-1.67,3.29-3.05,5.69-3.31-3.83-3.09-13.43-3.1-16.85-.58-11.66,8.58-22.13,13.48-33.87,4.18-2.35-1.86-5.24-1.17-7.95-.48-1.66.17-3.13.73-4.19,2.08Z"/>
          <path class="cls-23" d="M369.74,48.85c-.75-4.27-4.06-7.01-6.29-10.4-1.32-1.55-2.2-3.65-4.72-3.69-3.22.99-4.93,3.72-6.83,6.1-8.24,10.29-19.51,12.67-31.88,12.3-.87-.03-1.72-.11-2.59.02-8.05-.6-16.08-.86-23.21-5.69-5.16-3.5-10.69-6.61-17.01-7.84-.19,4.41,2.36,8.1,7.08,9.16,3.5.79,6.32,2.6,9.39,4.19,14.56,7.53,29.74,10.99,46.06,6.24,3.81-1.11,6.54-3.81,9.75-5.79,3.95-2.63,8.17-4.93,11.27-8.64,1.65-1.97,2.85-1.1,4.06.41,1.59,1.28,2.08,4.03,4.92,3.64Z"/>
          <path class="cls-16" d="M120.4,44.69c0,.35,0,.69,0,1.04,4.35,3.06,6.87,2.91,10.31-.88,4.19-4.62,8.44-9.15,13.65-12.68,1.51-1.18,2.9-2.51,4.58-3.48,1.53-1.14,3.16-2.11,4.94-2.83.46-.19.89-.41,1.33-.64,6.51-3.78,13.64-3.93,20.82-3.26,3.49.33,5.16,3.27,6.88,5.87,4.09,6.18,5.44,6.43,11.48,1.91.97-.73,1.97-1.99,3.15-1.57,4.38,1.56,9.3-.06,13.34,1.7,5.67,2.46,11.92,3.98,16.69,8.31,1.75.34,3.42.48,4.29-1.55.03-.6-.15-1.12-.54-1.57-7.11-3.18-13.33-7.91-20.33-11.33-7.11-3.48-14.48-5.44-22.34-6.11-5.34-.45-10.56-1.18-16.02-.6-8.65.91-16.62,3.31-23.94,7.93-7.47,5.71-14.98,11.39-21.19,18.5-1.53,1.75-3.09,1.81-5,1.24-.7-.59-1.4-.6-2.1,0Z"/>
          <path class="cls-11" d="M148.69,24.94c6.57-2.09,12.48-5.77,19.67-6.52,17.85-1.86,34.49.76,49.96,10.23,4.15,2.54,7.57,6.78,13.13,6.68.24-.05.48-.1.72-.14,2.54-1.52,4.4-3.76,6.31-5.95,6.21-9.1,14.05-16.26,24.53-20.28,1.8-1.22,4-1.58,5.85-2.69,2.55-1.44,5.68-1.12,8.21-2.62.16-.18.32-.37.48-.55,9.76-2.01,19.59-1.84,29.15.59,7.4,1.88,15.09,2.81,21.65,7.96,2.6,2.04,7.17,2.98,11.01,3.92-9.53-7.65-20.58-12.36-32.46-14.17-11.78-1.79-23.68-2.11-35.7.47-13.92,2.99-23.45,11.6-32.11,21.68-2.61,3.04-5.03,6.59-8.34,8.45-3.89,2.18-6.5-2.55-9.69-4.06-9.02-4.29-17.49-9.7-27.77-11.02-14.17-1.82-28.02-1.85-41.01,5.19-1.36.74-2.96,1.18-3.58,2.83Z"/>
          <path class="cls-32" d="M51.25,44.69c5.43-1.71,8.44,3.06,12.51,4.84,6.35,2.77,11.82,2.92,18.19-.52,4.8-2.59,10.39-3.64,13.67-8.64.36-.55,1.61-.97,2.28-.8,3.96.99,8.22.2,12.03,2,2.1.35,4.19.69,6.29,1.04.35.41.71.39,1.06,0-13.99-5.54-28.47-6.57-43.12-3.85-7.73,1.44-15.26,3.92-22.89,5.93Z"/>
          <path class="cls-27" d="M378.12,73.8c-.35-1.73-.7-3.46-1.05-5.2-6.78,2.69-12.27,7.57-18.5,11.19-5.49,3.19-11.24,5.19-17,7.43-1.34.52-2.63.76-3.27,2.18,11.5,1.23,23.04,1.11,34.58,1.05-.49-2.84-2.87-2.11-4.67-2.44-4.24.22-8.54-.41-12.8.58,5.9-1.12,11.54-2.77,15.8-7.34,2.15-2.31,5.17-2.53,8.04-3.07.99-1.81-.36-3.01-1.14-4.37Z"/>
          <path class="cls-15" d="M369.74,48.85c-1.4-1.39-2.8-2.77-4.19-4.16-2.66-1.69-4.07.15-5.67,1.85-3.42,3.67-6.86,7.33-10.86,10.43-8.35,6.46-17.89,7.87-28.09,7.05-1.61-.13-3.83-1.45-4.81,1.26,3.25,4.22,8.18,3.27,12.44,3.5,3.53.19,7.25-.32,10.79-1.22,6.83-.44,12.55-3.47,17.68-7.71,2.65-2.19,5.15-4.56,7.62-6.95,2.49-2.41,4.82-2.07,7.19.1-.17-1.65-.74-3.1-2.1-4.16Z"/>
          <path class="cls-34" d="M35.54,87.32h19.23c-3.03-3.69-7.57-2.82-10.81-4.79-5.75-3.5-11.56-6.91-16.27-11.83-1.59-1.67-3.44-2.88-5.8-3.14-1.51.87-3.38,1.29-4.13,3.14,4.88,6.64,10.9,12.09,17.78,16.63Z"/>
          <path class="cls-31" d="M29.27,61.33c7.61,4.6,14.32,10.47,22.46,14.43,10.86,5.28,22.31,5.72,33.89,6.16.41.02.84-.55,1.25-.85-.17-2.71-2.59-2.75-4.19-2.8-10.24-.28-19.56-4.21-29.19-6.91-6.75-1.59-11.65-6.31-17.16-10-1.49-1-2.74-2.74-4.96-2.12-1,.39-1.72,1.06-2.1,2.07Z"/>
          <path class="cls-10" d="M.91,87.3c8.4,0,16.8,0,25.2.01-.92-5.63-8.83-12.26-13.69-11.47-4.87,2.79-7.71,7.6-11.51,11.46Z"/>
          <path class="cls-14" d="M379.17,77.96c-2.6-1.7-4.97-1.1-7.01.9-4.39,4.3-9.57,7.07-15.62,8.31-.92.19-1.73.91-2.47,2.23h13.57c2.19-1.35,4.61-2.29,6.78-3.7.88-.57,2.02-1.98,3.03-.44.81,1.25.36,2.66-.96,3.57-.83.58-1.96.7-2.59,1.61,2.67,1.98,5.63.61,8.5.99.3-2.12-1.85-2.61-2.17-4.1.82-3.26,1.13-6.45-1.06-9.37Z"/>
          <path class="cls-21" d="M12.43,75.85c6.43,1.63,9.89,6.75,13.69,11.47h9.43c.27-3.29-3.09-3.5-4.72-4.71-4.78-3.56-7.58-9.2-13.06-11.91-2.19,1.3-3.91,3.07-5.33,5.16Z"/>
          <path class="cls-4" d="M31.37,59.26c6.86,4.68,12.98,10.48,20.93,13.5,1.76-1.29,3.27.14,4.9.38,1.31.19,3.25,1.25,3.48-1.41-8.74-1.79-15.22-6.95-20.65-13.65-1.19-1.46-2.65-2.11-4.5-1.95-1.52.87-3.41,1.26-4.16,3.14Z"/>
          <path class="cls-34" d="M373.9,90.45c2.1-.36,5.32,1.14,5.23-2.93-.04-1.64.82-3.73-.77-4.82-1.94-1.34-2.97.9-4.29,1.81-2.22,1.53-5.19,2.08-6.42,4.9,1.77.26,3.78-.7,5.24,1.05h.51s.51,0,.51,0Z"/>
          <path class="cls-9" d="M297.78,100.14h-18.44c6.16,2.01,12.31,2.1,18.44,0Z"/>
          <path class="cls-36" d="M379.17,77.96c1.05,3.05,1.19,6.2,1.06,9.37,2.52-4.73.27-9.1-1.05-13.54-.35,0-.7,0-1.05,0,.35,1.39.7,2.77,1.05,4.16Z"/>
          <path class="cls-6" d="M359.26,35.33c1.4,1.04,2.79,2.08,4.19,3.12-.25-2.64-2.24-3.9-4.18-5.2-.35,0-.7,0-1.05,0-.5,1.11.24,1.62,1.05,2.08Z"/>
          <path class="cls-28" d="M117.26,42.61c-.35,0-.7,0-1.06,0,1.05.69,2.1,1.38,3.14,2.08.35,0,.7,0,1.05,0,.7,0,1.4,0,2.1,0-1.36-1.64-3.18-2.14-5.23-2.08Z"/>
          <path class="cls-8" d="M275.45,76.92c-6.09-6.93-15.04-9.88-22-15.59-3.18-2.47-6.41-4.6-10.83-3.2-1.05.33-2.4-.1-3.57-.36-10.81-2.39-21.64-3.51-32.73-1.8-3.13.48-6.64-.07-9.74-.96-8.94-2.58-18.18,1.53-27.19-1.63-2.95-1.03-6.73,1.09-10.22.68-1.87-.38-3.77-.61-5.68-.49-1.69.11-3.17.49-2.82,2.72,1.43,1.33,3.55,1.1,5.08,2.22,9.64,2.05,19.57,1.87,29.26,4.09,5.77,1.32,12.11.11,18.2.54,11.55.81,23.12.14,34.73,1.02,8.06.61,14.77,2.93,21.32,6.93,3.8,1.72,7.7,3.24,11.37,5.25,1.48.81,3.04,1.9,4.83.59Z"/>
          <path class="cls-38" d="M144.5,31.17c-5.86,1.92-9.55,6.73-13.1,11.06-3.33,4.07-6.34,5.34-11,3.49-.66,5.19-3.09,8.6-8.54,10.1-5,1.38-9.04,4.65-12.41,8.61,3.05-.07,5.69-1.39,8.4-2.58,1.41-.62,2.94-1.53,4.38-1.47,6.29.23,10.7-3.33,14.71-7.23,6.17-6,13.23-8.82,21.88-7.95,4.87.5,6.02-3.88,8.25-6.77.1-.99-.23-1.87-.71-2.71-.82-1.26-1.61-2.54-2.78-3.53-2.82-2.09-5.76-3.19-9.08-1.04Z"/>
          <path class="cls-8" d="M150.78,56.13c1.94-4.07,5.77-.66,8.38-2.08-7.66-.18-14.88-4.89-23.18.54-4.27,2.8-8.93,5-12.58,8.76-.57.59-1.47,1.02-2.29,1.21-9.87,2.22-18.61,7.54-28.32,10.2-6.91,1.9-13.83,1.48-20.62-.2-3.83-.95-8.14-.06-11.49-2.84-2.45,3.07-5.93-2.03-8.38,1.04,7.08,1.94,14.18,3.84,21.24,5.85,4.37,1.24,9.27-.37,13.33,2.47.35,0,.7,0,1.05,0,1.52-1.14,3.63.03,5.1-1.3,3.84-2.22,8.42-2.03,12.4-3.84,9.94-4.51,19.79-9.19,28.71-15.52,3.59-2.55,7.65-1.88,11.54-2.43,1.89-.27,3.88.07,5.11-1.86Z"/>
          <path class="cls-37" d="M156.02,36.37c.02.86.2,1.63,1.05,2.08,3.69,2.77,7.75,6.13,11.55,7.34,6.67,2.11,13.83,7.17,21.46,2.07,1.34-.9,3.37-1.34,4.35-.56,3.75,2.99,7.88,1.46,11.87,1.55,2.12-.78,4.28-.96,6.56-.98,2.02-.02,4.88-.15,3.55-3.72-1.59-.95-3.39-1-5.09-.79-10.72,1.31-20.85-2.33-31.26-3.62-1.61-.2-3.23-.44-4.54.55-3.63,2.73-6.47,1.2-9.25-1.39-2.33-2.17-4.94-3.88-8.25-4.13-1.04-.08-2.16.07-2.02,1.61Z"/>
          <path class="cls-38" d="M216.78,44.69c-1.13,1.95-2.67,2.89-5.04,2.29-2.17-.55-3.98.23-5.44,1.87,4.17.72,8.22-.11,12.17-1.19,2.56-.7,5.29-1.59,7.64-.78,9.73,3.36,21.07,1.66,29.43,9.25,4.42,1.47,8.61,4.38,13.62,2.08.37-2.93-1.86-4.15-3.91-4.32-5.09-.43-8.83-3.29-12.75-5.95-6.77-1.95-12.81-6.38-20.29-5.98-3.57.32-7.14.57-10.73.54-1.89-.02-3.83,0-4.7,2.2Z"/>
          <path class="cls-6" d="M352.98,28.06c-.94-1-1.78-2.1-2.82-2.97q-6.59-5.57-11.3,1.7c-5.15,7.95-12.62,12.25-16.94,8.84-3.64-2.88-7.96-4.11-11.6-6.7-1.73-1.24-3.63-2.31-5.8-1.82-3.24.72-4.29-1.54-6.47-3.15-6.06-4.48-9.08-9.74-10.51-17.01-.88-4.46-6.74-2.11-9.99-3.83h0c-.55.88-2.29.11-2.34,1.67,3.61,4.2,4.48,9.67,6.71,14.51,1.43,3.09,3.36,5.62,6.1,7.61,3.92,2.86,7.69,6.34,11.87,8.37,6.31,3.07,12.58,7.07,19.09,8.79,8.49,2.24,17.67.41,25.28-5.14,1.99-1.45,3.72-3.39,4.15-5.83.49-2.8,2.22-4.09,4.57-5.02Z"/>
          <path class="cls-19" d="M352.98,28.06c-3.23-1.13-4.83-1.3-5.53,3.35-1.17,7.69-8.13,9.61-14.75,11.06-2.69.59-5.47.87-8.22,1.13-3.37.32-6.48-.07-9.26-2.5-3.08-2.7-6.22-5.58-10.99-4.88-.89.13-2.2-.42-2.85-1.1-4.33-4.56-10.23-7.03-14.83-11.17-3.36-3.02-4.6-7.31-5.72-11.39-.97-3.5-2.29-6.42-5.37-8.42-2.4.67-4.96.19-7.33,1.04-1.3,1.77-4.5.41-5.24,3.12,3.77,1.41,7.79,2.53,8.52,7.39.37.78,1.02,1.49,1.17,2.31,1.75,9.21,8.89,14.01,15.69,19.11,1.46,1.1,2.7,2.47,4.28,3.41,6.26,2.53,12.55,4.99,18.92,7.25.66.23-.19.07.49.16,12.22,1.66,23.98.15,34.79-5.9,4.27-2.39,5.23-8.08,9.38-10.86-.68-1.4-1.73-2.44-3.14-3.12Z"/>
          <path class="cls-2" d="M356.12,31.17c-3.52-.34-4.75,2.19-6.06,4.69-3.55,6.77-10.65,10.37-18.39,9.13-1.76-.28-3.04.38-4.43,1.01-5.73,2.59-11.25,2.08-17.11-.1-5.94-2.21-11.59-5.28-17.92-6.42.2,4.64,4.2,6.34,7.35,7.68,5.83,2.49,11.8,4.73,17.79,6.87,14.67,1.86,27.39-1.43,36.7-13.7,1.47-1.94,3.05-3.77,5.2-5.02-.35-.69-.7-1.39-1.05-2.08-.4-.99-1.1-1.68-2.1-2.08Z"/>
          <path class="cls-7" d="M252.4,88.36h17.81c.16-3.01-2.23-3.69-4.33-4.28-5.87-1.65-11.72-3.23-17-6.46-2.35-1.44-5.05-.94-7.66-.51-4.54.75-8.97.65-13.29-1.35-5.06-2.35-10.43-.78-15.44-.09-6.88.94-13.65,1.09-20.21-.58-11.81-3.01-23.83-.62-35.68-2.09-1.86-.23-4.04.08-3.53,3.02,10.36,2.96,20.81,5.46,31.68,5.23,3.34-.07,6.6-.07,9.84.78,14.11.79,28.08,3.43,42.34,2.53,5.31-.33,10.5,1.79,15.49,3.8Z"/>
          <path class="cls-14" d="M152.88,75.88c.58-1.15,1.46-2.27,2.79-1.89,5.58,1.57,11.01.63,16.64-.02,8.53-.99,16.78,2.11,25.15,3.38,4.18.63,8.2.42,12.38.08,6.86-.55,13.77-2.96,20.7.88,3.27,1.81,7.52,1.08,11.27.17,2.86-.7,5.31-.68,7.88,1.14,4.56,3.25,10,4.43,15.38,5.62,2.08.46,4.06,1.05,5.14,3.12,2.44,0,4.89,0,7.33,0,1.33-2.37-.68-3.07-2.11-3.85-2.29-1.25-4.47-2.85-6.9-3.67-6.93-2.34-12.85-6.83-19.9-8.88-4.65.35-9.36-.11-13.89-.57-11.97-1.22-23.72,1.27-35.58,1.21-1.54,0-3.14.04-4.38,1.21-10.94-2.11-22.22-.02-33.15-2.94-5.79-1.54-11.16.91-16.09,3.98,1.97,1.66,4.31,1.71,6.7,1.52.21-.16.42-.32.63-.48Z"/>
          <path class="cls-34" d="M119.36,88.34c15.71,0,31.42,0,47.13.01.81-3.31,2.71-4.73,6.26-3.96,4.65,1.01,9.32,1.88,13.65,3.96,9.78,0,19.56,0,29.33,0,.17-3.01-2.19-3.71-4.32-4.15-3.52-.74-6.99-1.9-10.72-1.49-2.58.28-5.19.07-7.5-1.41-11.42-.05-22.79-.62-33.94-3.39-4.31-1.07-8.62,0-12.89.63-8.22,1.22-16.35,2.79-23.99,6.21-1.58.71-3.31,1.32-3.02,3.59Z"/>
          <path class="cls-27" d="M249.26,72.76c7.52,5.5,16.78,7.62,24.67,12.43,1.43.87,3.43.94,3.62,3.16h23c.14-.4.28-.8.42-1.2-8.16-4.19-17.58-5.58-25.52-10.24-5.56-1.29-9.67-6.15-15.71-6.24-3.37-2.7-7.43-4.17-11.54-4.29-6.82-.19-13.35-1.93-20.04-2.78-4.26-.54-7.95.07-10.56,3.84-.03,1.29.84,1.99,1.91,1.99,3.67,0,7.16,1.4,10.75,1.48,6.4.14,12.74.45,19,1.84Z"/>
          <path class="cls-34" d="M193.73,82.12c2.31,3.65,5.92,1.63,8.97,1.99,4.64.55,9.55.21,13.03,4.25,12.22,0,24.44,0,36.67,0-4.03-4.65-10.06-5.42-15.23-5.38-11.65.09-23.18.34-34.63-2.3-2.42-.56-5.16.23-7.75.4-.59.11-.93.47-1.05,1.04Z"/>
          <path class="cls-25" d="M193.73,82.12c.35-.35.7-.69,1.05-1.04-3.15-1.33-6.2-1.85-9.81-1.3-7.07,1.07-13.98-1.11-20.87-2.5-3.72-.75-7.38-1.76-11.23-1.4-8.35-.24-16.37,2.05-24.54,3.14-3.93.52-7.05,2.86-10.29,4.82-1.63.99-2.1,2.72-.78,4.49.7,0,1.4,0,2.1,0,3.37-3.91,8.81-4.94,12.9-5.66,10.66-1.87,21.13-4.98,32.75-2.2,9.03,2.16,19.02,3.36,28.72,1.64Z"/>
          <path class="cls-7" d="M117.26,88.33c.89-3.87,7.56-7.65,13.12-8.39,7.55-1,15-2.68,22.49-4.06-2.41-.6-4.79-1.37-7.33-1.04-5.39,1.99-11.24.96-16.8,2.59-2.6.76-5.43.99-7.49,2.78-3.68,3.19-8.64,3.9-12.99,6.49,2.53,1.33,5.12-.38,6.89,1.64.7,0,1.4,0,2.1,0Z"/>
          <path class="cls-34" d="M186.4,88.35c-2.69-4.79-8.2-3.11-12.11-5.12-.83-.43-2.05-.06-3.08-.14-5.71-.45-6.04-.09-4.72,5.26,6.63,0,13.27,0,19.9,0Z"/>
          <path class="cls-33" d="M249.26,72.76c-3.64-2.22-7.58-3.43-11.86-3.1-6.67.53-13.03-1.61-19.57-2.1-4.09-2.82-8.78-1.48-13.15-1.55-5.46-.09-11.04.23-16.18,2.59-3.48-.69-6.93-1.56-10.44-2-1.73-.22-3.78-.73-5.28.96,4.55,4.77,10.82,2.91,16.29,4.13,2.02.45,4.09.65,5.71,2.11,7.84-.38,15.84,1.48,23.48-1.7,1.37-.57,2.68.06,4.03.17,8.97.73,17.96,1.24,26.97.49Z"/>
          <path class="cls-39" d="M252.4,48.85c3.17,2.82,6.14,5.7,11,5.66,2.25-.02,4.72,1.12,5.76,3.7,2.98.37,4.67,2.85,6.86,4.41,1.84,1.32,3.55,1.99,5.72,1.83-.03-4.86-5.6-4.8-7.44-8.17-.64-1.18-2.38-1.82-3.04-3.26.41-1.24-.41-2.02-1.25-2.52-5.08-3.01-9.64-7-15.67-8.25-2.21,1.75-2.81,3.97-1.94,6.61Z"/>
          <path class="cls-5" d="M188.5,68.6c9.77-.63,19.52-1.56,29.33-1.04,6.21-4.42,12.79-2.73,19.18-.78,2.78.85,5.46.75,8.19.75,5.09,0,9.8,1.6,14.53,3.15-5.18-4.48-10.8-8.07-18.02-7.67-3.89.21-7.78.46-11.38-1.13-2.63-1.16-5.17-.38-7.65-.15-12.37,1.11-24.83.2-37.02-.65-7.61-.53-15.83-.67-23.32-3.19-2.24-.76-4.43.95-6.32-.71-3.23-.77-5.51.64-7.33,3.12,1.07,1.23,2.4,2.25,4.05,1.58,5.81-2.37,11.43.35,17.09.29,7.25-.07,13.03,2.64,18.67,6.45Z"/>
          <path class="cls-1" d="M148.69,60.29c2.79-.23,4.41-3.18,7.33-3.12-1.47-1.73-3.47-.79-5.24-1.04-1.53-.07-3.05.38-4.5.57-4.73.6-9.37.07-14.07,3.35-10.06,7.03-21.01,12.86-32.96,16.44-2.42.72-5.34.05-7.13,2.51,3.76,2.31,7.1.44,10.48-1.04,4.07-.08,7.55-1.3,11-3.72,7.49-5.25,16.23-8.24,24.47-12.11,3.14-1.47,7.06-1.28,10.62-1.85Z"/>
          <path class="cls-31" d="M102.59,77.96c-3.54-.15-6.89,1.67-10.48,1.04-.9,1.68-3.29.39-4.19,2.08,4.94-.78,10.69,2.16,14.67-3.12Z"/>
          <path class="cls-20" d="M254.5,42.61c5.4,3.77,11.7,6.1,16.76,10.4,1.76-.1,2.98,1.1,4.07,2.08,10.61,9.54,24,11.32,37.3,13.58,9.04,1.54,17.97,2.97,26.73-1.1-6.42,0-12.84.16-19.21-.99-1.64-.29-3.08-.49-3.83-2.13-3.71-3.7-8.73-2.89-13.2-3.37-5.7-.62-10.3-3.04-15.3-5.58-8.72-4.43-14.38-12.26-22.21-17.53-2.22-1.19-3.94-2.98-5.68-4.74-.65-.59-1.35-1.45-2.14-1.41-4.99.22-9.42-1.3-13.8-3.54-1.9-.97-3.93.01-5.77,1.37-2.39,1.76-4.18,4.18-6.76,5.69h0c0,.35,0,.69,0,1.04,6.29-.19,11.34,3.42,16.91,5.44,1.98.72,4,1.23,6.14.79Z"/>
          <path class="cls-18" d="M317.36,54.05c-3.53-3.49-8.1-5-12.72-6.2-5.2-1.35-9.25-4.16-12.43-8.36-.68-1.4-1.73-2.44-3.14-3.12-3.63-1.45-6.76-4.02-10.79-4.62-1.73-.26-2.35-1.79-2.95-3.26-1.7-4.15-2.36-8.53-3.02-12.91-.54-5.75-3.48-8.43-9.43-7.28-8.56,2.24-15.23,7.36-20.54,14.11-1.63,2.08-4.45,3.56-4.61,6.69,4.94-.56,6.38-5.58,10.06-7.74,1.04-.89,1.94-1.95,3.05-2.77,4.44-3.3,7.32-2.56,9.75,2.5,1.98,4.13,3.11,8.79,7.19,11.64,4.14.99,6.21,4.93,9.76,6.76,6.3,5.18,14.02,8.13,21.08,11.87,5.16,2.73,12.13,4.23,18.73,2.68Z"/>
          <path class="cls-28" d="M264.97,38.45c7.6,8.44,16.82,14.96,26.32,20.99,2.46,1.56,5.73,2.69,9.22,2.66,5.33-.05,10.63.85,15.79,2.35,18.86,4.48,33.15-2.91,44.66-17.16,1.32-1.63,2.41-2.82,4.58-2.6-1.49-3.73-3.58-4.06-5.8-.73-2.5,3.73-6.88,5.02-9.91,8.01-9.04,8.38-19.64,10.15-31.65,8.54-7.97-1.07-15.8-2.42-23.21-5.28-7.08-2.74-13.46-7-18.59-12.68-2.57-2.84-5.25-4.96-9.2-5.13-.86.08-1.62.35-2.2,1.02Z"/>
          <path class="cls-22" d="M267.07,38.45c3.78.63,6.18,2.9,8.89,5.6,4.43,4.43,9.54,8.91,15.24,11.18,7.23,2.88,14.78,5.31,22.94,5.96,8.58.69,16.63,1.02,25.05-1.64,4.77-1.51,7.81-4.08,10.64-7.59-4.51,1.56-7.75,5.1-12.63,6.6-9.24,2.83-17.78.8-26.64-.62-7.38-1.19-13.88-4.04-19.71-8.63-1.36-1.07-3.09-1.35-4.88-1.56-4.86-.57-7.67-3.44-8.42-8.26-2.26-3.56-4.53-7.09-9.43-7.28-1.63,1.87-1.87,3.96-1.05,6.24Z"/>
          <path class="cls-3" d="M227.26,37.41c-1.82-2.95-5.05-3.77-7.74-5.49-6.56-4.22-14.27-2.8-20.99-5.53-2.63-1.07-3.7,1.26-5.15,2.57-4.67,4.22-6.49,4.07-9.08-1.76-3.12-7.02-9.41-7.45-15.38-7.09-5.18.31-10.8.82-15,4.83.29.87.89,1.72,1.73,1.77,8.85.54,14.82,7.16,22.36,10.49,6.11,2.7,11.99,3.29,18.16,1.8,2.92-.71,5.35-.54,7.97.8,4.58,2.35,9.29,3.09,13.7-.38,2.87-2.26,6.45-.59,9.42-2.01Z"/>
          <path class="cls-26" d="M227.26,37.41c-3.99-1.51-7.7-1.49-11.21,1.42-4.38,3.63-8.68,1.23-12.55-.95-2.43-1.37-4.22-1.32-6.77-.52-5.92,1.87-11.72,1.69-17.61-1.19-5.47-2.68-10.56-5.88-15.65-9.12-2.97-1.89-6.66-.14-9.55-2.11h0c-1.57,1.34-3.63,1.85-5.24,3.12-2.12.08-3.27,1.45-4.19,3.12,3.45-.67,6.42.8,9.43,2.08,3.79-2.35,6.77-1.37,9.32,2.07,2.6,3.52,6.04,5.02,10.48,3.89,1.72-.43,3.67-.3,5.12.43,4.93,2.47,10.05,1.95,15.21,1.54.87-.07,1.79-.14,2.57.24,8.63,4.3,17.34,2.85,26.09.46,3.32-.9,6.53.27,9.77.72,6.63,2.08,13.27,4.16,19.91,6.24.7-2.08,1.4-4.16,2.09-6.24-4.91-2.38-10.56-2.94-14.97-6.71-2.34-2-5.33.66-8.08.48-1.1,1.52-2.74.89-4.19,1.04Z"/>
          <path class="cls-3" d="M148.69,28.06c2.16-.36,4.13-1.02,5.24-3.12-2.16.36-4.13,1.02-5.24,3.12Z"/>
          <path class="cls-16" d="M247.16,20.78c-4.08,1.73-5.55,6.37-9.43,8.32-2.51,1.67-4.61,3.75-6.28,6.24,3.4-.39,4.8-3.7,7.59-5.11,2.44-1.24,4.47-1.62,6.69.03,2.98,2.21,5.94,4.03,9.95,2.19,1.61-.74,2.64,1.33,4.06,1.85.24-4.26-5-12.84-8.64-14.14-1.43-.51-2.73-.23-3.93.62Z"/>
          <path class="cls-6" d="M268.12,5.18c2.46-.22,5.17,1.29,7.33-1.04.86-.02,1.64-.2,2.1-1.04-3.3-.03-6.42.78-9.43,2.08Z"/>
          <path class="cls-30" d="M232.5,42.61c-3.39-3.04-7.19-3.29-11.27-1.62-7.4,3.02-14.83,3.11-22.17-.08-1.43-.62-2.72-1.83-4.3-1.33-6.33,1.97-12.3.95-18.14-1.77-.31-.14-.73-.35-.99-.25-6.49,2.62-10.29-1.21-13.9-5.62-3.34-4.08-5.74-2.25-7.81,1.32,0,1.5.7,2.54,2.1,3.12,3.75-.97,6.47.88,9.01,3.22,3.39,3.13,6.7,6.63,11.27,1.49.43-.49,1.79-.67,2.44-.39,7.35,3.21,15.52,2.02,23.16,4.39,4.34,1.35,9.86-.6,14.88-.41,3.66-2,7.67-.17,11.46-1.01,1.43-.32,3.11.39,4.26-1.07Z"/>
          <path class="cls-2" d="M272.31,15.58c-2.31,6.14.15,12.24,3.38,16.37,2.39,3.06,8.77,3.06,13.38,4.42-3.29-2.41-6.03-5.44-9.56-7.65-2.33-1.46-3.73-4.29-4.18-7.36-.31-2.17-1.33-4.21-3.03-5.78Z"/>
          <path class="cls-13" d="M247.16,20.78c5.94-.92,6.84,4.83,9.87,7.63,1.47,1.36,1.83,3.89,2.7,5.89,1.3,1.93,2.58,3.91,5.24,4.16.7,0,1.4,0,2.09,0,1.25-1.93,1.07-4.1,1.05-6.24-2.78-3.31-4.48-7.21-6.16-11.13-3.03-7.08-7.19-7.95-12.87-2.7-.75.69-1.29,1.59-1.93,2.4Z"/>
        </g>
      </g>
    </g>
  </g>
</svg>