<?xml version="1.0" encoding="UTF-8"?>
<svg id="Layer_2" data-name="Layer 2" xmlns="http://www.w3.org/2000/svg" xmlns:xlink="http://www.w3.org/1999/xlink" viewBox="0 0 342.17 279.91">
  <defs>
    <style>
      .cls-1 {
        fill: #67ab97;
      }

      .cls-1, .cls-2, .cls-3, .cls-4, .cls-5, .cls-6, .cls-7, .cls-8, .cls-9, .cls-10 {
        stroke-width: 0px;
      }

      .cls-11 {
        stroke-width: 30.3px;
      }

      .cls-11, .cls-12, .cls-13, .cls-14, .cls-15 {
        fill: none;
        stroke-linecap: round;
        stroke-linejoin: round;
      }

      .cls-11, .cls-13, .cls-14 {
        stroke: #293c94;
      }

      .cls-2 {
        fill: #20989f;
      }

      .cls-3 {
        fill: #293895;
      }

      .cls-4 {
        fill: #2ab5b6;
      }

      .cls-5 {
        fill: url(#linear-gradient);
      }

      .cls-6 {
        fill: #ffc40d;
      }

      .cls-7 {
        fill: #84c99b;
      }

      .cls-12 {
        stroke: #6cb6b0;
      }

      .cls-12, .cls-15 {
        stroke-width: 2.29px;
      }

      .cls-13 {
        stroke-width: 25.14px;
      }

      .cls-8 {
        fill: url(#linear-gradient-2);
      }

      .cls-9 {
        fill: url(#linear-gradient-3);
      }

      .cls-14 {
        stroke-width: 27.12px;
      }

      .cls-15 {
        stroke: #8fd2cd;
      }

      .cls-10 {
        fill: #fff;
      }
    </style>
    <linearGradient id="linear-gradient" x1="41.37" y1="136.23" x2="215.77" y2="170.1" gradientUnits="userSpaceOnUse">
      <stop offset=".05" stop-color="#26a9e0"/>
      <stop offset=".99" stop-color="#7fc35f"/>
      <stop offset="1" stop-color="#fff"/>
    </linearGradient>
    <linearGradient id="linear-gradient-2" x1="42.46" y1="130.65" x2="216.86" y2="164.52" gradientUnits="userSpaceOnUse">
      <stop offset="0" stop-color="#26a9e0"/>
      <stop offset=".19" stop-color="#27a9dd"/>
      <stop offset=".28" stop-color="#2caad6"/>
      <stop offset=".35" stop-color="#35adc9"/>
      <stop offset=".4" stop-color="#41b1b7"/>
      <stop offset=".45" stop-color="#52b59f"/>
      <stop offset=".5" stop-color="#66bb83"/>
      <stop offset=".54" stop-color="#7dc261"/>
      <stop offset=".54" stop-color="#7fc35f"/>
    </linearGradient>
    <linearGradient id="linear-gradient-3" x1="45.44" y1="115.29" x2="219.84" y2="149.16" gradientUnits="userSpaceOnUse">
      <stop offset="0" stop-color="#26a9e0"/>
      <stop offset=".69" stop-color="#7fc35f"/>
      <stop offset=".98" stop-color="#fff"/>
    </linearGradient>
  </defs>
  <g id="_1-Logo_-cover" data-name="1-Logo -cover">
    <g>
      <g>
        <path class="cls-4" d="M61.54,219.76c30.95,6.53,53.7,22.89,50.8,36.54-2.86,13.68-30.29,19.46-61.26,12.94-30.96-6.52-53.75-22.91-50.84-36.57,2.89-13.65,30.29-19.46,61.29-12.91Z"/>
        <path class="cls-15" d="M6.92,232.77s48.28-5.86,98.55,22.7"/>
        <path class="cls-2" d="M94.31,183.98c21.38,33.2,26.82,67.78,12.16,77.21-14.65,9.48-43.87-9.84-65.2-43.02-21.41-33.23-26.82-67.78-12.18-77.19,14.65-9.48,43.84,9.81,65.22,43Z"/>
        <path class="cls-12" d="M29.09,144.04s56.39,43.31,78.95,111.43"/>
        <path class="cls-12" d="M26.37,181.4c16.38,9.88,43.58,4.73,43.58,4.73,0,0,4.78-11.85,1.42-27.15"/>
        <path class="cls-15" d="M33.48,234.01s-8.57,9.87-18.85,16.38"/>
        <path class="cls-15" d="M22.73,221.71s8.85,3.49,10.75,10.56"/>
        <path class="cls-15" d="M53.91,237.77s-9.86,18-20.42,23"/>
        <path class="cls-12" d="M53.91,166.07s.86-13,0-19.14"/>
        <path class="cls-12" d="M24.06,163.64s20.93,5.43,28.85,3.43"/>
        <path class="cls-12" d="M81.63,202.24s-27.43,9.04-42.86,0"/>
        <path class="cls-12" d="M84.33,173.22s2.88,15.03-2.7,27.86"/>
        <path class="cls-12" d="M50.91,223.91s19.71,8.36,40.42-2.2"/>
        <path class="cls-12" d="M96.19,194.11s2.19,17.96-3.41,26.52"/>
        <path class="cls-12" d="M72.58,243.87s15.04,7.89,30.32-2.19c0,0,7.14-6.76,4.29-24.62"/>
      </g>
      <path class="cls-3" d="M278.28,245.9l-161.9,33.67c-11.01,2.29-22.89-7.06-26.53-20.89L36.37,55.37c-3.64-13.83,6.8-26.09,23.32-27.38l242.86-18.99c16.52-1.29,28.39,8.06,26.53,20.89l-27.48,188.62c-1.87,12.83-12.31,25.09-23.32,27.38Z"/>
      <g>
        <g>
          <path class="cls-11" d="M113.36,87.1c-3.51,0-6.35-2.84-6.35-6.35v-36.98c0-1.94-1.04-3.44-3.43-3.44h-16.29c-2.39,0-3.44,1.49-3.44,3.44v8.96h7.55c4.27,0,7.32,4.13,6.07,8.21h0c-.82,2.67-3.28,4.49-6.07,4.49h-7.55v15.31c0,3.51-2.84,6.35-6.35,6.35h-2.99c-3.51,0-6.35-2.84-6.35-6.35v-38.32c0-9.11,5.53-15.09,17.63-15.09h19.27c12.1,0,17.63,5.98,17.63,15.09v38.32c0,3.51-2.84,6.35-6.35,6.35h-2.99Z"/>
          <path class="cls-11" d="M101.33,15.09l.75-4.03h-5.4c-1.88,0-3.41-1.53-3.41-3.41v-3.85c0-2.09,1.7-3.79,3.79-3.79h14.67c2.08,0,3.68,1.85,3.38,3.91l-.62,4.15h15.33c2.09,0,3.79,1.7,3.79,3.79v3.48c0,2.09-1.7,3.79-3.79,3.79h-25.13c-2.13,0-3.74-1.94-3.36-4.03Z"/>
          <path class="cls-11" d="M179.36,87.1c-2.94,0-5.62-1.7-6.86-4.37l-.05-.11c-2.84,2.09-6.72,4.48-12.4,4.48h-10.61c-10.16,0-16.28-4.48-16.28-14.34v-37.84c0-4.18,3.39-7.58,7.58-7.58h.54c4.18,0,7.58,3.39,7.58,7.58v35.15c0,2.84,1.79,4.03,4.33,4.03h10.76c4.33,0,8.07-2.24,8.07-6.13v-33.06c0-4.18,3.39-7.58,7.58-7.58h.54c4.18,0,7.58,3.39,7.58,7.58v44.61c0,4.18-3.39,7.58-7.58,7.58h-.75Z"/>
          <path class="cls-11" d="M244.14,44.37c5.83,2.39,8.51,6.13,8.51,13.3v22.01c0,4.1-3.32,7.42-7.42,7.42h-.54c-4.1,0-7.42-3.32-7.42-7.42v-19.77c0-2.39-1.05-4.03-4.33-4.03h-19.12v23.8c0,4.1-3.32,7.42-7.42,7.42h-.84c-4.1,0-7.42-3.32-7.42-7.42v-44.91c0-4.1,3.32-7.42,7.42-7.42h.84c4.1,0,7.42,3.32,7.42,7.42v7.97h14.49l5.98-11.41c1.28-2.44,3.81-3.98,6.57-3.98h0c5.61,0,9.19,5.98,6.55,10.93l-3.27,6.11Z"/>
          <path class="cls-11" d="M292.73,87.1c-3.16,0-5.72-2.56-5.72-5.72v-37.16c0-2.24-.75-3.89-4.33-3.89h-16.84c-3.16,0-5.72-2.56-5.72-5.72h0c0-2.51,1.64-4.7,4.02-5.47,3.63-1.17,7.35-1.81,13.16-1.81h7.77c10.76,0,17.63,4.33,17.63,13.89v40.15c0,3.16-2.56,5.72-5.72,5.72h-4.25Z"/>
        </g>
        <g>
          <path class="cls-10" d="M113.36,87.1c-3.51,0-6.35-2.84-6.35-6.35v-36.98c0-1.94-1.04-3.44-3.43-3.44h-16.29c-2.39,0-3.44,1.49-3.44,3.44v8.96h7.55c4.27,0,7.32,4.13,6.07,8.21h0c-.82,2.67-3.28,4.49-6.07,4.49h-7.55v15.31c0,3.51-2.84,6.35-6.35,6.35h-2.99c-3.51,0-6.35-2.84-6.35-6.35v-38.32c0-9.11,5.53-15.09,17.63-15.09h19.27c12.1,0,17.63,5.98,17.63,15.09v38.32c0,3.51-2.84,6.35-6.35,6.35h-2.99Z"/>
          <path class="cls-10" d="M101.33,15.09l.75-4.03h-5.4c-1.88,0-3.41-1.53-3.41-3.41v-3.85c0-2.09,1.7-3.79,3.79-3.79h14.67c2.08,0,3.68,1.85,3.38,3.91l-.62,4.15h15.33c2.09,0,3.79,1.7,3.79,3.79v3.48c0,2.09-1.7,3.79-3.79,3.79h-25.13c-2.13,0-3.74-1.94-3.36-4.03Z"/>
          <path class="cls-10" d="M179.36,87.1c-2.94,0-5.62-1.7-6.86-4.37l-.05-.11c-2.84,2.09-6.72,4.48-12.4,4.48h-10.61c-10.16,0-16.28-4.48-16.28-14.34v-37.84c0-4.18,3.39-7.58,7.58-7.58h.54c4.18,0,7.58,3.39,7.58,7.58v35.15c0,2.84,1.79,4.03,4.33,4.03h10.76c4.33,0,8.07-2.24,8.07-6.13v-33.06c0-4.18,3.39-7.58,7.58-7.58h.54c4.18,0,7.58,3.39,7.58,7.58v44.61c0,4.18-3.39,7.58-7.58,7.58h-.75Z"/>
          <path class="cls-10" d="M244.14,44.37c5.83,2.39,8.51,6.13,8.51,13.3v22.01c0,4.1-3.32,7.42-7.42,7.42h-.54c-4.1,0-7.42-3.32-7.42-7.42v-19.77c0-2.39-1.05-4.03-4.33-4.03h-19.12v23.8c0,4.1-3.32,7.42-7.42,7.42h-.84c-4.1,0-7.42-3.32-7.42-7.42v-44.91c0-4.1,3.32-7.42,7.42-7.42h.84c4.1,0,7.42,3.32,7.42,7.42v7.97h14.49l5.98-11.41c1.28-2.44,3.81-3.98,6.57-3.98h0c5.61,0,9.19,5.98,6.55,10.93l-3.27,6.11Z"/>
          <path class="cls-10" d="M292.73,87.1c-3.16,0-5.72-2.56-5.72-5.72v-37.16c0-2.24-.75-3.89-4.33-3.89h-16.84c-3.16,0-5.72-2.56-5.72-5.72h0c0-2.51,1.64-4.7,4.02-5.47,3.63-1.17,7.35-1.81,13.16-1.81h7.77c10.76,0,17.63,4.33,17.63,13.89v40.15c0,3.16-2.56,5.72-5.72,5.72h-4.25Z"/>
        </g>
      </g>
      <path class="cls-7" d="M63.61,139.46l60.79,8.49c1.78-2.21,2.79-5,2.67-8.01-.16-4.03-2.33-7.57-5.55-9.83,1.97-1.96,3.13-4.65,3.01-7.58-.13-3.31-1.86-6.23-4.46-8.14.49-.78.83-1.67.96-2.63.54-3.88-2.38-7.49-6.52-8.06-1.08-.15-2.13-.08-3.11.18.01-.07.03-.13.04-.2.44-3.16-1.94-6.11-5.32-6.58-2.15-.3-4.18.47-5.49,1.89-.83-1.23-2.2-2.14-3.85-2.37-2.95-.41-5.66,1.49-6.04,4.25-.27-.09-.56-.15-.85-.2-2.67-.37-5.11,1.35-5.46,3.84-.06.43-.05.85.02,1.26-4.36.19-7.73,3.6-7.56,7.72-.43-.06-.86-.1-1.31-.09-4.04.08-7.18,3.21-7.03,7,.06,1.44.58,2.76,1.43,3.84-4.62,1.54-7.83,5.73-7.63,10.61.07,1.65.52,3.22,1.28,4.61Z"/>
      <g>
        <g>
          <path class="cls-13" d="M50.88,160.14l-2.72-36.27c-.09-1.26.85-2.36,2.12-2.46l26.57-1.99c1.26-.09,2.36.85,2.46,2.12l.26,3.52c.09,1.26-.85,2.36-2.12,2.46l-17.05,1.28c-1.26.09-2.21,1.2-2.12,2.46l.24,3.26c.09,1.26,1.2,2.21,2.46,2.12l15.27-1.15c1.26-.09,2.36.85,2.46,2.12l.25,3.35c.09,1.26-.85,2.36-2.12,2.46l-15.27,1.15c-1.26.09-2.21,1.2-2.12,2.46l.32,4.32c.09,1.26,1.2,2.21,2.46,2.12l17.05-1.28c1.26-.09,2.36.85,2.46,2.12l.26,3.52c.09,1.26-.85,2.36-2.12,2.46l-26.57,1.99c-1.26.09-2.36-.85-2.46-2.12Z"/>
          <path class="cls-13" d="M115.8,164.46h-9.91c-7.67,0-12.05-3.39-12.05-10.26v-20.44c0-6.87,4.37-10.26,12.05-10.26h9.91c3.48,0,6.11.64,7.83,1.25,1.42.5,2.35,1.86,2.35,3.37h0c0,1.98-1.61,3.59-3.59,3.59h-16.04c-1.7,0-2.95,1.07-2.95,2.86v18.83c0,1.79,1.25,2.86,2.95,2.86h16.04c1.98,0,3.59,1.61,3.59,3.59h0c0,1.51-.92,2.87-2.35,3.37-1.72.61-4.35,1.25-7.83,1.25Z"/>
          <path class="cls-13" d="M158.58,157.32l-11.45.84c-8.21.6-13.14-2.59-13.69-10.03l-1.6-21.86c-.54-7.44,3.87-11.32,12.08-11.92l11.45-.84c8.21-.6,13.14,2.59,13.69,10.03l1.6,21.86c.54,7.44-3.87,11.32-12.08,11.92ZM158.92,125.34c-.17-2.29-1.68-3.24-3.87-3.07l-9.54.7c-2.2.16-3.55,1.32-3.38,3.61l1.45,19.76c.17,2.29,1.68,3.24,3.87,3.07l9.54-.7c2.2-.16,3.55-1.31,3.38-3.61l-1.45-19.76Z"/>
          <path class="cls-13" d="M211.27,125.34v29.46c0,1.32-1.07,2.39-2.39,2.39h-5.18c-1.32,0-2.39-1.07-2.39-2.39v-29.46c0-1.32-1.07-2.39-2.39-2.39h-7.41c-1.32,0-2.39-1.07-2.39-2.39v-3.69c0-1.32,1.07-2.39,2.39-2.39h29.56c1.32,0,2.39,1.07,2.39,2.39v3.69c0,1.32-1.07,2.39-2.39,2.39h-7.41c-1.32,0-2.39,1.07-2.39,2.39Z"/>
          <path class="cls-13" d="M249.17,146.14l-1.71,14.87c-.15,1.31-1.34,2.25-2.65,2.1l-5.14-.59c-1.31-.15-2.25-1.34-2.1-2.65l1.7-14.79c.05-.44-.02-.89-.22-1.3l-10.38-21.84c-.81-1.7.57-3.62,2.43-3.4l5.18.6c.84.1,1.56.63,1.91,1.4l5.48,12.18c.74,1.65,2.98,1.91,4.08.47l8.1-10.62c.51-.67,1.34-1.02,2.17-.93l5.16.59c1.87.21,2.77,2.41,1.59,3.87l-15.11,18.81c-.28.35-.46.78-.51,1.22Z"/>
          <path class="cls-13" d="M291.85,147.21h-10.45c-1.32,0-2.39,1.07-2.39,2.39v10.2c0,1.32-1.07,2.39-2.39,2.39h-5.17c-1.32,0-2.39-1.07-2.39-2.39v-37.93c0-1.32,1.07-2.39,2.39-2.39h20.41c8.1,0,12.56,2.89,12.56,9.96v7.91c0,6.89-4.56,9.86-12.56,9.86ZM294.46,130.64c0-1.77-1.02-2.7-3.16-2.7h-9.89c-1.32,0-2.39,1.07-2.39,2.39v6.01c0,1.32,1.07,2.39,2.39,2.39h9.98c2.23,0,3.07-.93,3.07-2.7v-5.4Z"/>
          <path class="cls-13" d="M309.6,161.82v-37.93c0-1.32,1.07-2.39,2.39-2.39h27.79c1.32,0,2.39,1.07,2.39,2.39v3.69c0,1.32-1.07,2.39-2.39,2.39h-17.83c-1.32,0-2.39,1.07-2.39,2.39v3.41c0,1.32,1.07,2.39,2.39,2.39h15.97c1.32,0,2.39,1.07,2.39,2.39v3.5c0,1.32-1.07,2.39-2.39,2.39h-15.97c-1.32,0-2.39,1.07-2.39,2.39v4.52c0,1.32,1.07,2.39,2.39,2.39h17.83c1.32,0,2.39,1.07,2.39,2.39v3.69c0,1.32-1.07,2.39-2.39,2.39h-27.79c-1.32,0-2.39-1.07-2.39-2.39Z"/>
        </g>
        <g>
          <path class="cls-5" d="M50.88,160.14l-2.72-36.27c-.09-1.26.85-2.36,2.12-2.46l26.57-1.99c1.26-.09,2.36.85,2.46,2.12l.26,3.52c.09,1.26-.85,2.36-2.12,2.46l-17.05,1.28c-1.26.09-2.21,1.2-2.12,2.46l.24,3.26c.09,1.26,1.2,2.21,2.46,2.12l15.27-1.15c1.26-.09,2.36.85,2.46,2.12l.25,3.35c.09,1.26-.85,2.36-2.12,2.46l-15.27,1.15c-1.26.09-2.21,1.2-2.12,2.46l.32,4.32c.09,1.26,1.2,2.21,2.46,2.12l17.05-1.28c1.26-.09,2.36.85,2.46,2.12l.26,3.52c.09,1.26-.85,2.36-2.12,2.46l-26.57,1.99c-1.26.09-2.36-.85-2.46-2.12Z"/>
          <path class="cls-8" d="M115.8,164.46h-9.91c-7.67,0-12.05-3.39-12.05-10.26v-20.44c0-6.87,4.37-10.26,12.05-10.26h9.91c3.48,0,6.11.64,7.83,1.25,1.42.5,2.35,1.86,2.35,3.37h0c0,1.98-1.61,3.59-3.59,3.59h-16.04c-1.7,0-2.95,1.07-2.95,2.86v18.83c0,1.79,1.25,2.86,2.95,2.86h16.04c1.98,0,3.59,1.61,3.59,3.59h0c0,1.51-.92,2.87-2.35,3.37-1.72.61-4.35,1.25-7.83,1.25Z"/>
          <path class="cls-9" d="M158.58,157.32l-11.45.84c-8.21.6-13.14-2.59-13.69-10.03l-1.6-21.86c-.54-7.44,3.87-11.32,12.08-11.92l11.45-.84c8.21-.6,13.14,2.59,13.69,10.03l1.6,21.86c.54,7.44-3.87,11.32-12.08,11.92ZM158.92,125.34c-.17-2.29-1.68-3.24-3.87-3.07l-9.54.7c-2.2.16-3.55,1.32-3.38,3.61l1.45,19.76c.17,2.29,1.68,3.24,3.87,3.07l9.54-.7c2.2-.16,3.55-1.31,3.38-3.61l-1.45-19.76Z"/>
          <path class="cls-10" d="M211.27,125.34v29.46c0,1.32-1.07,2.39-2.39,2.39h-5.18c-1.32,0-2.39-1.07-2.39-2.39v-29.46c0-1.32-1.07-2.39-2.39-2.39h-7.41c-1.32,0-2.39-1.07-2.39-2.39v-3.69c0-1.32,1.07-2.39,2.39-2.39h29.56c1.32,0,2.39,1.07,2.39,2.39v3.69c0,1.32-1.07,2.39-2.39,2.39h-7.41c-1.32,0-2.39,1.07-2.39,2.39Z"/>
          <path class="cls-10" d="M249.17,146.14l-1.71,14.87c-.15,1.31-1.34,2.25-2.65,2.1l-5.14-.59c-1.31-.15-2.25-1.34-2.1-2.65l1.7-14.79c.05-.44-.02-.89-.22-1.3l-10.38-21.84c-.81-1.7.57-3.62,2.43-3.4l5.18.6c.84.1,1.56.63,1.91,1.4l5.48,12.18c.74,1.65,2.98,1.91,4.08.47l8.1-10.62c.51-.67,1.34-1.02,2.17-.93l5.16.59c1.87.21,2.77,2.41,1.59,3.87l-15.11,18.81c-.28.35-.46.78-.51,1.22Z"/>
          <path class="cls-10" d="M291.85,147.21h-10.45c-1.32,0-2.39,1.07-2.39,2.39v10.2c0,1.32-1.07,2.39-2.39,2.39h-5.17c-1.32,0-2.39-1.07-2.39-2.39v-37.93c0-1.32,1.07-2.39,2.39-2.39h20.41c8.1,0,12.56,2.89,12.56,9.96v7.91c0,6.89-4.56,9.86-12.56,9.86ZM294.46,130.64c0-1.77-1.02-2.7-3.16-2.7h-9.89c-1.32,0-2.39,1.07-2.39,2.39v6.01c0,1.32,1.07,2.39,2.39,2.39h9.98c2.23,0,3.07-.93,3.07-2.7v-5.4Z"/>
          <path class="cls-10" d="M309.6,161.82v-37.93c0-1.32,1.07-2.39,2.39-2.39h27.79c1.32,0,2.39,1.07,2.39,2.39v3.69c0,1.32-1.07,2.39-2.39,2.39h-17.83c-1.32,0-2.39,1.07-2.39,2.39v3.41c0,1.32,1.07,2.39,2.39,2.39h15.97c1.32,0,2.39,1.07,2.39,2.39v3.5c0,1.32-1.07,2.39-2.39,2.39h-15.97c-1.32,0-2.39,1.07-2.39,2.39v4.52c0,1.32,1.07,2.39,2.39,2.39h17.83c1.32,0,2.39,1.07,2.39,2.39v3.69c0,1.32-1.07,2.39-2.39,2.39h-27.79c-1.32,0-2.39-1.07-2.39-2.39Z"/>
        </g>
      </g>
      <path class="cls-1" d="M263.64,194.1l41.96,5.86c1.23-1.53,1.93-3.45,1.84-5.53-.11-2.78-1.6-5.23-3.83-6.79,1.36-1.36,2.16-3.21,2.07-5.23-.09-2.28-1.28-4.3-3.08-5.62.34-.54.57-1.15.66-1.82.37-2.68-1.64-5.17-4.5-5.57-.74-.1-1.47-.05-2.15.12,0-.05.02-.09.03-.14.3-2.18-1.34-4.22-3.67-4.54-1.48-.21-2.88.33-3.79,1.3-.57-.85-1.52-1.48-2.66-1.63-2.04-.28-3.9,1.03-4.17,2.93-.19-.06-.39-.11-.59-.14-1.84-.26-3.53.93-3.77,2.65-.04.29-.03.59.01.87-3.01.13-5.33,2.49-5.22,5.33-.3-.04-.6-.07-.9-.06-2.79.05-4.96,2.21-4.85,4.83.04.99.4,1.9.99,2.65-3.19,1.06-5.41,3.96-5.27,7.32.05,1.14.36,2.22.88,3.18Z"/>
      <g>
        <g>
          <path class="cls-14" d="M95.69,200.07l3.79,29.58c.32,2.53-1.47,4.85-4,5.18h0c-2.53.32-4.85-1.47-5.18-4l-3.93-30.72c-.74-5.77,5.72-6.68,5.35-9.57l-.12-.96-6.61.85c-1.07.14-1.95.92-2.22,1.97h0c-.27,1.06-1.15,1.84-2.24,1.98h0c-2.53.32-4.85-1.47-5.18-4l-.04-.28c-.21-1.65.47-3.29,1.8-4.28,1.52-1.14,3.18-1.8,7.15-2.84l5.85-.75c6.99-.89,9.83,1.14,10.38,5.42l.29,2.27c.64,4.98-5.81,4.56-5.09,10.16Z"/>
          <path class="cls-14" d="M135.42,232.71l-.27-.58c-1.83,1.35-4.33,2.89-7.99,2.89h-6.83c-6.54,0-10.49-2.89-10.49-9.24v-24.2c0-2.79,2.26-5.05,5.05-5.05h0c2.79,0,5.05,2.26,5.05,5.05v22.46c0,1.83,1.15,2.6,2.79,2.6h6.93c2.79,0,5.19-1.44,5.19-3.94v-21.12c0-2.79,2.26-5.05,5.05-5.05h0c2.79,0,5.05,2.26,5.05,5.05v28.38c0,2.79-2.26,5.05-5.05,5.05h-.87c-1.55,0-2.97-.9-3.62-2.31Z"/>
          <path class="cls-14" d="M183.94,229.41c-2.22,0-4.03-1.8-4.03-4.03v-26.16c0-1.55-1.55-2.78-2.68-2.78l-2.87,2.04c-.68.48-1.5.74-2.33.74h-1.24c-.84,0-1.65-.26-2.33-.74l-2.87-2.04c-1.13,0-2.68,1.24-2.68,2.78v19.58c0,1.55.82,2.37,2.88,2.37h4.32c2.22,0,4.03,1.8,4.03,4.03h0c0,1.82-1.23,3.43-2.98,3.91-2.28.62-4.41.82-6.29.82h-1.55c-8.04,0-11.23-3.71-11.23-9.79v-21.23c0-7.32,5.77-11.23,11.33-11.23h.41c3.71,0,5.98,1.75,7.52,3.61h.1c1.55-1.85,3.81-3.61,7.52-3.61h.41c5.56,0,11.33,3.92,11.33,11.23v26.47c0,2.22-1.8,4.03-4.03,4.03h-2.77Z"/>
          <path class="cls-14" d="M191.05,182.53h-14.94c-4.22,0-7.21-1.44-7.21-6.08v-.72c0-1.23.3-2.6.64-3.79.41-1.43,2.65-2.63,5.4-2.4,2.52.21,4.57,2.05,4.57,4.57v.38h19.12c1.85,0,3.35,1.5,3.35,3.35h0c0,1.28-.71,2.48-1.87,3.01-2.13.97-4.91,1.68-9.06,1.68Z"/>
          <path class="cls-14" d="M213.21,229.48h-5.5c-4.02,0-6.76-.74-8.98-1.63-1.48-.58-2.45-1.99-2.45-3.58h0c0-2.12,1.72-3.83,3.83-3.83h11.75c2.39,0,3.12-.83,3.12-2.49v-18.49c0-1.66-.73-2.49-3.12-2.49h-14.87c-2.12,0-3.83-1.72-3.83-3.83h0c0-1.59.98-3,2.45-3.58,2.22-.88,4.96-1.63,8.98-1.63h8.62c8.31,0,12.67,3.22,12.67,10.18v21.19c0,6.96-4.36,10.18-12.67,10.18Z"/>
          <path class="cls-14" d="M259.61,223.9c-2.29.14-4.27-1.61-4.4-3.91l-1.44-24.2c-.08-1.27-.82-2.21-2.38-2.11l-10.66.63c-1.56.09-2.19,1.11-2.12,2.38l.35,5.87,4.94-.29c2.79-.17,4.95,2.42,4.29,5.14h0c-.43,1.78-1.97,3.07-3.8,3.18l-4.94.29.6,10.02c.14,2.29-1.61,4.27-3.91,4.4l-1.95.12c-2.29.14-4.27-1.61-4.4-3.91l-1.49-25.08c-.35-5.96,3.03-10.09,10.95-10.56l12.61-.75c7.92-.47,11.77,3.22,12.13,9.19l1.49,25.08c.14,2.29-1.61,4.27-3.91,4.4l-1.95.12Z"/>
          <path class="cls-14" d="M261.4,241.55c-2.7.16-5.02-1.9-5.18-4.6l-.13-2.15-2.74.16c-1.08.06-2-.76-2.06-1.83l-.15-3.21c-.06-.97.58-1.84,1.52-2.06,1.89-.46,5.22-.95,7.2-1.07,3.62-.21,6.13,1.24,6.36,5.15l.26,4.4c.16,2.7-1.9,5.02-4.6,5.18l-.49.03Z"/>
          <path class="cls-14" d="M314.1,223.49l-.05-.11c-1.78,1.08-4.1,2.28-7.08,2.02l-5.18-.47c-6.23-.56-9.66-3.79-9.18-9.05l1.51-16.76c.17-1.84-.82-2.64-2.58-2.8l-6.49-.58c-1.89-.17-3.56,1.22-3.73,3.11l-1.53,17.02,3.42.31c1.89.17,3.28,1.84,3.11,3.73v.13c-.15,1.58-1.35,2.88-2.93,3.1-1.35.19-3.17.3-5.33.1l-.88-.08c-5.09-.46-7.09-2.76-6.75-6.62l2.17-24.19c.12-1.36,1.62-3.46,2.91-3.9,3.01-1.03,6.22-.52,11.35-.24l7.02.63c7.64.69,10.02,4.62,9.54,9.97l-1.45,16.15c-.12,1.32.5,2.34,2.25,2.5l5.7.51c2.63.24,4.67-.82,4.9-3.36l1.82-20.27c.17-1.89,1.84-3.28,3.73-3.11l2.37.21c1.89.17,3.28,1.84,3.11,3.73l-2.54,28.25c-.17,1.89-1.84,3.28-3.73,3.11l-1.4-.13c-1.79-.16-3.36-1.27-4.11-2.91Z"/>
        </g>
        <g>
          <path class="cls-10" d="M95.69,200.07l3.79,29.58c.32,2.53-1.47,4.85-4,5.18h0c-2.53.32-4.85-1.47-5.18-4l-3.93-30.72c-.74-5.77,5.72-6.68,5.35-9.57l-.12-.96-6.61.85c-1.07.14-1.95.92-2.22,1.97h0c-.27,1.06-1.15,1.84-2.24,1.98h0c-2.53.32-4.85-1.47-5.18-4l-.04-.28c-.21-1.65.47-3.29,1.8-4.28,1.52-1.14,3.18-1.8,7.15-2.84l5.85-.75c6.99-.89,9.83,1.14,10.38,5.42l.29,2.27c.64,4.98-5.81,4.56-5.09,10.16Z"/>
          <path class="cls-10" d="M135.42,232.71l-.27-.58c-1.83,1.35-4.33,2.89-7.99,2.89h-6.83c-6.54,0-10.49-2.89-10.49-9.24v-24.2c0-2.79,2.26-5.05,5.05-5.05h0c2.79,0,5.05,2.26,5.05,5.05v22.46c0,1.83,1.15,2.6,2.79,2.6h6.93c2.79,0,5.19-1.44,5.19-3.94v-21.12c0-2.79,2.26-5.05,5.05-5.05h0c2.79,0,5.05,2.26,5.05,5.05v28.38c0,2.79-2.26,5.05-5.05,5.05h-.87c-1.55,0-2.97-.9-3.62-2.31Z"/>
          <path class="cls-6" d="M183.94,229.41c-2.22,0-4.03-1.8-4.03-4.03v-26.16c0-1.55-1.55-2.78-2.68-2.78l-2.87,2.04c-.68.48-1.5.74-2.33.74h-1.24c-.84,0-1.65-.26-2.33-.74l-2.87-2.04c-1.13,0-2.68,1.24-2.68,2.78v19.58c0,1.55.82,2.37,2.88,2.37h4.32c2.22,0,4.03,1.8,4.03,4.03h0c0,1.82-1.23,3.43-2.98,3.91-2.28.62-4.41.82-6.29.82h-1.55c-8.04,0-11.23-3.71-11.23-9.79v-21.23c0-7.32,5.77-11.23,11.33-11.23h.41c3.71,0,5.98,1.75,7.52,3.61h.1c1.55-1.85,3.81-3.61,7.52-3.61h.41c5.56,0,11.33,3.92,11.33,11.23v26.47c0,2.22-1.8,4.03-4.03,4.03h-2.77Z"/>
          <path class="cls-6" d="M191.05,182.53h-14.94c-4.22,0-7.21-1.44-7.21-6.08v-.72c0-1.23.3-2.6.64-3.79.41-1.43,2.65-2.63,5.4-2.4,2.52.21,4.57,2.05,4.57,4.57v.38h19.12c1.85,0,3.35,1.5,3.35,3.35h0c0,1.28-.71,2.48-1.87,3.01-2.13.97-4.91,1.68-9.06,1.68Z"/>
          <path class="cls-6" d="M213.21,229.48h-5.5c-4.02,0-6.76-.74-8.98-1.63-1.48-.58-2.45-1.99-2.45-3.58h0c0-2.12,1.72-3.83,3.83-3.83h11.75c2.39,0,3.12-.83,3.12-2.49v-18.49c0-1.66-.73-2.49-3.12-2.49h-14.87c-2.12,0-3.83-1.72-3.83-3.83h0c0-1.59.98-3,2.45-3.58,2.22-.88,4.96-1.63,8.98-1.63h8.62c8.31,0,12.67,3.22,12.67,10.18v21.19c0,6.96-4.36,10.18-12.67,10.18Z"/>
          <path class="cls-6" d="M259.61,223.9c-2.29.14-4.27-1.61-4.4-3.91l-1.44-24.2c-.08-1.27-.82-2.21-2.38-2.11l-10.66.63c-1.56.09-2.19,1.11-2.12,2.38l.35,5.87,4.94-.29c2.79-.17,4.95,2.42,4.29,5.14h0c-.43,1.78-1.97,3.07-3.8,3.18l-4.94.29.6,10.02c.14,2.29-1.61,4.27-3.91,4.4l-1.95.12c-2.29.14-4.27-1.61-4.4-3.91l-1.49-25.08c-.35-5.96,3.03-10.09,10.95-10.56l12.61-.75c7.92-.47,11.77,3.22,12.13,9.19l1.49,25.08c.14,2.29-1.61,4.27-3.91,4.4l-1.95.12Z"/>
          <path class="cls-6" d="M261.4,241.55c-2.7.16-5.02-1.9-5.18-4.6l-.13-2.15-2.74.16c-1.08.06-2-.76-2.06-1.83l-.15-3.21c-.06-.97.58-1.84,1.52-2.06,1.89-.46,5.22-.95,7.2-1.07,3.62-.21,6.13,1.24,6.36,5.15l.26,4.4c.16,2.7-1.9,5.02-4.6,5.18l-.49.03Z"/>
          <path class="cls-6" d="M314.1,223.49l-.05-.11c-1.78,1.08-4.1,2.28-7.08,2.02l-5.18-.47c-6.23-.56-9.66-3.79-9.18-9.05l1.51-16.76c.17-1.84-.82-2.64-2.58-2.8l-6.49-.58c-1.89-.17-3.56,1.22-3.73,3.11l-1.53,17.02,3.42.31c1.89.17,3.28,1.84,3.11,3.73v.13c-.15,1.58-1.35,2.88-2.93,3.1-1.35.19-3.17.3-5.33.1l-.88-.08c-5.09-.46-7.09-2.76-6.75-6.62l2.17-24.19c.12-1.36,1.62-3.46,2.91-3.9,3.01-1.03,6.22-.52,11.35-.24l7.02.63c7.64.69,10.02,4.62,9.54,9.97l-1.45,16.15c-.12,1.32.5,2.34,2.25,2.5l5.7.51c2.63.24,4.67-.82,4.9-3.36l1.82-20.27c.17-1.89,1.84-3.28,3.73-3.11l2.37.21c1.89.17,3.28,1.84,3.11,3.73l-2.54,28.25c-.17,1.89-1.84,3.28-3.73,3.11l-1.4-.13c-1.79-.16-3.36-1.27-4.11-2.91Z"/>
        </g>
      </g>
    </g>
  </g>
</svg>