<?xml version="1.0" encoding="UTF-8"?>
<svg id="Layer_2" data-name="Layer 2" xmlns="http://www.w3.org/2000/svg" xmlns:xlink="http://www.w3.org/1999/xlink" viewBox="0 0 167.11 136.7">
  <defs>
    <style>
      .cls-1 {
        stroke-width: 12.28px;
      }

      .cls-1, .cls-2, .cls-3, .cls-4, .cls-5 {
        fill: none;
        stroke-linecap: round;
        stroke-linejoin: round;
      }

      .cls-1, .cls-3, .cls-5 {
        stroke: #293c94;
      }

      .cls-2 {
        stroke: #6cb6b0;
      }

      .cls-2, .cls-4 {
        stroke-width: 1.12px;
      }

      .cls-6 {
        fill: #67ab97;
      }

      .cls-6, .cls-7, .cls-8, .cls-9, .cls-10, .cls-11, .cls-12, .cls-13, .cls-14, .cls-15 {
        stroke-width: 0px;
      }

      .cls-7 {
        fill: #20989f;
      }

      .cls-8 {
        fill: #293895;
      }

      .cls-9 {
        fill: #2ab5b6;
      }

      .cls-10 {
        fill: url(#linear-gradient);
      }

      .cls-11 {
        fill: #ffc40d;
      }

      .cls-3 {
        stroke-width: 14.8px;
      }

      .cls-4 {
        stroke: #8fd2cd;
      }

      .cls-12 {
        fill: #84c99b;
      }

      .cls-5 {
        stroke-width: 13.25px;
      }

      .cls-13 {
        fill: url(#linear-gradient-2);
      }

      .cls-14 {
        fill: url(#linear-gradient-3);
      }

      .cls-15 {
        fill: #fff;
      }
    </style>
    <linearGradient id="linear-gradient" x1="20.21" y1="66.53" x2="105.38" y2="83.07" gradientUnits="userSpaceOnUse">
      <stop offset=".05" stop-color="#26a9e0"/>
      <stop offset=".99" stop-color="#7fc35f"/>
      <stop offset="1" stop-color="#fff"/>
    </linearGradient>
    <linearGradient id="linear-gradient-2" x1="20.73" y1="63.81" x2="105.91" y2="80.35" gradientUnits="userSpaceOnUse">
      <stop offset="0" stop-color="#26a9e0"/>
      <stop offset=".19" stop-color="#27a9dd"/>
      <stop offset=".28" stop-color="#2caad6"/>
      <stop offset=".35" stop-color="#35adc9"/>
      <stop offset=".4" stop-color="#41b1b7"/>
      <stop offset=".45" stop-color="#52b59f"/>
      <stop offset=".5" stop-color="#66bb83"/>
      <stop offset=".54" stop-color="#7dc261"/>
      <stop offset=".54" stop-color="#7fc35f"/>
    </linearGradient>
    <linearGradient id="linear-gradient-3" x1="22.19" y1="56.31" x2="107.37" y2="72.85" gradientUnits="userSpaceOnUse">
      <stop offset="0" stop-color="#26a9e0"/>
      <stop offset=".69" stop-color="#7fc35f"/>
      <stop offset=".98" stop-color="#fff"/>
    </linearGradient>
  </defs>
  <g id="logo2">
    <g>
      <g>
        <path class="cls-9" d="M30.06,107.33c15.11,3.19,26.23,11.18,24.81,17.84-1.4,6.68-14.79,9.51-29.92,6.32C9.83,128.31-1.3,120.3.12,113.63c1.41-6.67,14.8-9.51,29.93-6.3Z"/>
        <path class="cls-4" d="M3.38,113.68s23.58-2.86,48.13,11.09"/>
        <path class="cls-7" d="M46.06,89.85c10.44,16.21,13.1,33.11,5.94,37.71-7.15,4.63-21.43-4.81-31.85-21.01-10.46-16.23-13.1-33.1-5.95-37.7,7.15-4.63,21.41,4.79,31.85,21Z"/>
        <path class="cls-2" d="M14.21,70.35s27.54,21.15,38.56,54.42"/>
        <path class="cls-2" d="M12.88,88.59c8,4.83,21.29,2.31,21.29,2.31,0,0,2.33-5.79.69-13.26"/>
        <path class="cls-4" d="M16.35,114.28s-4.19,4.82-9.21,8"/>
        <path class="cls-4" d="M11.1,108.28s4.32,1.71,5.25,5.16"/>
        <path class="cls-4" d="M26.33,116.12s-4.81,8.79-9.98,11.23"/>
        <path class="cls-2" d="M26.33,81.1s.42-6.35,0-9.35"/>
        <path class="cls-2" d="M11.75,79.92s10.22,2.65,14.09,1.67"/>
        <path class="cls-2" d="M39.87,98.77s-13.4,4.41-20.93,0"/>
        <path class="cls-2" d="M41.19,84.6s1.4,7.34-1.32,13.61"/>
        <path class="cls-2" d="M24.86,109.36s9.63,4.08,19.74-1.07"/>
        <path class="cls-2" d="M46.98,94.8s1.07,8.77-1.66,12.95"/>
        <path class="cls-2" d="M35.45,119.1s7.35,3.86,14.81-1.07c0,0,3.49-3.3,2.09-12.02"/>
      </g>
      <path class="cls-8" d="M135.91,120.09l-79.07,16.44c-5.38,1.12-11.18-3.45-12.95-10.2L17.76,27.04c-1.78-6.75,3.32-12.74,11.39-13.37l118.61-9.27c8.07-.63,13.87,3.94,12.95,10.2l-13.42,92.12c-.91,6.27-6.01,12.25-11.39,13.37Z"/>
      <g>
        <g>
          <path class="cls-3" d="M55.36,42.54c-1.71,0-3.1-1.39-3.1-3.1v-18.06c0-.95-.51-1.68-1.68-1.68h-7.95c-1.17,0-1.68.73-1.68,1.68v4.38h3.69c2.08,0,3.58,2.02,2.97,4.01h0c-.4,1.3-1.6,2.19-2.97,2.19h-3.69v7.48c0,1.71-1.39,3.1-3.1,3.1h-1.46c-1.71,0-3.1-1.39-3.1-3.1v-18.71c0-4.45,2.7-7.37,8.61-7.37h9.41c5.91,0,8.61,2.92,8.61,7.37v18.71c0,1.71-1.39,3.1-3.1,3.1h-1.46Z"/>
          <path class="cls-3" d="M49.49,7.37l.36-1.97h-2.64c-.92,0-1.67-.75-1.67-1.67v-1.88c0-1.02.83-1.85,1.85-1.85h7.16c1.02,0,1.8.9,1.65,1.91l-.3,2.03h7.49c1.02,0,1.85.83,1.85,1.85v1.7c0,1.02-.83,1.85-1.85,1.85h-12.27c-1.04,0-1.83-.95-1.64-1.97Z"/>
          <path class="cls-3" d="M87.59,42.54c-1.44,0-2.74-.83-3.35-2.13l-.03-.05c-1.39,1.02-3.28,2.19-6.06,2.19h-5.18c-4.96,0-7.95-2.19-7.95-7v-18.48c0-2.04,1.66-3.7,3.7-3.7h.26c2.04,0,3.7,1.66,3.7,3.7v17.17c0,1.39.88,1.97,2.12,1.97h5.25c2.12,0,3.94-1.09,3.94-2.99v-16.15c0-2.04,1.66-3.7,3.7-3.7h.26c2.04,0,3.7,1.66,3.7,3.7v21.79c0,2.04-1.66,3.7-3.7,3.7h-.36Z"/>
          <path class="cls-3" d="M119.24,21.67c2.85,1.17,4.16,2.99,4.16,6.49v10.75c0,2-1.62,3.63-3.63,3.63h-.26c-2,0-3.63-1.62-3.63-3.63v-9.65c0-1.17-.51-1.97-2.12-1.97h-9.34v11.62c0,2-1.62,3.63-3.63,3.63h-.41c-2,0-3.63-1.62-3.63-3.63v-21.93c0-2,1.62-3.63,3.63-3.63h.41c2,0,3.63,1.62,3.63,3.63v3.89h7.08l2.92-5.57c.63-1.19,1.86-1.94,3.21-1.94h0c2.74,0,4.49,2.92,3.2,5.34l-1.6,2.98Z"/>
          <path class="cls-3" d="M142.96,42.54c-1.54,0-2.79-1.25-2.79-2.79v-18.15c0-1.09-.36-1.9-2.12-1.9h-8.23c-1.54,0-2.79-1.25-2.79-2.79h0c0-1.22.8-2.3,1.97-2.67,1.77-.57,3.59-.88,6.43-.88h3.79c5.25,0,8.61,2.12,8.61,6.79v19.61c0,1.54-1.25,2.79-2.79,2.79h-2.08Z"/>
        </g>
        <g>
          <path class="cls-15" d="M55.36,42.54c-1.71,0-3.1-1.39-3.1-3.1v-18.06c0-.95-.51-1.68-1.68-1.68h-7.95c-1.17,0-1.68.73-1.68,1.68v4.38h3.69c2.08,0,3.58,2.02,2.97,4.01h0c-.4,1.3-1.6,2.19-2.97,2.19h-3.69v7.48c0,1.71-1.39,3.1-3.1,3.1h-1.46c-1.71,0-3.1-1.39-3.1-3.1v-18.71c0-4.45,2.7-7.37,8.61-7.37h9.41c5.91,0,8.61,2.92,8.61,7.37v18.71c0,1.71-1.39,3.1-3.1,3.1h-1.46Z"/>
          <path class="cls-15" d="M49.49,7.37l.36-1.97h-2.64c-.92,0-1.67-.75-1.67-1.67v-1.88c0-1.02.83-1.85,1.85-1.85h7.16c1.02,0,1.8.9,1.65,1.91l-.3,2.03h7.49c1.02,0,1.85.83,1.85,1.85v1.7c0,1.02-.83,1.85-1.85,1.85h-12.27c-1.04,0-1.83-.95-1.64-1.97Z"/>
          <path class="cls-15" d="M87.59,42.54c-1.44,0-2.74-.83-3.35-2.13l-.03-.05c-1.39,1.02-3.28,2.19-6.06,2.19h-5.18c-4.96,0-7.95-2.19-7.95-7v-18.48c0-2.04,1.66-3.7,3.7-3.7h.26c2.04,0,3.7,1.66,3.7,3.7v17.17c0,1.39.88,1.97,2.12,1.97h5.25c2.12,0,3.94-1.09,3.94-2.99v-16.15c0-2.04,1.66-3.7,3.7-3.7h.26c2.04,0,3.7,1.66,3.7,3.7v21.79c0,2.04-1.66,3.7-3.7,3.7h-.36Z"/>
          <path class="cls-15" d="M119.24,21.67c2.85,1.17,4.16,2.99,4.16,6.49v10.75c0,2-1.62,3.63-3.63,3.63h-.26c-2,0-3.63-1.62-3.63-3.63v-9.65c0-1.17-.51-1.97-2.12-1.97h-9.34v11.62c0,2-1.62,3.63-3.63,3.63h-.41c-2,0-3.63-1.62-3.63-3.63v-21.93c0-2,1.62-3.63,3.63-3.63h.41c2,0,3.63,1.62,3.63,3.63v3.89h7.08l2.92-5.57c.63-1.19,1.86-1.94,3.21-1.94h0c2.74,0,4.49,2.92,3.2,5.34l-1.6,2.98Z"/>
          <path class="cls-15" d="M142.96,42.54c-1.54,0-2.79-1.25-2.79-2.79v-18.15c0-1.09-.36-1.9-2.12-1.9h-8.23c-1.54,0-2.79-1.25-2.79-2.79h0c0-1.22.8-2.3,1.97-2.67,1.77-.57,3.59-.88,6.43-.88h3.79c5.25,0,8.61,2.12,8.61,6.79v19.61c0,1.54-1.25,2.79-2.79,2.79h-2.08Z"/>
        </g>
      </g>
      <path class="cls-12" d="M31.06,68.11l29.69,4.15c.87-1.08,1.36-2.44,1.3-3.91-.08-1.97-1.14-3.7-2.71-4.8.96-.96,1.53-2.27,1.47-3.7-.07-1.61-.91-3.04-2.18-3.97.24-.38.4-.82.47-1.29.26-1.89-1.16-3.66-3.19-3.94-.53-.07-1.04-.04-1.52.09,0-.03.01-.06.02-.1.22-1.55-.95-2.98-2.6-3.21-1.05-.15-2.04.23-2.68.92-.4-.6-1.08-1.04-1.88-1.16-1.44-.2-2.76.73-2.95,2.08-.13-.04-.27-.08-.42-.1-1.3-.18-2.5.66-2.67,1.88-.03.21-.02.42,0,.61-2.13.09-3.77,1.76-3.69,3.77-.21-.03-.42-.05-.64-.04-1.97.04-3.51,1.57-3.43,3.42.03.7.29,1.35.7,1.88-2.26.75-3.83,2.8-3.73,5.18.03.81.26,1.57.62,2.25Z"/>
      <g>
        <g>
          <path class="cls-1" d="M24.85,78.21l-1.33-17.71c-.05-.62.42-1.15,1.03-1.2l12.98-.97c.62-.05,1.15.42,1.2,1.03l.13,1.72c.05.62-.42,1.15-1.03,1.2l-8.33.62c-.62.05-1.08.58-1.03,1.2l.12,1.59c.05.62.58,1.08,1.2,1.03l7.46-.56c.62-.05,1.15.42,1.2,1.03l.12,1.63c.05.62-.42,1.15-1.03,1.2l-7.46.56c-.62.05-1.08.58-1.03,1.2l.16,2.11c.05.62.58,1.08,1.2,1.03l8.33-.62c.62-.05,1.15.42,1.2,1.03l.13,1.72c.05.62-.42,1.15-1.03,1.2l-12.98.97c-.62.05-1.15-.42-1.2-1.03Z"/>
          <path class="cls-1" d="M56.56,80.32h-4.84c-3.75,0-5.88-1.66-5.88-5.01v-9.98c0-3.36,2.14-5.01,5.88-5.01h4.84c1.7,0,2.98.31,3.82.61.69.25,1.15.91,1.15,1.65h0c0,.97-.78,1.75-1.75,1.75h-7.84c-.83,0-1.44.52-1.44,1.39v9.2c0,.87.61,1.39,1.44,1.39h7.84c.97,0,1.75.78,1.75,1.75h0c0,.74-.45,1.4-1.15,1.65-.84.3-2.13.61-3.82.61Z"/>
          <path class="cls-1" d="M77.45,76.83l-5.59.41c-4.01.29-6.42-1.26-6.68-4.9l-.78-10.67c-.27-3.64,1.89-5.53,5.9-5.82l5.59-.41c4.01-.29,6.42,1.26,6.68,4.9l.78,10.67c.27,3.64-1.89,5.53-5.9,5.82ZM77.62,61.22c-.08-1.12-.82-1.58-1.89-1.5l-4.66.34c-1.07.08-1.73.64-1.65,1.76l.71,9.65c.08,1.12.82,1.58,1.89,1.5l4.66-.34c1.07-.08,1.73-.64,1.65-1.76l-.71-9.65Z"/>
          <path class="cls-1" d="M103.18,61.21v14.39c0,.65-.52,1.17-1.17,1.17h-2.53c-.65,0-1.17-.52-1.17-1.17v-14.39c0-.65-.52-1.17-1.17-1.17h-3.62c-.65,0-1.17-.52-1.17-1.17v-1.8c0-.65.52-1.17,1.17-1.17h14.43c.65,0,1.17.52,1.17,1.17v1.8c0,.65-.52,1.17-1.17,1.17h-3.62c-.65,0-1.17.52-1.17,1.17Z"/>
          <path class="cls-1" d="M121.69,71.37l-.83,7.26c-.07.64-.65,1.1-1.29,1.03l-2.51-.29c-.64-.07-1.1-.65-1.03-1.29l.83-7.22c.02-.22-.01-.44-.11-.63l-5.07-10.67c-.39-.83.28-1.77,1.19-1.66l2.53.29c.41.05.76.31.93.68l2.68,5.95c.36.81,1.46.93,1.99.23l3.96-5.19c.25-.33.65-.5,1.06-.45l2.52.29c.91.1,1.35,1.18.78,1.89l-7.38,9.19c-.14.17-.22.38-.25.6Z"/>
          <path class="cls-1" d="M142.54,71.89h-5.1c-.65,0-1.17.52-1.17,1.17v4.98c0,.65-.52,1.17-1.17,1.17h-2.53c-.65,0-1.17-.52-1.17-1.17v-18.53c0-.65.52-1.17,1.17-1.17h9.97c3.95,0,6.14,1.41,6.14,4.86v3.86c0,3.36-2.23,4.82-6.14,4.82ZM143.81,63.8c0-.86-.5-1.32-1.55-1.32h-4.83c-.65,0-1.17.52-1.17,1.17v2.94c0,.65.52,1.17,1.17,1.17h4.88c1.09,0,1.5-.45,1.5-1.32v-2.64Z"/>
          <path class="cls-1" d="M151.2,79.03v-18.53c0-.65.52-1.17,1.17-1.17h13.57c.65,0,1.17.52,1.17,1.17v1.8c0,.65-.52,1.17-1.17,1.17h-8.71c-.65,0-1.17.52-1.17,1.17v1.66c0,.65.52,1.17,1.17,1.17h7.8c.65,0,1.17.52,1.17,1.17v1.71c0,.65-.52,1.17-1.17,1.17h-7.8c-.65,0-1.17.52-1.17,1.17v2.21c0,.65.52,1.17,1.17,1.17h8.71c.65,0,1.17.52,1.17,1.17v1.8c0,.65-.52,1.17-1.17,1.17h-13.57c-.65,0-1.17-.52-1.17-1.17Z"/>
        </g>
        <g>
          <path class="cls-10" d="M24.85,78.21l-1.33-17.71c-.05-.62.42-1.15,1.03-1.2l12.98-.97c.62-.05,1.15.42,1.2,1.03l.13,1.72c.05.62-.42,1.15-1.03,1.2l-8.33.62c-.62.05-1.08.58-1.03,1.2l.12,1.59c.05.62.58,1.08,1.2,1.03l7.46-.56c.62-.05,1.15.42,1.2,1.03l.12,1.63c.05.62-.42,1.15-1.03,1.2l-7.46.56c-.62.05-1.08.58-1.03,1.2l.16,2.11c.05.62.58,1.08,1.2,1.03l8.33-.62c.62-.05,1.15.42,1.2,1.03l.13,1.72c.05.62-.42,1.15-1.03,1.2l-12.98.97c-.62.05-1.15-.42-1.2-1.03Z"/>
          <path class="cls-13" d="M56.56,80.32h-4.84c-3.75,0-5.88-1.66-5.88-5.01v-9.98c0-3.36,2.14-5.01,5.88-5.01h4.84c1.7,0,2.98.31,3.82.61.69.25,1.15.91,1.15,1.65h0c0,.97-.78,1.75-1.75,1.75h-7.84c-.83,0-1.44.52-1.44,1.39v9.2c0,.87.61,1.39,1.44,1.39h7.84c.97,0,1.75.78,1.75,1.75h0c0,.74-.45,1.4-1.15,1.65-.84.3-2.13.61-3.82.61Z"/>
          <path class="cls-14" d="M77.45,76.83l-5.59.41c-4.01.29-6.42-1.26-6.68-4.9l-.78-10.67c-.27-3.64,1.89-5.53,5.9-5.82l5.59-.41c4.01-.29,6.42,1.26,6.68,4.9l.78,10.67c.27,3.64-1.89,5.53-5.9,5.82ZM77.62,61.22c-.08-1.12-.82-1.58-1.89-1.5l-4.66.34c-1.07.08-1.73.64-1.65,1.76l.71,9.65c.08,1.12.82,1.58,1.89,1.5l4.66-.34c1.07-.08,1.73-.64,1.65-1.76l-.71-9.65Z"/>
          <path class="cls-15" d="M103.18,61.21v14.39c0,.65-.52,1.17-1.17,1.17h-2.53c-.65,0-1.17-.52-1.17-1.17v-14.39c0-.65-.52-1.17-1.17-1.17h-3.62c-.65,0-1.17-.52-1.17-1.17v-1.8c0-.65.52-1.17,1.17-1.17h14.43c.65,0,1.17.52,1.17,1.17v1.8c0,.65-.52,1.17-1.17,1.17h-3.62c-.65,0-1.17.52-1.17,1.17Z"/>
          <path class="cls-15" d="M121.69,71.37l-.83,7.26c-.07.64-.65,1.1-1.29,1.03l-2.51-.29c-.64-.07-1.1-.65-1.03-1.29l.83-7.22c.02-.22-.01-.44-.11-.63l-5.07-10.67c-.39-.83.28-1.77,1.19-1.66l2.53.29c.41.05.76.31.93.68l2.68,5.95c.36.81,1.46.93,1.99.23l3.96-5.19c.25-.33.65-.5,1.06-.45l2.52.29c.91.1,1.35,1.18.78,1.89l-7.38,9.19c-.14.17-.22.38-.25.6Z"/>
          <path class="cls-15" d="M142.54,71.89h-5.1c-.65,0-1.17.52-1.17,1.17v4.98c0,.65-.52,1.17-1.17,1.17h-2.53c-.65,0-1.17-.52-1.17-1.17v-18.53c0-.65.52-1.17,1.17-1.17h9.97c3.95,0,6.14,1.41,6.14,4.86v3.86c0,3.36-2.23,4.82-6.14,4.82ZM143.81,63.8c0-.86-.5-1.32-1.55-1.32h-4.83c-.65,0-1.17.52-1.17,1.17v2.94c0,.65.52,1.17,1.17,1.17h4.88c1.09,0,1.5-.45,1.5-1.32v-2.64Z"/>
          <path class="cls-15" d="M151.2,79.03v-18.53c0-.65.52-1.17,1.17-1.17h13.57c.65,0,1.17.52,1.17,1.17v1.8c0,.65-.52,1.17-1.17,1.17h-8.71c-.65,0-1.17.52-1.17,1.17v1.66c0,.65.52,1.17,1.17,1.17h7.8c.65,0,1.17.52,1.17,1.17v1.71c0,.65-.52,1.17-1.17,1.17h-7.8c-.65,0-1.17.52-1.17,1.17v2.21c0,.65.52,1.17,1.17,1.17h8.71c.65,0,1.17.52,1.17,1.17v1.8c0,.65-.52,1.17-1.17,1.17h-13.57c-.65,0-1.17-.52-1.17-1.17Z"/>
        </g>
      </g>
      <path class="cls-6" d="M128.76,94.79l20.49,2.86c.6-.75.94-1.68.9-2.7-.06-1.36-.78-2.55-1.87-3.31.66-.66,1.05-1.57,1.01-2.56-.05-1.11-.63-2.1-1.5-2.74.17-.26.28-.56.32-.89.18-1.31-.8-2.52-2.2-2.72-.36-.05-.72-.03-1.05.06,0-.02.01-.04.01-.07.15-1.07-.65-2.06-1.79-2.22-.72-.1-1.41.16-1.85.64-.28-.42-.74-.72-1.3-.8-.99-.14-1.91.5-2.04,1.43-.09-.03-.19-.05-.29-.07-.9-.13-1.72.45-1.84,1.3-.02.14-.02.29,0,.42-1.47.06-2.61,1.21-2.55,2.6-.14-.02-.29-.03-.44-.03-1.36.03-2.42,1.08-2.37,2.36.02.48.2.93.48,1.3-1.56.52-2.64,1.93-2.57,3.58.02.56.18,1.08.43,1.56Z"/>
      <g>
        <g>
          <path class="cls-5" d="M46.74,97.71l1.85,14.45c.16,1.24-.72,2.37-1.95,2.53h0c-1.24.16-2.37-.72-2.53-1.95l-1.92-15c-.36-2.82,2.79-3.26,2.61-4.67l-.06-.47-3.23.41c-.52.07-.95.45-1.08.96h0c-.13.52-.56.9-1.09.97h0c-1.24.16-2.37-.72-2.53-1.95l-.02-.14c-.1-.8.23-1.6.88-2.09.74-.56,1.55-.88,3.49-1.39l2.86-.37c3.41-.44,4.8.56,5.07,2.65l.14,1.11c.31,2.43-2.84,2.23-2.49,4.96Z"/>
          <path class="cls-5" d="M66.14,113.65l-.13-.28c-.89.66-2.11,1.41-3.9,1.41h-3.34c-3.19,0-5.12-1.41-5.12-4.51v-11.82c0-1.36,1.1-2.47,2.47-2.47h0c1.36,0,2.47,1.1,2.47,2.47v10.97c0,.89.56,1.27,1.36,1.27h3.38c1.36,0,2.54-.7,2.54-1.93v-10.31c0-1.36,1.1-2.47,2.47-2.47h0c1.36,0,2.47,1.1,2.47,2.47v13.86c0,1.36-1.1,2.47-2.47,2.47h-.42c-.76,0-1.45-.44-1.77-1.13Z"/>
          <path class="cls-5" d="M89.83,112.04c-1.09,0-1.97-.88-1.97-1.97v-12.78c0-.75-.75-1.36-1.31-1.36l-1.4,1c-.33.24-.73.36-1.14.36h-.61c-.41,0-.81-.13-1.14-.36l-1.4-1c-.55,0-1.31.6-1.31,1.36v9.56c0,.75.4,1.16,1.41,1.16h2.11c1.09,0,1.97.88,1.97,1.97h0c0,.89-.6,1.68-1.46,1.91-1.11.3-2.16.4-3.07.4h-.75c-3.93,0-5.49-1.81-5.49-4.78v-10.37c0-3.57,2.82-5.49,5.54-5.49h.2c1.81,0,2.92.86,3.67,1.76h.05c.75-.91,1.86-1.76,3.67-1.76h.2c2.72,0,5.54,1.91,5.54,5.49v12.93c0,1.09-.88,1.97-1.97,1.97h-1.35Z"/>
          <path class="cls-5" d="M93.31,89.14h-7.3c-2.06,0-3.52-.7-3.52-2.97v-.35c0-.6.15-1.27.31-1.85.2-.7,1.29-1.28,2.64-1.17,1.23.1,2.23,1,2.23,2.23v.18h9.34c.9,0,1.63.73,1.63,1.63h0c0,.62-.34,1.21-.91,1.47-1.04.48-2.4.82-4.42.82Z"/>
          <path class="cls-5" d="M104.13,112.08h-2.69c-1.96,0-3.3-.36-4.39-.79-.72-.29-1.2-.97-1.2-1.75h0c0-1.03.84-1.87,1.87-1.87h5.74c1.17,0,1.52-.41,1.52-1.22v-9.03c0-.81-.35-1.22-1.52-1.22h-7.26c-1.03,0-1.87-.84-1.87-1.87h0c0-.78.48-1.46,1.2-1.75,1.09-.43,2.42-.79,4.38-.79h4.21c4.06,0,6.19,1.57,6.19,4.97v10.35c0,3.4-2.13,4.97-6.19,4.97Z"/>
          <path class="cls-5" d="M126.79,109.35c-1.12.07-2.08-.79-2.15-1.91l-.7-11.82c-.04-.62-.4-1.08-1.16-1.03l-5.2.31c-.76.05-1.07.54-1.03,1.16l.17,2.87,2.41-.14c1.36-.08,2.42,1.18,2.1,2.51h0c-.21.87-.96,1.5-1.85,1.55l-2.41.14.29,4.89c.07,1.12-.79,2.08-1.91,2.15l-.95.06c-1.12.07-2.08-.79-2.15-1.91l-.73-12.25c-.17-2.91,1.48-4.93,5.35-5.16l6.16-.37c3.87-.23,5.75,1.57,5.92,4.49l.73,12.25c.07,1.12-.79,2.08-1.91,2.15l-.95.06Z"/>
          <path class="cls-5" d="M127.66,117.97c-1.32.08-2.45-.93-2.53-2.24l-.06-1.05-1.34.08c-.53.03-.98-.37-1.01-.89l-.07-1.57c-.03-.47.28-.9.74-1.01.92-.22,2.55-.46,3.52-.52,1.77-.1,2.99.6,3.11,2.51l.13,2.15c.08,1.32-.93,2.45-2.24,2.53h-.24Z"/>
          <path class="cls-5" d="M153.4,109.15l-.03-.06c-.87.53-2,1.12-3.46.98l-2.53-.23c-3.04-.27-4.72-1.85-4.48-4.42l.74-8.19c.08-.9-.4-1.29-1.26-1.37l-3.17-.28c-.92-.08-1.74.6-1.82,1.52l-.75,8.31,1.67.15c.92.08,1.6.9,1.52,1.82v.06c-.07.77-.66,1.41-1.43,1.51-.66.09-1.55.15-2.6.05l-.43-.04c-2.49-.22-3.46-1.35-3.3-3.23l1.06-11.81c.06-.66.79-1.69,1.42-1.9,1.47-.5,3.04-.26,5.54-.12l3.43.31c3.73.34,4.9,2.25,4.66,4.87l-.71,7.89c-.06.64.24,1.15,1.1,1.22l2.79.25c1.29.12,2.28-.4,2.39-1.64l.89-9.9c.08-.92.9-1.6,1.82-1.52l1.16.1c.92.08,1.6.9,1.52,1.82l-1.24,13.8c-.08.92-.9,1.6-1.82,1.52l-.68-.06c-.88-.08-1.64-.62-2.01-1.42Z"/>
        </g>
        <g>
          <path class="cls-15" d="M46.74,97.71l1.85,14.45c.16,1.24-.72,2.37-1.95,2.53h0c-1.24.16-2.37-.72-2.53-1.95l-1.92-15c-.36-2.82,2.79-3.26,2.61-4.67l-.06-.47-3.23.41c-.52.07-.95.45-1.08.96h0c-.13.52-.56.9-1.09.97h0c-1.24.16-2.37-.72-2.53-1.95l-.02-.14c-.1-.8.23-1.6.88-2.09.74-.56,1.55-.88,3.49-1.39l2.86-.37c3.41-.44,4.8.56,5.07,2.65l.14,1.11c.31,2.43-2.84,2.23-2.49,4.96Z"/>
          <path class="cls-15" d="M66.14,113.65l-.13-.28c-.89.66-2.11,1.41-3.9,1.41h-3.34c-3.19,0-5.12-1.41-5.12-4.51v-11.82c0-1.36,1.1-2.47,2.47-2.47h0c1.36,0,2.47,1.1,2.47,2.47v10.97c0,.89.56,1.27,1.36,1.27h3.38c1.36,0,2.54-.7,2.54-1.93v-10.31c0-1.36,1.1-2.47,2.47-2.47h0c1.36,0,2.47,1.1,2.47,2.47v13.86c0,1.36-1.1,2.47-2.47,2.47h-.42c-.76,0-1.45-.44-1.77-1.13Z"/>
          <path class="cls-11" d="M89.83,112.04c-1.09,0-1.97-.88-1.97-1.97v-12.78c0-.75-.75-1.36-1.31-1.36l-1.4,1c-.33.24-.73.36-1.14.36h-.61c-.41,0-.81-.13-1.14-.36l-1.4-1c-.55,0-1.31.6-1.31,1.36v9.56c0,.75.4,1.16,1.41,1.16h2.11c1.09,0,1.97.88,1.97,1.97h0c0,.89-.6,1.68-1.46,1.91-1.11.3-2.16.4-3.07.4h-.75c-3.93,0-5.49-1.81-5.49-4.78v-10.37c0-3.57,2.82-5.49,5.54-5.49h.2c1.81,0,2.92.86,3.67,1.76h.05c.75-.91,1.86-1.76,3.67-1.76h.2c2.72,0,5.54,1.91,5.54,5.49v12.93c0,1.09-.88,1.97-1.97,1.97h-1.35Z"/>
          <path class="cls-11" d="M93.31,89.14h-7.3c-2.06,0-3.52-.7-3.52-2.97v-.35c0-.6.15-1.27.31-1.85.2-.7,1.29-1.28,2.64-1.17,1.23.1,2.23,1,2.23,2.23v.18h9.34c.9,0,1.63.73,1.63,1.63h0c0,.62-.34,1.21-.91,1.47-1.04.48-2.4.82-4.42.82Z"/>
          <path class="cls-11" d="M104.13,112.08h-2.69c-1.96,0-3.3-.36-4.39-.79-.72-.29-1.2-.97-1.2-1.75h0c0-1.03.84-1.87,1.87-1.87h5.74c1.17,0,1.52-.41,1.52-1.22v-9.03c0-.81-.35-1.22-1.52-1.22h-7.26c-1.03,0-1.87-.84-1.87-1.87h0c0-.78.48-1.46,1.2-1.75,1.09-.43,2.42-.79,4.38-.79h4.21c4.06,0,6.19,1.57,6.19,4.97v10.35c0,3.4-2.13,4.97-6.19,4.97Z"/>
          <path class="cls-11" d="M126.79,109.35c-1.12.07-2.08-.79-2.15-1.91l-.7-11.82c-.04-.62-.4-1.08-1.16-1.03l-5.2.31c-.76.05-1.07.54-1.03,1.16l.17,2.87,2.41-.14c1.36-.08,2.42,1.18,2.1,2.51h0c-.21.87-.96,1.5-1.85,1.55l-2.41.14.29,4.89c.07,1.12-.79,2.08-1.91,2.15l-.95.06c-1.12.07-2.08-.79-2.15-1.91l-.73-12.25c-.17-2.91,1.48-4.93,5.35-5.16l6.16-.37c3.87-.23,5.75,1.57,5.92,4.49l.73,12.25c.07,1.12-.79,2.08-1.91,2.15l-.95.06Z"/>
          <path class="cls-11" d="M127.66,117.97c-1.32.08-2.45-.93-2.53-2.24l-.06-1.05-1.34.08c-.53.03-.98-.37-1.01-.89l-.07-1.57c-.03-.47.28-.9.74-1.01.92-.22,2.55-.46,3.52-.52,1.77-.1,2.99.6,3.11,2.51l.13,2.15c.08,1.32-.93,2.45-2.24,2.53h-.24Z"/>
          <path class="cls-11" d="M153.4,109.15l-.03-.06c-.87.53-2,1.12-3.46.98l-2.53-.23c-3.04-.27-4.72-1.85-4.48-4.42l.74-8.19c.08-.9-.4-1.29-1.26-1.37l-3.17-.28c-.92-.08-1.74.6-1.82,1.52l-.75,8.31,1.67.15c.92.08,1.6.9,1.52,1.82v.06c-.07.77-.66,1.41-1.43,1.51-.66.09-1.55.15-2.6.05l-.43-.04c-2.49-.22-3.46-1.35-3.3-3.23l1.06-11.81c.06-.66.79-1.69,1.42-1.9,1.47-.5,3.04-.26,5.54-.12l3.43.31c3.73.34,4.9,2.25,4.66,4.87l-.71,7.89c-.06.64.24,1.15,1.1,1.22l2.79.25c1.29.12,2.28-.4,2.39-1.64l.89-9.9c.08-.92.9-1.6,1.82-1.52l1.16.1c.92.08,1.6.9,1.52,1.82l-1.24,13.8c-.08.92-.9,1.6-1.82,1.52l-.68-.06c-.88-.08-1.64-.62-2.01-1.42Z"/>
        </g>
      </g>
    </g>
  </g>
</svg>